<svg width="19" height="10" viewBox="0 0 19 10" fill="none" xmlns="http://www.w3.org/2000/svg">
<path d="M8.44531 0.755859L6.41797 3.70898C6.82422 3.92383 7.16992 4.23438 7.45508 4.64062C7.76367 5.07422 7.91797 5.50781 7.91797 5.94141C7.91797 6.86328 7.57227 7.60352 6.88086 8.16211C6.30273 8.62695 5.52734 8.93555 4.55469 9.08789C3.9375 9.18555 3.23047 9.2168 2.43359 9.18164C2.01953 9.16211 1.66016 9.02148 1.35547 8.75977C1.03516 8.48242 0.875 8.14258 0.875 7.74023C0.875 7.33398 1.03516 6.99414 1.35547 6.7207C1.66016 6.46289 2.01562 6.33398 2.42188 6.33398C2.83594 6.33398 3.19531 6.46289 3.5 6.7207C3.82031 6.99414 3.98047 7.33398 3.98047 7.74023C3.98047 7.92773 3.94531 8.09961 3.875 8.25586C4.3125 8.23242 4.67188 8.04492 4.95312 7.69336C5.22656 7.35352 5.36328 6.94531 5.36328 6.46875C5.36328 5.91406 5.11719 5.44141 4.625 5.05078C4.21094 4.72656 3.76562 4.54297 3.28906 4.5L4.98828 2.42578H1.78906L2.43359 0.755859H8.44531ZM18.6758 3.49219C18.6758 4.20703 18.4277 4.96289 17.9316 5.75977C17.2754 6.81055 16.3223 7.625 15.0723 8.20312C13.9199 8.73438 12.6816 9 11.3574 9H9.42383L11.5449 2.98828H13.6602L11.8613 8.0625C12.6309 8.0625 13.3926 7.82617 14.1465 7.35352C14.9043 6.88086 15.457 6.29688 15.8047 5.60156C16.1172 4.98828 16.2734 4.47656 16.2734 4.06641C16.2734 3.39453 16.0859 2.91211 15.7109 2.61914C15.375 2.36133 14.8594 2.23242 14.1641 2.23242H8.49805L9.40039 0.755859H15.0723C16.0527 0.755859 16.8691 0.962891 17.5215 1.37695C18.291 1.86523 18.6758 2.57031 18.6758 3.49219Z" fill="white"/>
</svg>
