<svg width="18" height="17" viewBox="0 0 18 17" fill="none" xmlns="http://www.w3.org/2000/svg">
<path d="M6.1875 0.375H2.25C0.984375 0.375 0 1.39453 0 2.625V7.125C0 8.39062 0.984375 9.375 2.25 9.375H4.5V10.2188C4.5 11.3086 3.58594 12.1875 2.53125 12.1875H1.96875C1.16016 12.1875 0.5625 12.8203 0.5625 13.5938V14.7188C0.5625 15.5273 1.16016 16.125 1.96875 16.125H2.53125C5.76562 16.125 8.4375 13.4883 8.4375 10.2188V2.625C8.4375 1.39453 7.41797 0.375 6.1875 0.375ZM7.3125 10.2188C7.3125 12.8906 5.16797 15 2.53125 15H1.96875C1.79297 15 1.6875 14.8945 1.6875 14.7188V13.5938C1.6875 13.4531 1.79297 13.3125 1.96875 13.3125H2.53125C4.21875 13.3125 5.625 11.9414 5.625 10.2188V8.25H2.25C1.61719 8.25 1.125 7.75781 1.125 7.125V2.625C1.125 2.02734 1.61719 1.5 2.25 1.5H6.1875C6.78516 1.5 7.3125 2.02734 7.3125 2.625V10.2188ZM15.75 0.375H11.8125C10.5469 0.375 9.5625 1.39453 9.5625 2.625V7.125C9.5625 8.39062 10.5469 9.375 11.8125 9.375H14.0625V10.2188C14.0625 11.3086 13.1484 12.1875 12.0938 12.1875H11.5312C10.7227 12.1875 10.125 12.8203 10.125 13.5938V14.7188C10.125 15.5273 10.7227 16.125 11.5312 16.125H12.0938C15.3281 16.125 18 13.4883 18 10.2188V2.625C18 1.39453 16.9805 0.375 15.75 0.375ZM16.875 10.2188C16.875 12.8906 14.7305 15 12.0938 15H11.5312C11.3555 15 11.25 14.8945 11.25 14.7188V13.5938C11.25 13.4531 11.3555 13.3125 11.5312 13.3125H12.0938C13.7812 13.3125 15.1875 11.9414 15.1875 10.2188V8.25H11.8125C11.1797 8.25 10.6875 7.75781 10.6875 7.125V2.625C10.6875 2.02734 11.1797 1.5 11.8125 1.5H15.75C16.3477 1.5 16.875 2.02734 16.875 2.625V10.2188Z" fill="#AAAAAA"/>
</svg>
