<svg width="28" height="28" viewBox="0 0 28 28" fill="none" xmlns="http://www.w3.org/2000/svg">
<path d="M11.8125 19.4141C11.8125 20.0156 12.5234 20.2891 12.9062 19.9062L18.2656 14.4922C18.5391 14.2188 18.5391 13.8359 18.2656 13.5625L12.9062 8.14844C12.5234 7.71094 11.8125 8.03906 11.8125 8.64062V19.4141ZM14 0.4375C6.50781 0.4375 0.4375 6.50781 0.4375 14C0.4375 21.4922 6.50781 27.5625 14 27.5625C21.4922 27.5625 27.5625 21.4922 27.5625 14C27.5625 6.50781 21.4922 0.4375 14 0.4375ZM14 3.0625C20.0156 3.0625 24.9375 7.98438 24.9375 14C24.9375 20.0703 20.0156 24.9375 14 24.9375C7.92969 24.9375 3.0625 20.0703 3.0625 14C3.0625 7.98438 7.92969 3.0625 14 3.0625Z" fill="#666666"/>
</svg>
