<svg width="24" height="24" viewBox="0 0 24 24" fill="none" xmlns="http://www.w3.org/2000/svg">
<path d="M6.98438 24C8.53125 24 10.0781 23.4375 11.25 22.2656L21.4688 12.0469C21.6562 11.8125 21.6562 11.4844 21.4688 11.25L21.1875 10.9688C20.9531 10.7812 20.625 10.7812 20.3906 10.9688L10.1719 21.1875C8.39062 22.9688 5.53125 22.9688 3.75 21.1875C1.96875 19.4062 1.96875 16.5469 3.75 14.7656L16.0312 2.48438C17.2969 1.21875 19.3594 1.21875 20.5781 2.48438C21.8438 3.70312 21.8438 5.76562 20.5781 7.03125L10.1719 17.4844C9.42188 18.1875 8.20312 18.1875 7.45312 17.4844C6.75 16.7344 6.75 15.5156 7.45312 14.7656L15.4688 6.79688C15.6562 6.5625 15.6562 6.23438 15.4688 6L15.1875 5.71875C14.9531 5.53125 14.625 5.53125 14.3906 5.71875L6.42188 13.7344C5.0625 15.0469 5.0625 17.2031 6.42188 18.5156C7.73438 19.875 9.89062 19.875 11.2031 18.5156L21.6562 8.10938C23.4844 6.23438 23.4844 3.23438 21.6562 1.40625C19.8281 -0.421875 16.8281 -0.421875 14.9531 1.40625L2.67188 13.6875C0.328125 16.0312 0.328125 19.875 2.67188 22.2656C3.84375 23.4375 5.4375 24 6.98438 24Z" fill="#999999"/>
</svg>
