<svg width="14" height="11" viewBox="0 0 14 11" fill="none" xmlns="http://www.w3.org/2000/svg">
<path d="M13.75 4.5625C13.75 4.25781 13.4922 4 13.1875 4H11.5938L9.08594 0.578125C8.85156 0.226562 8.38281 0.15625 8.05469 0.414062C7.70312 0.648438 7.63281 1.11719 7.89062 1.44531L9.74219 4H4.23438L6.08594 1.44531C6.34375 1.11719 6.27344 0.648438 5.92188 0.414062C5.59375 0.15625 5.125 0.226562 4.89062 0.578125L2.38281 4H0.8125C0.484375 4 0.25 4.25781 0.25 4.5625V4.9375C0.25 5.26562 0.484375 5.5 0.8125 5.5H1L1.60938 9.78906C1.67969 10.3516 2.14844 10.75 2.71094 10.75H11.2656C11.8281 10.75 12.2969 10.3516 12.3672 9.78906L13 5.5H13.1875C13.4922 5.5 13.75 5.26562 13.75 4.9375V4.5625ZM7.5625 8.6875C7.5625 9.01562 7.30469 9.25 7 9.25C6.67188 9.25 6.4375 9.01562 6.4375 8.6875V6.0625C6.4375 5.75781 6.67188 5.5 7 5.5C7.30469 5.5 7.5625 5.75781 7.5625 6.0625V8.6875ZM10.1875 8.6875C10.1875 9.01562 9.92969 9.25 9.625 9.25C9.29688 9.25 9.0625 9.01562 9.0625 8.6875V6.0625C9.0625 5.75781 9.29688 5.5 9.625 5.5C9.92969 5.5 10.1875 5.75781 10.1875 6.0625V8.6875ZM4.9375 8.6875C4.9375 9.01562 4.67969 9.25 4.375 9.25C4.04688 9.25 3.8125 9.01562 3.8125 8.6875V6.0625C3.8125 5.75781 4.04688 5.5 4.375 5.5C4.67969 5.5 4.9375 5.75781 4.9375 6.0625V8.6875Z" fill="white"/>
</svg>
