<svg width="24" height="17" viewBox="0 0 24 17" fill="none" xmlns="http://www.w3.org/2000/svg">
<path d="M15.6914 8.25007C15.0937 8.25007 14.5312 7.93366 14.25 7.44148L12 3.67976L9.71484 7.44148C9.43359 7.96882 8.87109 8.28523 8.27343 8.28523C8.09765 8.28523 7.95703 8.25007 7.8164 8.21491L3 6.80866V13.0665C3 13.5938 3.35156 14.0509 3.84375 14.1563L11.4375 16.0899C11.7891 16.1602 12.1758 16.1602 12.5273 16.0899L20.1211 14.1563C20.6484 14.0509 21 13.5938 21 13.0665V6.80866L16.1836 8.21491C16.0078 8.25007 15.8672 8.25007 15.6914 8.25007ZM23.1797 4.31257L21.3516 0.691477C21.2461 0.480539 21.0352 0.37507 20.7891 0.410227L12 1.50007L15.1992 6.87898C15.3398 7.08991 15.6211 7.19538 15.8672 7.12507L22.8281 5.12116C23.1797 5.0157 23.3203 4.62898 23.1797 4.31257ZM2.61328 0.691477L0.785153 4.31257C0.644528 4.62898 0.82031 5.0157 1.13672 5.12116L8.09765 7.12507C8.34375 7.19538 8.625 7.08991 8.76562 6.84382L12 1.50007L3.17578 0.410227C2.92968 0.37507 2.71875 0.480539 2.61328 0.691477Z" fill="#AAAAAA"/>
</svg>
