<svg width="20" height="20" viewBox="0 0 20 20" fill="none" xmlns="http://www.w3.org/2000/svg">
<path d="M18.2812 5.34375C18.5156 5.34375 18.75 5.14844 18.75 4.875V3.625C18.75 3.39062 18.5156 3.15625 18.2812 3.15625H1.71875C1.44531 3.15625 1.25 3.39062 1.25 3.625V4.875C1.25 5.14844 1.44531 5.34375 1.71875 5.34375H18.2812ZM18.2812 11.5938C18.5156 11.5938 18.75 11.3984 18.75 11.125V9.875C18.75 9.64062 18.5156 9.40625 18.2812 9.40625H1.71875C1.44531 9.40625 1.25 9.64062 1.25 9.875V11.125C1.25 11.3984 1.44531 11.5938 1.71875 11.5938H18.2812ZM18.2812 17.8438C18.5156 17.8438 18.75 17.6484 18.75 17.375V16.125C18.75 15.8906 18.5156 15.6562 18.2812 15.6562H1.71875C1.44531 15.6562 1.25 15.8906 1.25 16.125V17.375C1.25 17.6484 1.44531 17.8438 1.71875 17.8438H18.2812Z" fill="white"/>
</svg>
