<svg width="15" height="15" viewBox="0 0 15 15" fill="none" xmlns="http://www.w3.org/2000/svg">
<path d="M7.5 0.109375C3.48633 0.109375 0.234375 3.36133 0.234375 7.375C0.234375 11.3887 3.48633 14.6406 7.5 14.6406C11.5137 14.6406 14.7656 11.3887 14.7656 7.375C14.7656 3.36133 11.5137 0.109375 7.5 0.109375ZM11.0449 9.30859C11.1914 9.42578 11.1914 9.66016 11.0449 9.80664L9.90234 10.9492C9.75586 11.0957 9.52148 11.0957 9.4043 10.9492L7.5 9.01562L5.56641 10.9492C5.44922 11.0957 5.21484 11.0957 5.06836 10.9492L3.92578 9.77734C3.7793 9.66016 3.7793 9.42578 3.92578 9.2793L5.85938 7.375L3.92578 5.4707C3.7793 5.35352 3.7793 5.11914 3.92578 4.97266L5.09766 3.83008C5.21484 3.68359 5.44922 3.68359 5.5957 3.83008L7.5 5.73438L9.4043 3.83008C9.52148 3.68359 9.75586 3.68359 9.90234 3.83008L11.0449 4.97266C11.1914 5.11914 11.1914 5.35352 11.0449 5.4707L9.14062 7.375L11.0449 9.30859Z" fill="#AAAAAA"/>
</svg>
