<svg width="18" height="14" viewBox="0 0 18 14" fill="none" xmlns="http://www.w3.org/2000/svg">
<path d="M5.625 6.125V8.375H12.375V6.125C12.375 4.89453 13.3594 3.875 14.625 3.875H15.75C15.75 2.01172 14.2383 0.5 12.375 0.5H5.625C3.76172 0.5 2.25 2.01172 2.25 3.875H3.375C4.60547 3.875 5.625 4.89453 5.625 6.125ZM15.75 5H14.625C13.9922 5 13.5 5.52734 13.5 6.125V9.5H4.5V6.125C4.5 5.52734 3.97266 5 3.375 5H2.25C0.984375 5 0 6.01953 0 7.25C0 8.09375 0.457031 8.79688 1.125 9.21875V13.4375C1.125 13.7539 1.37109 14 1.6875 14H3.9375C4.21875 14 4.5 13.7539 4.5 13.4375V12.875H13.5V13.4375C13.5 13.7539 13.7461 14 14.0625 14H16.3125C16.5938 14 16.875 13.7539 16.875 13.4375V9.21875C17.543 8.79688 18 8.09375 18 7.25C18 6.01953 16.9805 5 15.75 5Z" fill="#666666"/>
</svg>
