<svg width="20" height="17" viewBox="0 0 20 17" fill="none" xmlns="http://www.w3.org/2000/svg">
<path d="M8.71875 4.48828L2.25 9.83203V15.5625C2.25 15.8789 2.49609 16.125 2.8125 16.125H6.75C7.03125 16.125 7.27734 15.8789 7.27734 15.5625V12.1875C7.27734 11.9062 7.55859 11.625 7.83984 11.625H10.0898C10.4062 11.625 10.6523 11.9062 10.6523 12.1875V15.5625C10.6523 15.8789 10.9336 16.125 11.2148 16.125H15.1875C15.4688 16.125 15.75 15.8789 15.75 15.5625V9.79688L9.24609 4.48828C9.17578 4.41797 9.07031 4.38281 9 4.38281C8.89453 4.38281 8.78906 4.41797 8.71875 4.48828ZM18.9492 8.10938L10.0547 0.761719C9.80859 0.550781 9.31641 0.410156 8.96484 0.410156C8.64844 0.410156 8.15625 0.550781 7.91016 0.761719L-0.984375 8.10938C-1.08984 8.17969 -1.16016 8.32031 -1.16016 8.42578C-1.16016 8.53125 -1.08984 8.63672 -1.05469 8.70703L-0.140625 9.79688C-0.0703125 9.86719 0.0703125 9.9375 0.175781 9.9375C0.246094 9.9375 0.386719 9.90234 0.457031 9.83203L8.71875 3.04688C8.78906 2.97656 8.89453 2.94141 9 2.94141C9.07031 2.94141 9.17578 2.97656 9.24609 3.04688L17.5078 9.83203C17.5781 9.90234 17.7188 9.9375 17.7891 9.9375C17.8945 9.9375 18.0352 9.86719 18.1055 9.79688L19.0195 8.70703C19.0547 8.63672 19.125 8.53125 19.125 8.42578C19.125 8.32031 19.0547 8.17969 18.9492 8.10938Z" fill="#666666"/>
</svg>
