<svg width="18" height="19" viewBox="0 0 18 19" fill="none" xmlns="http://www.w3.org/2000/svg">
<path d="M9 0.25C4.00781 0.25 0 4.29297 0 9.25C0 14.2422 4.00781 18.25 9 18.25C13.957 18.25 18 14.2422 18 9.25C18 4.29297 13.957 0.25 9 0.25ZM9 16C5.27344 16 2.25 12.9766 2.25 9.25C2.25 5.55859 5.27344 2.5 9 2.5C12.6914 2.5 15.75 5.55859 15.75 9.25C15.75 12.9766 12.6914 16 9 16ZM6.1875 9.25C6.1875 8.65234 6.39844 8.05469 6.71484 7.59766L5.02734 5.27734C4.00781 6.29688 3.375 7.70312 3.375 9.25C3.375 9.56641 3.41016 9.88281 3.44531 10.1641L6.1875 9.28516C6.1875 9.28516 6.1875 9.28516 6.1875 9.25ZM6.71484 10.9023L3.97266 11.7812C4.78125 13.3633 6.29297 14.5234 8.15625 14.8047V11.9219C7.55859 11.7461 7.03125 11.3945 6.71484 10.9023ZM9 6.4375C9.28125 6.4375 9.59766 6.50781 9.87891 6.61328L11.5664 4.29297C10.793 3.90625 9.91406 3.625 9 3.625C8.05078 3.625 7.17188 3.90625 6.39844 4.29297L8.08594 6.61328C8.36719 6.50781 8.68359 6.4375 9 6.4375ZM12.9375 5.27734L11.25 7.59766C11.5664 8.05469 11.8125 8.65234 11.8125 9.25C11.8125 9.28516 11.7773 9.28516 11.7773 9.28516L14.5195 10.1641C14.5547 9.88281 14.625 9.56641 14.625 9.28516C14.625 7.70312 13.957 6.29688 12.9375 5.27734ZM9.84375 11.9219V14.8047C11.6719 14.5234 13.1836 13.3633 13.9922 11.7812L11.2852 10.9023C10.9336 11.3945 10.4062 11.7461 9.84375 11.9219ZM9 8.125C8.36719 8.125 7.875 8.65234 7.875 9.25C7.875 9.88281 8.36719 10.375 9 10.375C9.59766 10.375 10.125 9.88281 10.125 9.25C10.125 8.65234 9.59766 8.125 9 8.125Z" fill="#666666"/>
</svg>
