<svg width="22" height="19" viewBox="0 0 22 19" fill="none" xmlns="http://www.w3.org/2000/svg">
<path d="M20.9492 7.07031L20.1406 6.29688C19.9297 6.08594 19.5781 6.08594 19.3672 6.29688L18.9453 6.68359L17.9258 5.66406C18.1367 4.92578 17.9609 4.08203 17.3633 3.51953L15.7812 1.90234C13.5664 -0.277344 10.0156 -0.277344 7.80078 1.90234L11 3.51953V4.15234C11 4.75 11.2461 5.34766 11.668 5.76953L13.3906 7.49219C13.9883 8.05469 14.7969 8.26562 15.5352 8.05469L16.5547 9.07422L16.168 9.46094C15.957 9.70703 15.957 10.0586 16.168 10.2695L16.9766 11.0781C17.1875 11.2891 17.5391 11.2891 17.75 11.0781L20.9492 7.87891C21.1602 7.66797 21.1602 7.31641 20.9492 7.07031ZM10.8594 6.54297C10.7188 6.4375 10.6133 6.26172 10.5078 6.12109L1.54297 14.4883C0.664062 15.332 0.628906 16.7734 1.50781 17.6172C2.35156 18.4961 3.79297 18.4609 4.63672 17.582L13.0039 8.61719C12.8633 8.51172 12.7227 8.40625 12.582 8.26562L10.8594 6.54297Z" fill="#666666"/>
</svg>
