<svg width="18" height="17" viewBox="0 0 18 17" fill="none" xmlns="http://www.w3.org/2000/svg">
<path d="M5.23828 6.84375C5.23828 6.38672 4.85156 6 4.39453 6H0.84375C0.351562 6 0 6.38672 0 6.84375V9.65625C0 10.1484 0.351562 10.5 0.84375 10.5H4.39453C4.85156 10.5 5.23828 10.1484 5.23828 9.65625V6.84375ZM0 12.4688V15.2812C0 15.7734 0.351562 16.125 0.84375 16.125H4.39453C4.85156 16.125 5.23828 15.7734 5.23828 15.2812V12.4688C5.23828 12.0117 4.85156 11.625 4.39453 11.625H0.84375C0.351562 11.625 0 12.0117 0 12.4688ZM4.39453 0.375H0.84375C0.351562 0.375 0 0.761719 0 1.21875V4.03125C0 4.52344 0.351562 4.875 0.84375 4.875H4.39453C4.85156 4.875 5.23828 4.52344 5.23828 4.03125V1.21875C5.23828 0.761719 4.85156 0.375 4.39453 0.375ZM7.20703 16.125H17.1562C17.6133 16.125 18 15.7734 18 15.2812V12.4688C18 12.0117 17.6133 11.625 17.1562 11.625H7.20703C6.75 11.625 6.36328 12.0117 6.36328 12.4688V15.2812C6.36328 15.7734 6.75 16.125 7.20703 16.125ZM6.36328 1.21875V4.03125C6.36328 4.52344 6.75 4.875 7.20703 4.875H17.1562C17.6133 4.875 18 4.52344 18 4.03125V1.21875C18 0.761719 17.6133 0.375 17.1562 0.375H7.20703C6.75 0.375 6.36328 0.761719 6.36328 1.21875ZM7.20703 10.5H17.1562C17.6133 10.5 18 10.1484 18 9.65625V6.84375C18 6.38672 17.6133 6 17.1562 6H7.20703C6.75 6 6.36328 6.38672 6.36328 6.84375V9.65625C6.36328 10.1484 6.75 10.5 7.20703 10.5Z" fill="#666666"/>
</svg>
