<svg width="16" height="19" viewBox="0 0 16 19" fill="none" xmlns="http://www.w3.org/2000/svg">
<path d="M12.0078 10.9375H13.0625C14.3984 10.9375 15.4883 9.74219 15.2773 8.33594C15.1016 7.21094 14.0469 6.4375 12.9219 6.4375H10.6016C10.3555 6.4375 10.25 6.15625 10.4258 5.98047C11.1641 5.20703 11.5156 4.11719 11.3047 2.95703C11.0234 1.62109 9.93359 0.566406 8.63281 0.320312C6.48828 -0.0664062 4.625 1.58594 4.625 3.625C4.625 4.53906 4.97656 5.38281 5.53906 5.98047C5.71484 6.15625 5.60938 6.4375 5.36328 6.4375H3.04297C1.91797 6.4375 0.898438 7.21094 0.6875 8.33594C0.476562 9.74219 1.56641 10.9375 2.9375 10.9375H3.95703C4.30859 10.9375 4.625 11.2539 4.625 11.6055C4.625 11.7461 4.55469 11.8867 4.44922 11.9922L2.41016 14.4531C1.60156 15.4375 1.67188 17.0195 2.65625 17.793C3.07812 18.1094 3.57031 18.25 4.0625 18.25C4.69531 18.25 5.32812 18.0039 5.78516 17.4414L7.12109 15.8594C7.57812 15.2969 8.38672 15.2969 8.84375 15.8594L10.2148 17.4414C10.6367 18.0039 11.2695 18.25 11.9375 18.25C12.4297 18.25 12.8867 18.1094 13.3086 17.793C14.3281 17.0195 14.3633 15.4375 13.5547 14.4531L11.5156 11.9922C11.4102 11.8867 11.375 11.7461 11.375 11.6055C11.375 11.2539 11.6562 10.9375 12.0078 10.9375ZM6.875 3.625C6.55859 3.625 6.3125 3.37891 6.3125 3.0625C6.3125 2.78125 6.55859 2.5 6.875 2.5C7.15625 2.5 7.4375 2.78125 7.4375 3.0625C7.4375 3.37891 7.15625 3.625 6.875 3.625ZM8 13.1875C7.68359 13.1875 7.4375 12.9414 7.4375 12.625C7.4375 12.3438 7.68359 12.0625 8 12.0625C8.28125 12.0625 8.5625 12.3438 8.5625 12.625C8.5625 12.9414 8.28125 13.1875 8 13.1875ZM8 10.9375C7.68359 10.9375 7.4375 10.6914 7.4375 10.375C7.4375 10.0938 7.68359 9.8125 8 9.8125C8.28125 9.8125 8.5625 10.0938 8.5625 10.375C8.5625 10.6914 8.28125 10.9375 8 10.9375ZM8 8.6875C7.68359 8.6875 7.4375 8.44141 7.4375 8.125C7.4375 7.84375 7.68359 7.5625 8 7.5625C8.28125 7.5625 8.5625 7.84375 8.5625 8.125C8.5625 8.44141 8.28125 8.6875 8 8.6875ZM9.125 3.625C8.80859 3.625 8.5625 3.37891 8.5625 3.0625C8.5625 2.78125 8.80859 2.5 9.125 2.5C9.40625 2.5 9.6875 2.78125 9.6875 3.0625C9.6875 3.37891 9.40625 3.625 9.125 3.625Z" fill="#666666"/>
</svg>
