<svg width="18" height="19" viewBox="0 0 18 19" fill="none" xmlns="http://www.w3.org/2000/svg">
<path d="M12.3398 5.91016C12.7266 6.57812 13.1836 7.70312 13.3242 8.44141C14.6602 9.03906 15.75 10.6562 15.75 12.0977C15.75 14.2422 13.957 16.0352 11.8125 16.0352C9.63281 16.0352 7.875 14.2422 7.875 12.0977V12.0625C7.875 10.5859 8.68359 9.32031 9.91406 8.65234C10.0195 9.03906 10.125 9.42578 10.125 9.8125C10.0898 10.6914 9.63281 11.8867 9.03516 12.5195C9.14062 13.2227 9.70312 14.0664 10.3008 14.4531C11.4258 13.4336 12.375 11.3594 12.375 9.84766V9.8125C12.375 6.96484 10.4062 4.53906 7.76953 3.83594L9 1.375L7.875 0.25H4.5L3.375 1.375L4.60547 3.83594C1.93359 4.53906 0 6.96484 0 9.8125C0 13.2578 2.74219 16 6.1875 16C6.39844 16 6.75 16 6.96094 15.9648C8.01562 17.2305 10.1602 18.2852 11.8125 18.2852C15.2227 18.2852 18 15.5078 18 12.0977V12.0625C18 8.82812 15.5039 6.19141 12.3398 5.91016ZM2.25 9.8125C2.25 7.66797 4.00781 5.91016 6.1875 5.875C7.10156 5.875 7.98047 6.22656 8.64844 6.78906C6.82031 7.87891 5.625 9.8125 5.625 12.0625C5.625 12.5547 5.69531 13.293 5.83594 13.7148C3.83203 13.5742 2.25 11.8867 2.25 9.8125Z" fill="#666666"/>
</svg>
