<svg width="18" height="14" viewBox="0 0 18 14" fill="none" xmlns="http://www.w3.org/2000/svg">
<path d="M16.875 9.5C16.875 5.94922 14.4844 2.92578 11.25 1.97656V1.0625C11.25 0.78125 10.9688 0.5 10.6875 0.5H7.3125C6.99609 0.5 6.75 0.78125 6.75 1.0625V1.97656C3.48047 2.92578 1.125 5.94922 1.125 9.5C0.492188 9.5 0 10.0273 0 10.625V12.875C0 13.5078 0.492188 14 1.125 14H16.875C17.4727 14 18 13.5078 18 12.875V10.625C18 10.0273 17.4727 9.5 16.875 9.5ZM6.04688 4.08594L6.64453 6.93359C6.71484 7.10938 6.89062 7.25 7.06641 7.25H7.45312C7.66406 7.25 7.875 7.07422 7.875 6.82812V2.1875H10.125V6.82812C10.125 7.07422 10.3008 7.25 10.5469 7.25H10.8984C11.0742 7.25 11.25 7.10938 11.3203 6.93359L11.918 4.08594C13.7109 5.03516 15.1523 7.49609 15.1875 9.5H2.8125C2.8125 7.49609 4.25391 5.03516 6.04688 4.08594ZM16.3125 12.3125H1.6875V11.1875H16.3125V12.3125Z" fill="#666666"/>
</svg>
