<svg width="22" height="17" viewBox="0 0 22 17" fill="none" xmlns="http://www.w3.org/2000/svg">
<path d="M20.8438 6C19.8242 6.03516 16.0977 6.24609 13.3203 8.91797C12.1602 9.97266 11.457 11.168 11 12.2578C10.5078 11.168 9.80469 9.97266 8.64453 8.91797C5.86719 6.24609 2.14062 6.03516 1.12109 6C0.980469 6 0.839844 6.14062 0.875 6.28125C0.875 7.26562 1.12109 10.7109 3.96875 13.3125C6.92188 16.1602 9.875 16.125 11 16.125C12.125 16.125 15.043 16.1602 17.9961 13.3125C20.8438 10.7109 21.0898 7.26562 21.125 6.28125C21.125 6.14062 20.9844 6 20.8438 6ZM10.9648 9.90234C11.4219 9.23438 11.9492 8.63672 12.5469 8.14453C13.2148 7.47656 13.918 6.94922 14.6562 6.52734C14.0586 4.06641 12.8281 1.85156 11.2461 0.480469C11.1055 0.375 10.8594 0.375 10.7188 0.480469C9.13672 1.85156 7.90625 4.06641 7.30859 6.52734C8.04688 6.94922 8.75 7.44141 9.38281 8.10938C9.91016 8.53125 10.6133 9.33984 10.9648 9.90234Z" fill="#666666"/>
</svg>
