<svg width="18" height="17" viewBox="0 0 18 17" fill="none" xmlns="http://www.w3.org/2000/svg">
<path d="M9 7.625C6.1875 7.625 2.25 11.9492 2.25 14.6914C2.25 15.9219 3.16406 16.625 4.74609 16.625C6.46875 16.625 7.59375 15.7461 9 15.7461C10.3711 15.7461 11.4961 16.625 13.2188 16.625C14.8008 16.625 15.75 15.9219 15.75 14.6914C15.75 11.9492 11.7773 7.625 9 7.625ZM3.79688 7.20312C3.44531 5.97266 2.32031 5.19922 1.30078 5.44531C0.28125 5.69141 -0.28125 6.85156 0.105469 8.08203C0.457031 9.3125 1.58203 10.0859 2.60156 9.83984C3.62109 9.59375 4.18359 8.43359 3.79688 7.20312ZM6.78516 6.46484C7.875 6.18359 8.40234 4.70703 8.01562 3.19531C7.59375 1.64844 6.36328 0.664062 5.27344 0.945312C4.18359 1.22656 3.65625 2.70312 4.04297 4.21484C4.46484 5.76172 5.69531 6.74609 6.78516 6.46484ZM16.6641 5.44531C15.6445 5.19922 14.5195 5.97266 14.168 7.20312C13.7812 8.43359 14.3438 9.59375 15.3633 9.83984C16.3828 10.0859 17.5078 9.3125 17.8594 8.08203C18.2461 6.85156 17.6836 5.69141 16.6641 5.44531ZM11.1797 6.46484C12.2695 6.74609 13.5 5.76172 13.9219 4.21484C14.3086 2.70312 13.7812 1.22656 12.6914 0.945312C11.6016 0.664062 10.3711 1.64844 9.94922 3.19531C9.5625 4.70703 10.0898 6.18359 11.1797 6.46484Z" fill="#666666"/>
</svg>
