<svg width="18" height="19" viewBox="0 0 18 19" fill="none" xmlns="http://www.w3.org/2000/svg">
<path d="M5.0625 0.847656C4.67578 0.25 3.76172 0.0742188 3.16406 0.53125C1.23047 2.07812 0 4.39844 0 7H9L5.0625 0.847656ZM17.4375 3.625H15.75C14.4844 3.625 13.5 4.64453 13.5 5.875V8.125H0C0 9.91797 0.808594 11.5352 2.10938 12.7305C0.878906 13.0469 0 14.1367 0 15.4375C0 17.0195 1.23047 18.25 2.8125 18.25C4.35938 18.25 5.625 17.0195 5.625 15.4375C5.625 15.1562 5.55469 14.8398 5.44922 14.5586C6.22266 14.7695 7.03125 14.875 7.875 14.875C8.68359 14.875 9.49219 14.7695 10.2656 14.5586C10.1602 14.8398 10.125 15.1562 10.125 15.4375C10.125 17.0195 11.3555 18.25 12.9375 18.25C14.4844 18.25 15.75 17.0195 15.75 15.4375C15.75 14.1367 14.8359 13.0469 13.6055 12.7305C14.9414 11.5352 15.75 9.91797 15.75 8.125V5.875H17.4375C17.7188 5.875 18 5.62891 18 5.3125V4.1875C18 3.90625 17.7188 3.625 17.4375 3.625ZM2.8125 16.5625C2.17969 16.5625 1.6875 16.0703 1.6875 15.4375C1.6875 14.8398 2.17969 14.3125 2.8125 14.3125C3.41016 14.3125 3.9375 14.8398 3.9375 15.4375C3.9375 16.0703 3.41016 16.5625 2.8125 16.5625ZM14.0625 15.4375C14.0625 16.0703 13.5352 16.5625 12.9375 16.5625C12.3047 16.5625 11.8125 16.0703 11.8125 15.4375C11.8125 14.8398 12.3047 14.3125 12.9375 14.3125C13.5352 14.3125 14.0625 14.8398 14.0625 15.4375Z" fill="#666666"/>
</svg>
