<svg width="42" height="37" viewBox="0 0 42 37" fill="none" xmlns="http://www.w3.org/2000/svg">
<path d="M19.9844 11.75C19.7031 11.75 19.5625 11.9609 19.5625 12.2422L20.0547 26.0234C20.0547 26.2344 20.2656 26.375 20.4766 26.375H21.9531C22.1641 26.375 22.375 26.2344 22.375 26.0234L22.8672 12.2422C22.8672 11.9609 22.7266 11.75 22.4453 11.75H19.9844ZM21.25 27.7812C20.125 27.7812 19.2812 28.6953 19.2812 29.75C19.2812 30.875 20.125 31.7188 21.25 31.7188C22.3047 31.7188 23.2188 30.875 23.2188 29.75C23.2188 28.6953 22.3047 27.7812 21.25 27.7812ZM41.0078 31.4375L24.1328 2.1875C22.8672 -0.0625 19.5625 -0.0625 18.2969 2.1875L1.42188 31.4375C0.15625 33.6875 1.77344 36.5 4.375 36.5H38.125C40.6562 36.5 42.3438 33.6875 41.0078 31.4375ZM38.125 34.25H4.375C3.46094 34.25 2.96875 33.3359 3.39062 32.5625L20.2656 3.3125C20.6875 2.60938 21.7422 2.60938 22.1641 3.3125L39.0391 32.5625C39.5312 33.3359 38.9688 34.25 38.125 34.25Z" fill="#FF4F36"/>
</svg>
