<svg width="20" height="20" viewBox="0 0 20 20" fill="none" xmlns="http://www.w3.org/2000/svg">
<path d="M9.99268 0.536499C4.64111 0.536499 0.305176 4.87244 0.305176 10.224C0.305176 15.5756 4.64111 19.9115 9.99268 19.9115C15.3442 19.9115 19.6802 15.5756 19.6802 10.224C19.6802 4.87244 15.3442 0.536499 9.99268 0.536499ZM14.7192 12.8021C14.9146 12.9584 14.9146 13.2709 14.7192 13.4662L13.1958 14.9896C13.0005 15.1849 12.688 15.1849 12.5317 14.9896L9.99268 12.4115L7.41455 14.9896C7.2583 15.1849 6.9458 15.1849 6.75049 14.9896L5.22705 13.4271C5.03174 13.2709 5.03174 12.9584 5.22705 12.7631L7.80518 10.224L5.22705 7.68494C5.03174 7.52869 5.03174 7.21619 5.22705 7.02087L6.78955 5.49744C6.9458 5.30212 7.2583 5.30212 7.45361 5.49744L9.99268 8.0365L12.5317 5.49744C12.688 5.30212 13.0005 5.30212 13.1958 5.49744L14.7192 7.02087C14.9146 7.21619 14.9146 7.52869 14.7192 7.68494L12.1802 10.224L14.7192 12.8021Z" fill="#FF4F36"/>
</svg>
