<svg width="15" height="15" viewBox="0 0 15 15" fill="none" xmlns="http://www.w3.org/2000/svg">
<path d="M7.4707 0.109375C5.53711 0.138672 3.7793 0.900391 2.46094 2.13086L1.40625 1.07617C0.966797 0.636719 0.234375 0.958984 0.234375 1.57422V5.5C0.234375 5.91016 0.527344 6.20312 0.9375 6.20312H4.86328C5.47852 6.20312 5.80078 5.4707 5.36133 5.03125L4.13086 3.80078C5.03906 2.95117 6.21094 2.48242 7.44141 2.48242C10.1367 2.45312 12.4219 4.62109 12.3926 7.43359C12.3926 10.0996 10.2246 12.2969 7.5 12.2969C6.26953 12.2969 5.15625 11.8867 4.24805 11.0957C4.10156 10.9785 3.89648 10.9785 3.7793 11.0957L2.60742 12.2676C2.46094 12.4141 2.46094 12.6484 2.60742 12.7949C3.89648 13.9375 5.625 14.6406 7.5 14.6406C11.4844 14.6406 14.7363 11.3887 14.7656 7.4043C14.7656 3.39062 11.4844 0.109375 7.4707 0.109375Z" fill="#6DB624"/>
</svg>
