<svg width="22" height="19" viewBox="0 0 22 19" fill="none" xmlns="http://www.w3.org/2000/svg">
<path d="M10.4922 5.875C10.3516 5.875 10.2812 5.98047 10.2812 6.12109L10.5273 13.0117C10.5273 13.1172 10.6328 13.1875 10.7383 13.1875H11.4766C11.582 13.1875 11.6875 13.1172 11.6875 13.0117L11.9336 6.12109C11.9336 5.98047 11.8633 5.875 11.7227 5.875H10.4922ZM11.125 13.8906C10.5625 13.8906 10.1406 14.3477 10.1406 14.875C10.1406 15.4375 10.5625 15.8594 11.125 15.8594C11.6523 15.8594 12.1094 15.4375 12.1094 14.875C12.1094 14.3477 11.6523 13.8906 11.125 13.8906ZM21.0039 15.7188L12.5664 1.09375C11.9336 -0.03125 10.2812 -0.03125 9.64844 1.09375L1.21094 15.7188C0.578125 16.8438 1.38672 18.25 2.6875 18.25H19.5625C20.8281 18.25 21.6719 16.8438 21.0039 15.7188ZM19.5625 17.125H2.6875C2.23047 17.125 1.98438 16.668 2.19531 16.2812L10.6328 1.65625C10.8438 1.30469 11.3711 1.30469 11.582 1.65625L20.0195 16.2812C20.2656 16.668 19.9844 17.125 19.5625 17.125Z" fill="#FF4F36"/>
</svg>
