<svg width="38" height="31" viewBox="0 0 38 31" fill="none" xmlns="http://www.w3.org/2000/svg">
<path d="M36.5625 22.2964H35.625V15.4995C35.625 14.3862 35.1562 13.3315 34.3359 12.5112L29.4727 7.64792C28.6523 6.82761 27.5977 6.35886 26.4844 6.35886H24.375V4.01511C24.375 2.25729 22.8516 0.733856 21.0938 0.733856H7.03125C5.21484 0.733856 3.75 2.25729 3.75 4.01511V6.35886H0.46875C0.175781 6.35886 0 6.59323 0 6.82761V7.76511C0 8.05807 0.175781 8.23386 0.46875 8.23386H14.5312C14.7656 8.23386 15 8.05807 15 7.76511V6.82761C15 6.59323 14.7656 6.35886 14.5312 6.35886H6.5625V4.01511C6.5625 3.78073 6.73828 3.54636 7.03125 3.54636H21.0938C21.3281 3.54636 21.5625 3.78073 21.5625 4.01511V22.2964H14.1797C13.2422 20.6557 11.4258 19.4839 9.375 19.4839C8.32031 19.4839 7.38281 19.8354 6.5625 20.3042V17.6089H3.75V25.1089C3.75 28.2143 6.26953 30.7339 9.375 30.7339C12.4805 30.7339 15 28.2143 15 25.1089H22.5C22.5 28.2143 25.0195 30.7339 28.125 30.7339C31.2305 30.7339 33.75 28.2143 33.75 25.1089H36.5625C37.0312 25.1089 37.5 24.6987 37.5 24.1714V23.2339C37.5 22.7651 37.0312 22.2964 36.5625 22.2964ZM9.375 27.9214C7.79297 27.9214 6.5625 26.6909 6.5625 25.1089C6.5625 23.5854 7.79297 22.2964 9.375 22.2964C10.8984 22.2964 12.1875 23.5854 12.1875 25.1089C12.1875 26.6909 10.8984 27.9214 9.375 27.9214ZM24.375 9.17136H26.4844C26.8359 9.17136 27.1875 9.34714 27.4805 9.58151L31.7578 13.8589H24.375V9.17136ZM28.125 27.9214C26.543 27.9214 25.3125 26.6909 25.3125 25.1089C25.3125 23.5854 26.543 22.2964 28.125 22.2964C29.6484 22.2964 30.9375 23.5854 30.9375 25.1089C30.9375 26.6909 29.6484 27.9214 28.125 27.9214ZM32.8125 22.062C31.7578 20.5385 30.0586 19.4839 28.125 19.4839C26.6602 19.4839 25.3711 20.0698 24.375 20.9487V16.6714H32.8125V22.062ZM15 15.2651V14.3276C15 14.0932 14.7656 13.8589 14.5312 13.8589H0.46875C0.175781 13.8589 0 14.0932 0 14.3276V15.2651C0 15.5581 0.175781 15.7339 0.46875 15.7339H14.5312C14.7656 15.7339 15 15.5581 15 15.2651ZM16.4062 11.9839C16.6406 11.9839 16.875 11.8081 16.875 11.5151V10.5776C16.875 10.3432 16.6406 10.1089 16.4062 10.1089H2.34375C2.05078 10.1089 1.875 10.3432 1.875 10.5776V11.5151C1.875 11.8081 2.05078 11.9839 2.34375 11.9839H16.4062Z"/>
</svg>
