<svg width="20" height="14" viewBox="0 0 20 14" fill="none" xmlns="http://www.w3.org/2000/svg">
<path d="M19.4062 0.717773C18.1875 0.217773 16.9688 -0.000976562 15.75 -0.000976562C11.9062 -0.000976562 8.0625 1.96777 4.21875 1.96777C3.25 1.96777 2.28125 1.84277 1.3125 1.53027C1.21875 1.49902 1.09375 1.46777 1 1.46777C0.46875 1.46777 0 1.90527 0 2.46777V12.4053C0 12.7803 0.21875 13.1553 0.5625 13.3115C1.78125 13.8115 3 13.999 4.21875 13.999C8.0625 13.999 11.9062 12.0615 15.75 12.0615C16.7188 12.0615 17.6875 12.1865 18.6562 12.499C18.75 12.5303 18.875 12.5303 18.9688 12.5303C19.5 12.5303 20 12.124 20 11.5615V1.62402C20 1.24902 19.75 0.874023 19.4062 0.717773ZM1.5 3.15527C2.125 3.31152 2.78125 3.37402 3.4375 3.43652C3.25 4.34277 2.46875 5.03027 1.5 5.03027V3.15527ZM1.5 12.0615V10.5615C2.5625 10.5615 3.4375 11.4053 3.46875 12.4678C2.78125 12.4365 2.125 12.2803 1.5 12.0615ZM10 9.99902C8.59375 9.99902 7.5 8.68652 7.5 6.99902C7.5 5.34277 8.59375 3.99902 10 3.99902C11.375 3.99902 12.5 5.34277 12.5 6.99902C12.5 8.68652 11.375 9.99902 10 9.99902ZM18.5 10.874C17.9375 10.749 17.375 10.6553 16.7812 10.624C16.9688 9.81152 17.6562 9.18652 18.5 9.09277V10.874ZM18.5 3.49902C17.5312 3.37402 16.7812 2.56152 16.75 1.59277C17.3438 1.65527 17.9375 1.78027 18.5 1.96777V3.49902Z" fill="#6DB624"/>
</svg>
