<svg width="16" height="17" viewBox="0 0 16 17" fill="none" xmlns="http://www.w3.org/2000/svg">
<path d="M15.3438 2.8125L13.6562 1.125C12.8438 0.3125 11.5 0.3125 10.6875 1.125L0.75 11L0 15.6562C-0.09375 16.1562 0.34375 16.5938 0.84375 16.5L5.5 15.75L15.375 5.8125C16.1875 5 16.1875 3.65625 15.3438 2.8125ZM6.25 10.25C6.375 10.375 6.5625 10.4375 6.75 10.4375C6.90625 10.4375 7.09375 10.375 7.21875 10.25L10.9375 6.53125L11.8438 7.4375L6.5625 12.75V11.4375H5.0625V9.9375H3.75L9.0625 4.65625L9.96875 5.5625L6.25 9.28125C5.96875 9.5625 5.96875 9.96875 6.25 10.25ZM2.5625 14.8438L1.65625 13.9375L2.0625 11.6562L2.625 11.0625H3.9375V12.5625H5.4375V13.875L4.84375 14.4375L2.5625 14.8438ZM14.4062 4.84375L12.875 6.375L10.125 3.625L11.6562 2.09375C11.9375 1.8125 12.4062 1.8125 12.6875 2.09375L14.375 3.78125C14.6875 4.09375 14.6875 4.5625 14.4062 4.84375Z" fill="#0066C0"/>
</svg>
