<svg width="35" height="18" viewBox="0 0 35 18" fill="none" xmlns="http://www.w3.org/2000/svg">
<path d="M18.2105 1.28646C15.9449 -0.627598 12.4683 -0.354161 10.3199 1.8724C8.13235 -0.354161 4.65579 -0.627598 2.39017 1.28646C-0.539522 3.7474 -0.109835 7.77084 1.99954 9.91928L8.83548 16.9115C9.2261 17.3021 9.73392 17.5365 10.3199 17.5365C10.8667 17.5365 11.3745 17.3021 11.7652 16.9115L18.6402 9.91928C20.7105 7.77084 21.1402 3.7474 18.2105 1.28646ZM17.273 8.59115L10.437 15.5833C10.3589 15.6615 10.2808 15.6615 10.1636 15.5833L3.32767 8.59115C1.88235 7.14584 1.60892 4.41146 3.6011 2.73178C5.12454 1.44271 7.46829 1.63803 8.95267 3.1224L10.3199 4.52865L11.687 3.1224C13.1324 1.63803 15.4761 1.44271 16.9995 2.69271C18.9917 4.41146 18.7183 7.14584 17.273 8.59115Z" fill="#AAAAAA"/>
<path d="M34.8902 4.63803L31.4917 1.23959C31.3452 1.0931 31.1402 1.0931 30.9937 1.23959L27.5952 4.63803C27.4488 4.78451 27.4488 5.01889 27.5952 5.13607L28.2398 5.8099C28.3863 5.95639 28.6206 5.92709 28.7671 5.7806L30.437 3.9935V14.4818H26.9214C26.8335 14.4818 26.7163 14.5404 26.6577 14.599L25.7202 15.5365C25.4859 15.7708 25.6616 16.1224 25.9839 16.1224H31.3745C31.7554 16.1224 32.0777 15.8294 32.0777 15.4193V3.9935L33.7183 5.7806C33.8648 5.92709 34.0991 5.95639 34.2456 5.8099L34.8902 5.13607C35.0366 5.01889 35.0366 4.78451 34.8902 4.63803Z" fill="#AAAAAA"/>
</svg>
