<svg width="40" height="40" viewBox="0 0 40 40" fill="none" xmlns="http://www.w3.org/2000/svg">
<path d="M0 4C0 1.79086 1.79086 0 4 0H36C38.2091 0 40 1.79086 40 4V36C40 38.2091 38.2091 40 36 40H4C1.79086 40 0 38.2091 0 36V4Z" fill="#FF4F36"/>
<path d="M24.9818 20.75L25.5286 17.1562H22.0521V14.8125C22.0521 13.7969 22.5208 12.8594 24.0833 12.8594H25.6849V9.77344C25.6849 9.77344 24.2396 9.5 22.8724 9.5C20.0208 9.5 18.1458 11.2578 18.1458 14.3828V17.1562H14.9427V20.75H18.1458V29.5H22.0521V20.75H24.9818Z" fill="white"/>
</svg>
