<svg width="40" height="40" viewBox="0 0 40 40" fill="none" xmlns="http://www.w3.org/2000/svg">
<rect width="40" height="40" rx="20" fill="#FF4F36"/>
<path d="M12.251 27L8.52441 16.2686H8.4541C8.55371 17.8623 8.60352 19.3564 8.60352 20.751V27H6.69629V14.1504H9.6582L13.2266 24.3721H13.2793L16.9531 14.1504H19.9238V27H17.9023V20.6455C17.9023 20.0068 17.917 19.1748 17.9463 18.1494C17.9814 17.124 18.0107 16.5029 18.0342 16.2861H17.9639L14.1055 27H12.251ZM31.2793 27L29.9961 23.4316H25.083L23.8262 27H21.6113L26.4189 14.0977H28.7041L33.5117 27H31.2793ZM29.4424 21.6211L28.2383 18.123C28.1504 17.8887 28.0273 17.5195 27.8691 17.0156C27.7168 16.5117 27.6113 16.1426 27.5527 15.9082C27.3945 16.6289 27.1631 17.417 26.8584 18.2725L25.6982 21.6211H29.4424Z" fill="white"/>
</svg>
