<svg width="16" height="16" viewBox="0 0 16 16" fill="none" xmlns="http://www.w3.org/2000/svg">
<path d="M7.61914 5.94043V7.93262C8.38086 8.1084 9.05469 8.40137 9.75781 8.60645V6.61426C8.99609 6.43848 8.32227 6.14551 7.61914 5.94043ZM14.1523 2.33691C13.1562 2.80566 11.9258 3.27441 10.7246 3.27441C9.17188 3.27441 7.85352 2.24902 5.89062 2.24902C5.1582 2.24902 4.51367 2.39551 3.89844 2.60059C3.98633 2.39551 4.01562 2.16113 3.98633 1.92676C3.95703 1.07715 3.25391 0.432617 2.43359 0.374023C1.49609 0.344727 0.734375 1.10645 0.734375 2.01465C0.734375 2.57129 0.998047 3.06934 1.4375 3.3623V14.6709C1.4375 15.0811 1.73047 15.374 2.14062 15.374H2.60938C2.99023 15.374 3.3125 15.0811 3.3125 14.6709V11.917C4.13281 11.5654 5.1582 11.2725 6.65234 11.2725C8.23438 11.2725 9.52344 12.2979 11.4863 12.2979C12.8926 12.2979 14.0352 11.7998 15.0898 11.0967C15.3242 10.9209 15.4707 10.6279 15.4707 10.3057V3.18652C15.5 2.5127 14.7676 2.07324 14.1523 2.33691ZM5.45117 9.9248C4.68945 10.0127 3.98633 10.1592 3.3125 10.4229V8.34277C4.07422 8.0791 4.68945 7.90332 5.45117 7.84473V9.9248ZM14.0938 5.96973C13.3906 6.2627 12.7168 6.55566 11.9258 6.67285V8.75293C12.6582 8.66504 13.4199 8.43066 14.0938 7.99121V10.0713C13.332 10.54 12.6582 10.8037 11.9258 10.8623V8.75293C11.1348 8.87012 10.5195 8.81152 9.75781 8.60645V10.5693C9.05469 10.3643 8.38086 10.1006 7.61914 9.9541V7.93262C7.0332 7.81543 6.41797 7.75684 5.45117 7.84473V5.79395C4.80664 5.88184 4.16211 6.08691 3.3125 6.40918V4.3291C4.2793 3.97754 4.77734 3.74316 5.45117 3.68457V5.79395C6.24219 5.67676 6.88672 5.73535 7.61914 5.94043V3.97754C8.29297 4.18262 8.99609 4.47559 9.75781 4.59277V6.61426C10.4609 6.76074 11.1641 6.81934 11.9258 6.67285V4.56348C12.7168 4.44629 13.4492 4.18262 14.0938 3.91895V5.96973Z" fill="white"/>
</svg>
