<svg width="134" height="51" viewBox="0 0 134 51" fill="none" xmlns="http://www.w3.org/2000/svg">
<g clip-path="url(#clip0)">
<path d="M130.65 0.990234H3.35C1.49985 0.990234 0 2.51654 0 4.39933V47.5811C0 49.4639 1.49985 50.9902 3.35 50.9902H130.65C132.5 50.9902 134 49.4639 134 47.5811V4.39933C134 2.51654 132.5 0.990234 130.65 0.990234Z" fill="#F64E36"/>
<path d="M80.5731 11.2575C79.5234 11.3313 78.4291 11.3654 77.1952 11.3654C75.8161 11.3654 74.4314 11.3313 72.7285 11.2575C72.293 11.4393 72.293 12.2177 72.5833 12.5131L73.7447 12.7745C74.6213 12.9961 74.9116 13.1438 74.9116 13.3995C74.8519 13.8595 74.7298 14.3089 74.5487 14.7347C74.1076 15.9904 72.5443 20.1325 71.6398 22.4677L70.2551 25.945C69.8196 27.0529 69.2389 28.3086 68.9486 28.9393C68.6918 28.3086 68.2563 27.2006 67.7482 25.8313L64.5433 17.5075C63.9678 16.1871 63.4828 14.8278 63.0917 13.4393C63.0917 13.1041 63.3485 12.8711 64.0018 12.7347L65.1184 12.5131C65.3362 12.1779 65.3697 11.4791 65.0793 11.2575C62.846 11.3313 61.2994 11.3654 59.6244 11.3654C57.7373 11.3654 56.5368 11.2916 54.6832 11.2575C54.5083 11.4098 54.3962 11.6237 54.3693 11.8564C54.3424 12.0891 54.4026 12.3236 54.538 12.5131L55.9897 12.8825C57.1566 13.1779 57.3353 13.2518 58.7199 16.8029L64.6048 31.8597C65.1184 33.1211 65.7214 35.0813 66.1346 36.0813C66.4188 36.2922 66.766 36.3966 67.1173 36.3768C67.5599 36.3958 67.9995 36.2938 68.3903 36.0813C69.2222 34.0075 70.1713 31.087 72.025 26.6097L74.6771 20.2063C75.9166 17.212 76.8211 15.1381 77.6251 13.9166C78.0941 13.1438 78.7418 12.8825 79.73 12.7006L80.6792 12.5131C80.9025 12.2916 80.869 11.4052 80.5731 11.2575ZM88.6801 34.5984L87.9877 34.5131C86.7929 34.4052 86.6422 34.07 86.6422 31.479V24.6609C86.6422 22.9961 86.6813 21.3711 86.7538 20.2575C86.6828 20.1492 86.5851 20.0618 86.4704 20.0039C86.3558 19.9461 86.2283 19.9199 86.1006 19.9279C84.384 20.8291 82.5802 21.547 80.7183 22.07C80.5904 22.2308 80.5207 22.4313 80.5207 22.6381C80.5207 22.845 80.5904 23.0455 80.7183 23.2063L81.2263 23.5359C81.9187 23.9847 81.9187 24.4279 81.9187 25.9052V31.4904C81.9187 34.0813 81.7735 34.4165 80.5731 34.5245L79.8808 34.5984C79.7361 34.7843 79.6607 35.0163 79.6679 35.2534C79.675 35.4904 79.7643 35.7172 79.9198 35.8938C81.1203 35.82 82.6445 35.7859 84.2804 35.7859C85.9163 35.7859 87.3736 35.82 88.6466 35.8938C88.8003 35.716 88.8879 35.489 88.894 35.2523C88.9001 35.0155 88.8244 34.7841 88.6801 34.5984ZM84.3921 12.1438C84.0369 12.1316 83.6829 12.1924 83.3514 12.3227C83.0198 12.453 82.7176 12.65 82.4626 12.902C82.2077 13.154 82.0054 13.4558 81.8678 13.7893C81.7302 14.1227 81.6601 14.481 81.6618 14.8427C81.6374 15.1909 81.6863 15.5403 81.8052 15.8678C81.924 16.1952 82.1101 16.4931 82.3511 16.7415C82.592 16.99 82.8823 17.1832 83.2025 17.3085C83.5227 17.4337 83.8654 17.488 84.2078 17.4677C84.5648 17.4874 84.922 17.4317 85.2568 17.3041C85.5916 17.1765 85.8969 16.9798 86.1533 16.7263C86.4098 16.4728 86.6119 16.168 86.747 15.8311C86.882 15.4942 86.9471 15.1325 86.9381 14.7688C86.9528 14.423 86.8973 14.0778 86.775 13.7548C86.6527 13.4318 86.4663 13.1379 86.2274 12.8916C85.9884 12.6452 85.7021 12.4516 85.3863 12.323C85.0705 12.1943 84.7321 12.1333 84.3921 12.1438ZM100.857 33.195C100.41 33.5236 99.8829 33.7203 99.3331 33.7631C96.7871 33.7631 96.7871 31.4904 96.7871 29.3938V23.8313C96.7871 23.0188 96.8262 22.9847 97.2952 22.9847H100.567C100.93 22.7631 101.042 22.0927 101.042 21.6893C101.051 21.5569 101.029 21.4242 100.979 21.3018C100.929 21.1794 100.851 21.0708 100.751 20.9847H97.5129C96.8597 20.9847 96.8262 20.9506 96.8262 20.2461V17.4677C96.6791 17.3275 96.4941 17.2353 96.2952 17.2029C96.0962 17.1705 95.8922 17.1994 95.7095 17.2859C94.9838 18.3996 94.0732 19.3763 93.0183 20.1722C92.0838 20.8502 91.0713 21.4093 90.0033 21.837C89.9379 21.9239 89.8913 22.0239 89.8667 22.1305C89.8421 22.237 89.84 22.3477 89.8606 22.4551C89.8812 22.5626 89.924 22.6643 89.9861 22.7537C90.0483 22.843 90.1283 22.9179 90.2211 22.9734H91.3377C91.991 22.9734 92.0301 23.0472 92.0301 23.82V32.087C92.0301 34.5245 93.0798 36.3029 96.1003 36.3029C98.0561 36.3179 99.9384 35.546 101.338 34.1552C101.384 33.9631 101.361 33.7604 101.273 33.5841C101.185 33.4078 101.037 33.2697 100.857 33.195ZM117.512 33.4563C117.1 33.7311 116.621 33.8845 116.128 33.8995C115.402 33.8995 114.347 33.229 114.492 30.7177L114.749 25.8313C114.927 22.0188 113.146 20.4677 110.092 20.4677C107.869 20.537 105.727 21.334 103.984 22.7404C103.113 23.445 102.242 24.6268 102.242 25.5813C102.242 26.0984 102.46 26.5018 103.074 26.5018C103.998 26.4244 104.894 26.135 105.692 25.6552C105.873 25.5137 106.022 25.3346 106.129 25.1297C106.236 24.9249 106.298 24.6992 106.312 24.4677C106.569 22.8768 107.328 22.3597 108.205 22.3597C109.768 22.3597 110.31 24.1381 110.31 25.5415C110.306 25.9611 110.282 26.3802 110.237 26.7972C110.204 27.0984 110.02 27.3654 109.366 27.5415C108.35 27.837 107.328 28.1097 105.949 28.5756C103.292 29.3995 102.175 30.5359 102.175 32.4165C102.175 35.0075 104.135 36.3029 106.245 36.3029C107.371 36.2475 108.451 35.8342 109.333 35.1211C109.701 34.8597 109.919 34.712 110.098 34.712C110.314 34.7351 110.513 34.8407 110.656 35.0075C111.055 35.4185 111.531 35.7446 112.055 35.967C112.58 36.1894 113.142 36.3036 113.71 36.3029C114.51 36.2757 115.296 36.0845 116.021 35.7408C116.746 35.3972 117.396 34.9081 117.931 34.3029C117.979 34.1341 117.962 33.9532 117.884 33.7963C117.807 33.6395 117.674 33.5181 117.512 33.4563ZM110.131 29.7518L110.059 32.087C110.02 33.2234 109.802 33.8995 108.674 33.8995C107.658 33.8995 106.82 32.8597 106.82 31.6779C106.82 29.9393 108.238 29.3086 109.874 29.087C110.131 29.0529 110.165 29.1609 110.131 29.7518ZM53.3488 33.729C52.8803 33.9013 52.3891 34.0009 51.8915 34.0245C51.0205 34.0245 50.9088 33.0586 50.9088 30.8768V24.1665C50.9088 22.7972 50.9814 21.5756 51.0205 20.9109C50.9814 20.6552 50.8028 20.4677 50.6576 20.4677C50.5124 20.4677 49.3455 20.8768 48.0725 21.0359C46.9112 21.1836 45.6047 21.3313 44.2926 21.4052C43.8571 21.5529 43.8236 22.445 44.1139 22.7006L44.622 22.7745C45.9285 22.962 46.1853 23.2916 46.1853 24.7745V31.7859C46.1955 31.9929 46.1652 32.2 46.0962 32.395C46.0272 32.5901 45.9208 32.7693 45.7833 32.9222C45.2565 33.3778 44.5875 33.6276 43.8962 33.6268C41.5679 33.6268 41.3111 32.07 41.3111 30.2915V24.1665C41.3111 22.837 41.3502 21.837 41.4228 20.9109C41.3837 20.7291 41.205 20.4677 40.9873 20.4677C40.7695 20.4677 39.7868 20.9109 38.6925 21.0984C37.529 21.2939 36.3538 21.4097 35.175 21.445C35.0045 21.6088 34.8965 21.8286 34.8699 22.0657C34.8433 22.3028 34.9 22.5417 35.0298 22.7404L35.4988 22.8881C36.3754 23.1495 36.6155 23.3313 36.6155 25.2915V31.5643C36.6155 34.712 37.8494 36.3029 40.87 36.3029C43.1033 36.3029 44.3931 35.4506 45.8113 34.5245C45.8618 34.5206 45.9125 34.5272 45.9604 34.5439C46.0083 34.5606 46.0524 34.587 46.09 34.6215C46.1276 34.6561 46.1579 34.698 46.1791 34.7448C46.2003 34.7916 46.2119 34.8423 46.2133 34.8938C46.2065 35.341 46.1691 35.7871 46.1016 36.229C46.1156 36.3416 46.166 36.4463 46.2448 36.5265C46.3236 36.6067 46.4265 36.658 46.5371 36.6722C48.7041 35.9344 50.9564 35.4874 53.2371 35.3427C53.7117 35.1552 53.6726 33.8256 53.3488 33.7518V33.729ZM35.0968 34.712C34.202 34.6228 33.3541 34.2626 32.6625 33.6779C30.9149 32.1609 29.4242 29.3995 27.0289 24.4279C26.8447 24.0188 26.8447 23.7972 27.2076 23.6097C28.8826 22.7631 31.0601 21.337 31.0601 18.0643C31.0796 16.939 30.7905 15.8304 30.2254 14.8629C29.6603 13.8954 28.8415 13.1073 27.8608 12.587C26.4818 11.7347 23.8297 11.2575 20.7365 11.2575C17.2804 11.2575 14.4497 11.4052 11.7194 11.587C11.622 11.6609 11.5417 11.7557 11.4841 11.8646C11.4265 11.9736 11.3931 12.094 11.3862 12.2175C11.3792 12.341 11.399 12.4645 11.444 12.5794C11.4891 12.6943 11.5583 12.7977 11.6468 12.8825L12.6295 13.0302C14.1538 13.2518 14.2319 13.6609 14.2319 17.3597V30.4563C14.2319 33.8654 14.0086 34.1211 12.3727 34.4336L11.3956 34.6154C11.2543 34.8007 11.1777 35.0286 11.1777 35.2631C11.1777 35.4977 11.2543 35.7255 11.3956 35.9109C13.2828 35.837 14.8852 35.8029 16.6998 35.8029C18.5143 35.8029 20.1168 35.837 22.0486 35.9109C22.1719 35.7181 22.2375 35.4931 22.2375 35.2631C22.2375 35.0332 22.1719 34.8082 22.0486 34.6154L21.0659 34.4336C19.43 34.1381 19.2123 33.8654 19.2123 30.4563V25.9109C19.2123 25.1722 19.2848 25.0984 20.5578 25.0984C20.9757 25.0597 21.3941 25.1669 21.7442 25.4023C22.0943 25.6377 22.3552 25.9874 22.4841 26.3938C23.2947 28.3709 24.2425 30.2867 25.3204 32.1268C26.9173 34.7859 29.0333 36.0075 32.3833 36.0075C33.3492 36.0513 34.3154 35.9303 35.242 35.6495C35.3382 35.5033 35.3767 35.3256 35.3498 35.1518C35.3229 34.978 35.2326 34.821 35.0968 34.712ZM24.2261 22.4279C23.8644 22.799 23.4266 23.0842 22.944 23.2629C22.4614 23.4417 21.9459 23.5097 21.4344 23.462C19.2904 23.462 19.2011 23.3541 19.2011 22.0586V14.8427C19.2011 13.07 19.2737 12.9563 20.7644 12.9563C23.5952 12.9563 25.527 15.1041 25.527 18.4336C25.5382 20.6154 24.8458 21.7972 24.2261 22.4279ZM122.794 7.8086C121.681 7.80747 120.593 8.14227 119.667 8.77066C118.74 9.39905 118.018 10.2928 117.591 11.3389C117.164 12.385 117.052 13.5364 117.268 14.6476C117.484 15.7588 118.019 16.7799 118.805 17.5816C119.591 18.3834 120.594 18.9299 121.685 19.152C122.777 19.3741 123.908 19.2618 124.937 18.8293C125.966 18.3969 126.846 17.6637 127.465 16.7225C128.084 15.7813 128.416 14.6743 128.417 13.5416C128.417 12.023 127.825 10.5666 126.771 9.49175C125.716 8.41694 124.286 7.81161 122.794 7.8086ZM122.794 18.695C121.791 18.6961 120.81 18.3943 119.976 17.8279C119.141 17.2614 118.49 16.4557 118.106 15.5128C117.722 14.5699 117.621 13.5321 117.816 12.5308C118.012 11.5295 118.495 10.6097 119.204 9.88784C119.913 9.16599 120.817 8.67452 121.801 8.47564C122.785 8.27675 123.805 8.3794 124.731 8.77058C125.658 9.16176 126.45 9.8239 127.006 10.6732C127.563 11.5225 127.859 12.5207 127.858 13.5416C127.857 14.9084 127.323 16.2189 126.374 17.1859C125.425 18.1529 124.137 18.6976 122.794 18.7006V18.695ZM124.927 15.5188C124.8 15.365 124.697 15.1926 124.62 15.0075L124.385 14.4961C124.303 14.3115 124.196 14.1394 124.067 13.9847C123.938 13.8477 123.782 13.7394 123.609 13.6666V13.6268C123.81 13.544 123.998 13.4331 124.168 13.2972C124.314 13.1795 124.432 13.03 124.514 12.8597C124.602 12.662 124.644 12.4461 124.637 12.2291C124.641 12.0613 124.616 11.894 124.564 11.7347C124.522 11.5992 124.454 11.4737 124.363 11.3654C124.27 11.257 124.158 11.1665 124.034 11.0984C123.868 11.008 123.689 10.9447 123.503 10.9109C123.258 10.8664 123.01 10.8455 122.761 10.8484H120.611V11.0984C120.687 11.1148 120.76 11.1416 120.829 11.1779C120.88 11.2059 120.921 11.2496 120.946 11.3029C120.977 11.3628 120.994 11.4287 120.996 11.4961C120.996 11.5756 120.996 11.6779 120.996 11.7972V15.0359C120.996 15.1552 120.996 15.2518 120.996 15.3313C120.988 15.3995 120.971 15.4662 120.946 15.5302C120.919 15.5805 120.878 15.6219 120.829 15.6495C120.758 15.6815 120.686 15.708 120.611 15.7291V15.979H122.549V15.7631C122.45 15.7447 122.356 15.704 122.275 15.6438C122.224 15.5954 122.189 15.5318 122.174 15.462C122.162 15.3316 122.162 15.2004 122.174 15.07V13.8313H122.387C122.489 13.8242 122.592 13.8397 122.688 13.8768C122.764 13.9146 122.829 13.9713 122.878 14.0415C122.965 14.1686 123.04 14.3036 123.101 14.445L123.386 15.087C123.52 15.4011 123.683 15.7017 123.872 15.9847H125.29V15.7631C125.146 15.7282 125.018 15.644 124.927 15.5245V15.5188ZM123.487 12.7404C123.459 12.8623 123.405 12.9767 123.33 13.0756C123.249 13.1772 123.143 13.2555 123.023 13.3029C122.868 13.3625 122.703 13.3896 122.537 13.3825H122.174V11.3029C122.236 11.3029 122.375 11.3029 122.588 11.3029C122.716 11.2928 122.845 11.3104 122.966 11.3544C123.087 11.3985 123.198 11.4681 123.291 11.5586C123.462 11.7746 123.546 12.0489 123.526 12.3256C123.527 12.4668 123.514 12.6077 123.487 12.7461V12.7404Z" fill="white"/>
</g>
<defs>
<clipPath id="clip0">
<path d="M0 0.990234H134V50.9902H0V0.990234Z" fill="white"/>
</clipPath>
</defs>
</svg>
