<svg width="25" height="26" viewBox="0 0 25 26" fill="none" xmlns="http://www.w3.org/2000/svg">
<path d="M21.875 0.135254H3.125C1.36719 0.135254 0 1.55127 0 3.26025V17.3228C0 19.0806 1.36719 20.4478 3.125 20.4478H7.8125V24.5493C7.8125 24.9399 8.05664 25.1353 8.39844 25.1353C8.49609 25.1353 8.59375 25.1353 8.74023 25.0376L14.8438 20.4478H21.875C23.584 20.4478 25 19.0806 25 17.3228V3.26025C25 1.55127 23.584 0.135254 21.875 0.135254ZM23.4375 17.3228C23.4375 18.2017 22.7051 18.8853 21.875 18.8853H14.3066L13.8672 19.2271L9.375 22.5962V18.8853H3.125C2.24609 18.8853 1.5625 18.2017 1.5625 17.3228V3.26025C1.5625 2.43018 2.24609 1.69775 3.125 1.69775H21.875C22.7051 1.69775 23.4375 2.43018 23.4375 3.26025V17.3228ZM16.1621 11.7563C15.2832 12.8306 13.916 13.4165 12.5 13.4165C11.0352 13.4165 9.7168 12.8306 8.78906 11.7563C8.49609 11.4146 8.00781 11.3657 7.66602 11.6587C7.32422 11.9517 7.32422 12.4399 7.56836 12.7817C8.78906 14.1978 10.5957 14.979 12.5 14.979C14.3555 14.979 16.1621 14.1978 17.3828 12.7817C17.6758 12.4399 17.627 11.9517 17.2852 11.6587C16.9434 11.3657 16.4551 11.4146 16.1621 11.7563ZM9.375 9.11963C10.0098 9.11963 10.5469 8.63135 10.5469 7.94775C10.5469 7.31299 10.0098 6.77588 9.375 6.77588C8.69141 6.77588 8.20312 7.31299 8.20312 7.94775C8.20312 8.63135 8.69141 9.11963 9.375 9.11963ZM15.625 9.11963C16.2598 9.11963 16.7969 8.63135 16.7969 7.94775C16.7969 7.31299 16.2598 6.77588 15.625 6.77588C14.9414 6.77588 14.4531 7.31299 14.4531 7.94775C14.4531 8.63135 14.9414 9.11963 15.625 9.11963Z" fill="#666666"/>
</svg>
