<svg width="29" height="26" viewBox="0 0 29 26" fill="none" xmlns="http://www.w3.org/2000/svg">
<path d="M27.7812 7.94775C27.6836 7.94775 27.5859 7.99658 27.4883 8.04541L19.1875 11.0728L18.6504 10.9263C19.8223 9.21729 20.75 7.45947 20.75 6.14111C20.75 2.8208 17.918 0.135254 14.5 0.135254C11.0332 0.135254 8.25 2.86963 8.25 6.14111C8.25 6.72705 8.44531 7.41064 8.73828 8.14307L1.41406 10.6821C0.828125 10.9263 0.4375 11.5122 0.4375 12.147V24.354C0.4375 24.8423 0.779297 25.1353 1.21875 25.1353C1.31641 25.1353 1.41406 25.1353 1.51172 25.0864L9.8125 22.0103L18.2109 24.9888C18.8457 25.1841 19.5293 25.2329 20.1641 24.9888L27.5371 22.4009C28.1719 22.2056 28.5625 21.6196 28.5625 20.9849V8.729C28.5625 8.28955 28.1719 7.94775 27.7812 7.94775ZM9.03125 20.6431L1.95117 23.231L1.90234 12.1958L9.03125 9.70557V20.6431ZM14.5 1.69775C17.0391 1.69775 19.1875 3.69971 19.1875 6.14111C19.1875 7.45947 17.2832 10.4868 14.5 13.8071C11.668 10.4868 9.8125 7.45947 9.8125 6.14111C9.8125 3.69971 11.9121 1.69775 14.5 1.69775ZM18.4062 23.4263L10.5938 20.6431V11.3169C11.7656 13.0747 13.1328 14.6372 13.8652 15.5161C14.0117 15.7114 14.2559 15.7603 14.5 15.7603C14.6953 15.7603 14.9395 15.7114 15.0859 15.5161C15.7207 14.7837 16.7461 13.6118 17.7227 12.2446L18.4062 12.4888V23.4263ZM19.9688 23.4263V12.4888L27 9.85205L27.0488 20.936L19.9688 23.4263ZM15.6719 6.38525C15.6719 5.75049 15.1348 5.21338 14.5 5.21338C13.8164 5.21338 13.3281 5.75049 13.3281 6.38525C13.3281 7.06885 13.8164 7.55713 14.5 7.55713C15.1348 7.55713 15.6719 7.06885 15.6719 6.38525Z" fill="#666666"/>
</svg>
