<svg width="25" height="26" viewBox="0 0 25 26" fill="none" xmlns="http://www.w3.org/2000/svg">
<path d="M17.1875 12.2446V11.4634C17.1875 11.2681 16.9922 11.0728 16.7969 11.0728H8.20312C7.95898 11.0728 7.8125 11.2681 7.8125 11.4634V12.2446C7.8125 12.4888 7.95898 12.6353 8.20312 12.6353H16.7969C16.9922 12.6353 17.1875 12.4888 17.1875 12.2446ZM8.20312 9.51025H16.7969C16.9922 9.51025 17.1875 9.36377 17.1875 9.11963V8.33838C17.1875 8.14307 16.9922 7.94775 16.7969 7.94775H8.20312C7.95898 7.94775 7.8125 8.14307 7.8125 8.33838V9.11963C7.8125 9.36377 7.95898 9.51025 8.20312 9.51025ZM24.1211 8.19189C24.0234 8.09424 23.0469 7.31299 21.875 6.33643V4.82275C21.875 3.99268 21.1426 3.26025 20.3125 3.26025H18.0176C17.8223 3.11377 17.627 2.96729 17.5293 2.86963C16.4551 2.03955 14.5996 0.135254 12.5 0.135254C10.3516 0.135254 8.54492 1.99072 7.42188 2.86963C7.32422 2.96729 7.12891 3.11377 6.93359 3.26025H4.6875C3.80859 3.26025 3.125 3.99268 3.125 4.82275V6.33643C1.9043 7.31299 0.927734 8.09424 0.830078 8.19189C0.341797 8.58252 0 9.36377 0 9.99854V22.7915C0 24.1099 1.02539 25.1353 2.34375 25.1353H22.6562C23.9258 25.1353 25 24.1099 25 22.7915V9.99854C25 9.31494 24.6582 8.63135 24.1211 8.19189ZM12.5 1.69775C13.5254 1.69775 14.6484 2.52783 15.5762 3.26025H9.375C10.3027 2.52783 11.4258 1.69775 12.5 1.69775ZM4.6875 4.82275H20.3125V13.3188C18.7012 14.5884 17.0898 15.8579 16.0645 16.688C15.2344 17.3716 13.623 18.9341 12.5 18.8853C11.3281 18.9341 9.7168 17.3716 8.88672 16.688C7.86133 15.8579 6.25 14.5884 4.6875 13.3188V4.82275ZM1.5625 9.99854C1.5625 9.75439 1.66016 9.55908 1.80664 9.4126C1.9043 9.36377 2.39258 8.92432 3.125 8.38721V12.0493C2.53906 11.6099 2.00195 11.1704 1.5625 10.7798V9.99854ZM23.4375 22.7915C23.4375 23.231 23.0469 23.5728 22.6562 23.5728H2.34375C1.9043 23.5728 1.5625 23.231 1.5625 22.7915V12.7817C3.61328 14.4907 6.39648 16.688 7.91016 17.9087C8.93555 18.7388 10.6934 20.4966 12.5 20.4478C14.2578 20.4966 16.0156 18.7388 17.041 17.9087C18.5547 16.688 21.3379 14.4907 23.4375 12.7817V22.7915ZM23.4375 10.7798C22.9492 11.1704 22.4121 11.6099 21.875 12.0493V8.38721C22.5586 8.92432 23.0469 9.36377 23.1445 9.4126C23.291 9.55908 23.4375 9.75439 23.4375 9.99854V10.7798Z" fill="#666666"/>
</svg>
