<svg width="40" height="38" viewBox="0 0 40 38" fill="none" xmlns="http://www.w3.org/2000/svg">
<path d="M36.25 10.25H34.1406C34.6875 9.3125 35 8.29688 35 7.125C35 3.375 31.875 0.25 28.125 0.25C24.8438 0.25 22.7344 1.96875 20.0781 5.64062C17.3438 1.96875 15.2344 0.25 12.0312 0.25C8.20312 0.25 5.15625 3.375 5.15625 7.125C5.15625 8.29688 5.39062 9.3125 5.9375 10.25H3.75C1.64062 10.25 0 11.9688 0 14V24C0 24.7031 0.546875 25.25 1.25 25.25H2.5V33.6875C2.5 35.9531 4.29688 37.75 6.5625 37.75H33.3594C35.625 37.75 37.5 35.9531 37.5 33.6875V25.25H38.75C39.375 25.25 40 24.7031 40 24V14C40 11.9688 38.2812 10.25 36.25 10.25ZM18.125 34H6.5625C6.40625 34 6.25 33.8438 6.25 33.6875V25.25H15V21.5H3.75V14H18.125V34ZM11.9531 10.25C10.2344 10.25 8.82812 8.92188 8.82812 7.125C8.82812 5.40625 10.2344 4 11.9531 4C13.6719 4 14.9219 4.625 18.5938 10.0156L18.75 10.25H11.9531ZM21.4844 10.0156C25.1562 4.625 26.4062 4 28.125 4C29.8438 4 31.25 5.40625 31.25 7.125C31.25 8.92188 29.8438 10.25 28.125 10.25H21.3281L21.4844 10.0156ZM36.25 21.5H25V25.25H33.75V33.6875C33.75 33.8438 33.5938 34 33.3594 34H21.875V14H36.25V21.5Z" fill="white"/>
</svg>
