<svg width="30" height="29" viewBox="0 0 30 29" fill="none" xmlns="http://www.w3.org/2000/svg">
<path d="M27.1875 8.17139H25.6055C26.0156 7.46826 26.25 6.70654 26.25 5.82764C26.25 3.01514 23.9062 0.671387 21.0938 0.671387C18.6328 0.671387 17.0508 1.96045 15.0586 4.71436C13.0078 1.96045 11.4258 0.671387 9.02344 0.671387C6.15234 0.671387 3.86719 3.01514 3.86719 5.82764C3.86719 6.70654 4.04297 7.46826 4.45312 8.17139H2.8125C1.23047 8.17139 0 9.46045 0 10.9839V18.4839C0 19.0112 0.410156 19.4214 0.9375 19.4214H1.875V25.7495C1.875 27.4487 3.22266 28.7964 4.92188 28.7964H25.0195C26.7188 28.7964 28.125 27.4487 28.125 25.7495V19.4214H29.0625C29.5312 19.4214 30 19.0112 30 18.4839V10.9839C30 9.46045 28.7109 8.17139 27.1875 8.17139ZM13.5938 25.9839H4.92188C4.80469 25.9839 4.6875 25.8667 4.6875 25.7495V19.4214H11.25V16.6089H2.8125V10.9839H13.5938V25.9839ZM8.96484 8.17139C7.67578 8.17139 6.62109 7.17529 6.62109 5.82764C6.62109 4.53857 7.67578 3.48389 8.96484 3.48389C10.2539 3.48389 11.1914 3.95264 13.9453 7.99561L14.0625 8.17139H8.96484ZM16.1133 7.99561C18.8672 3.95264 19.8047 3.48389 21.0938 3.48389C22.3828 3.48389 23.4375 4.53857 23.4375 5.82764C23.4375 7.17529 22.3828 8.17139 21.0938 8.17139H15.9961L16.1133 7.99561ZM27.1875 16.6089H18.75V19.4214H25.3125V25.7495C25.3125 25.8667 25.1953 25.9839 25.0195 25.9839H16.4062V10.9839H27.1875V16.6089Z"/>
</svg>
