<svg width="39" height="16" viewBox="0 0 39 16" fill="none" xmlns="http://www.w3.org/2000/svg">
<path d="M18.8577 7.82741V12.2243H17.4531V1.36596H21.1783C21.623 1.35674 22.0651 1.43506 22.4791 1.5964C22.8931 1.75774 23.2709 1.99891 23.5906 2.30598C23.9135 2.59442 24.1705 2.94815 24.3443 3.34341C24.5181 3.73867 24.6046 4.1663 24.5982 4.59755C24.6075 5.03111 24.5222 5.46153 24.3483 5.85931C24.1743 6.25709 23.9159 6.61282 23.5906 6.90211C22.9392 7.51898 22.1351 7.82712 21.1783 7.82654H18.8577V7.82741ZM18.8577 2.70278V6.49319H21.2132C21.4715 6.50079 21.7285 6.45478 21.9678 6.35811C22.2071 6.26144 22.4234 6.11623 22.603 5.93177C22.7816 5.75931 22.9236 5.55303 23.0206 5.32512C23.1175 5.09722 23.1675 4.85232 23.1675 4.60492C23.1675 4.35751 23.1175 4.11261 23.0206 3.88471C22.9236 3.6568 22.7816 3.45052 22.603 3.27806C22.4257 3.08971 22.2101 2.94095 21.9705 2.84162C21.7309 2.74229 21.4728 2.69467 21.2132 2.70192H18.8577V2.70278Z" fill="#5F6368"/>
<path d="M27.8348 4.55225C28.873 4.55225 29.6925 4.82775 30.2933 5.37877C30.8941 5.92979 31.1942 6.68527 31.1936 7.64521V12.224H29.8501V11.193H29.789C29.2074 12.0421 28.4339 12.4666 27.4684 12.4666C26.6443 12.4666 25.9548 12.224 25.3999 11.7388C25.1337 11.5162 24.9208 11.2373 24.7768 10.9225C24.6328 10.6078 24.5613 10.2651 24.5676 9.91945C24.5676 9.15069 24.8602 8.53931 25.4453 8.08533C26.0304 7.63135 26.8115 7.40378 27.7886 7.40263C28.6226 7.40263 29.3095 7.55424 29.8492 7.85748V7.53865C29.8508 7.30301 29.7996 7.06997 29.6993 6.85643C29.5989 6.64289 29.452 6.45421 29.2691 6.30406C28.8977 5.97127 28.4136 5.78968 27.9134 5.7955C27.1288 5.7955 26.5079 6.12414 26.0507 6.78144L24.8137 6.00776C25.4941 5.03742 26.5012 4.55225 27.8348 4.55225ZM26.0176 9.94978C26.0167 10.1273 26.0584 10.3025 26.1395 10.4607C26.2205 10.6189 26.3385 10.7557 26.4835 10.8595C26.7941 11.1021 27.1797 11.2307 27.5749 11.2234C28.1676 11.2224 28.7357 10.9881 29.1548 10.5718C29.6201 10.1369 29.8527 9.62662 29.8527 9.04095C29.4148 8.6944 28.8041 8.52112 28.0207 8.52112C27.4501 8.52112 26.9743 8.65772 26.5934 8.93092C26.2087 9.20816 26.0176 9.54518 26.0176 9.94978Z" fill="#5F6368"/>
<path d="M38.9058 4.79492L34.2157 15.499H32.7658L34.5062 11.7537L31.4222 4.79492H32.949L35.178 10.1318H35.2085L37.3765 4.79492H38.9058Z" fill="#5F6368"/>
<path d="M13.1818 6.87922C13.1823 6.45413 13.1461 6.02978 13.0736 5.61084H7.1499V8.0133H10.5427C10.4733 8.39701 10.3263 8.76279 10.1107 9.08858C9.89513 9.41437 9.61532 9.69343 9.28819 9.90894V11.4684H11.3131C12.4987 10.3828 13.1818 8.77745 13.1818 6.87922Z" fill="#4285F4"/>
<path d="M7.1499 12.9752C8.84501 12.9752 10.2723 12.4225 11.3131 11.4694L9.28819 9.90996C8.72461 10.2894 7.99876 10.506 7.1499 10.506C5.51151 10.506 4.12088 9.40919 3.6236 7.93115H1.53766V9.53828C2.06047 10.5714 2.86214 11.4399 3.85317 12.0468C4.8442 12.6537 5.98559 12.9751 7.1499 12.9752Z" fill="#34A853"/>
<path d="M3.62357 7.93139C3.36068 7.15689 3.36068 6.31816 3.62357 5.54365V3.93652H1.53763C1.09782 4.80563 0.868774 5.76484 0.868774 6.73752C0.868774 7.7102 1.09782 8.66941 1.53763 9.53852L3.62357 7.93139Z" fill="#FBBC04"/>
<path d="M7.1499 2.96861C8.04569 2.95407 8.91126 3.29019 9.55951 3.9043L11.3523 2.12389C10.2155 1.06351 8.70945 0.481344 7.1499 0.499433C5.98559 0.499485 4.8442 0.820906 3.85317 1.42781C2.86214 2.03471 2.06047 2.90322 1.53766 3.93635L3.6236 5.54348C4.12088 4.06544 5.51151 2.96861 7.1499 2.96861Z" fill="#EA4335"/>
</svg>
