<svg width="32" height="31" viewBox="0 0 32 31" fill="none" xmlns="http://www.w3.org/2000/svg">
<path d="M15.0586 9.22998L17.9883 10.0503C18.2227 10.1089 18.3398 10.2847 18.3398 10.519C18.3398 10.812 18.1055 11.0464 17.8711 11.0464H15.9375C15.7031 11.0464 15.5273 10.9878 15.3516 10.8706C15.0586 10.7534 14.707 10.812 14.5312 10.9878L13.4766 12.0425C13.1836 12.3354 13.1836 12.8628 13.5938 13.0972C14.1211 13.5073 14.7656 13.6831 15.4102 13.8003V14.7964C15.4102 15.3237 15.8789 15.7339 16.3477 15.7339H17.2852C17.8125 15.7339 18.2227 15.3237 18.2227 14.7964V13.8003C20.0391 13.5659 21.3867 11.9839 21.1523 10.1089C20.9766 8.76123 19.9219 7.70654 18.6328 7.29639L15.7031 6.47607C15.4688 6.41748 15.3516 6.18311 15.3516 6.00732C15.3516 5.71436 15.5859 5.47998 15.8203 5.47998H17.7539C17.9883 5.47998 18.1641 5.53857 18.3398 5.65576C18.6328 5.77295 18.9844 5.71436 19.1602 5.53857L20.2148 4.48389C20.5078 4.19092 20.5078 3.66357 20.0977 3.4292C19.5703 3.01904 18.9258 2.84326 18.2812 2.72607V1.67139C18.2812 1.20264 17.8125 0.733887 17.3438 0.733887H16.4062C15.8789 0.733887 15.4688 1.20264 15.4688 1.67139V2.72607C13.6523 2.96045 12.3047 4.54248 12.5391 6.41748C12.7148 7.76514 13.7695 8.81982 15.0586 9.22998ZM31.2305 20.0112C30.5859 19.3667 29.5898 19.4253 28.8867 20.0112L23.7891 24.2886C23.1445 24.8745 22.3828 25.1089 21.5625 25.1089H15C14.5312 25.1089 14.1211 24.6987 14.1211 24.1714C14.1211 23.7026 14.5312 23.2339 15 23.2339H19.3359C20.2148 23.2339 21.0352 22.6479 21.2109 21.7104C21.3867 20.5386 20.5078 19.4839 19.4531 19.4839H10.6055C9.08203 19.4839 7.67578 20.0698 6.50391 21.0659L3.92578 23.2339H0.878906C0.351562 23.2339 0 23.7026 0 24.1714V29.7964C0 30.3237 0.351562 30.7339 0.878906 30.7339H20.625C21.3867 30.7339 22.207 30.4995 22.793 29.9136L31.1719 22.8237C32.0508 22.1206 32.1094 20.7729 31.2305 20.0112Z"/>
</svg>
