<svg width="15" height="16" viewBox="0 0 15 16" fill="none" xmlns="http://www.w3.org/2000/svg">
<path d="M7.5 0.609375C3.48633 0.609375 0.234375 3.89062 0.234375 7.875C0.234375 11.8887 3.48633 15.1406 7.5 15.1406C11.4844 15.1406 14.7656 11.8887 14.7656 7.875C14.7656 3.89062 11.4844 0.609375 7.5 0.609375ZM7.5 13.7344C4.24805 13.7344 1.64062 11.127 1.64062 7.875C1.64062 4.65234 4.24805 2.01562 7.5 2.01562C10.7227 2.01562 13.3594 4.65234 13.3594 7.875C13.3594 11.127 10.7227 13.7344 7.5 13.7344ZM7.5 3.83203C6.79688 3.83203 6.26953 4.38867 6.26953 5.0625C6.26953 5.76562 6.79688 6.29297 7.5 6.29297C8.17383 6.29297 8.73047 5.76562 8.73047 5.0625C8.73047 4.38867 8.17383 3.83203 7.5 3.83203ZM9.14062 11.2734V10.5703C9.14062 10.3945 8.96484 10.2188 8.78906 10.2188H8.4375V7.28906C8.4375 7.11328 8.26172 6.9375 8.08594 6.9375H6.21094C6.00586 6.9375 5.85938 7.11328 5.85938 7.28906V7.99219C5.85938 8.19727 6.00586 8.34375 6.21094 8.34375H6.5625V10.2188H6.21094C6.00586 10.2188 5.85938 10.3945 5.85938 10.5703V11.2734C5.85938 11.4785 6.00586 11.625 6.21094 11.625H8.78906C8.96484 11.625 9.14062 11.4785 9.14062 11.2734Z" fill="#0066C0"/>
</svg>
