<svg width="18" height="18" viewBox="0 0 18 18" fill="none" xmlns="http://www.w3.org/2000/svg">
<path d="M11.8544 9.35714C11.8544 10.9308 10.5709 12.2143 8.99721 12.2143C7.42355 12.2143 6.14007 10.9308 6.14007 9.35714C6.14007 7.78348 7.42355 6.5 8.99721 6.5C10.5709 6.5 11.8544 7.78348 11.8544 9.35714ZM13.3945 9.35714C13.3945 6.92411 11.4302 4.95982 8.99721 4.95982C6.56417 4.95982 4.59989 6.92411 4.59989 9.35714C4.59989 11.7902 6.56417 13.7545 8.99721 13.7545C11.4302 13.7545 13.3945 11.7902 13.3945 9.35714ZM14.5999 4.78125C14.5999 4.21205 14.1423 3.75446 13.5731 3.75446C13.0039 3.75446 12.5463 4.21205 12.5463 4.78125C12.5463 5.35045 13.0039 5.80804 13.5731 5.80804C14.1423 5.80804 14.5999 5.35045 14.5999 4.78125ZM8.99721 2.32589C10.2472 2.32589 12.9258 2.22545 14.053 2.67187C14.4436 2.82812 14.7338 3.01786 15.0352 3.3192C15.3365 3.62054 15.5262 3.91071 15.6825 4.30134C16.1289 5.42857 16.0285 8.10714 16.0285 9.35714C16.0285 10.6071 16.1289 13.2857 15.6825 14.4129C15.5262 14.8036 15.3365 15.0938 15.0352 15.3951C14.7338 15.6964 14.4436 15.8862 14.053 16.0424C12.9258 16.4888 10.2472 16.3884 8.99721 16.3884C7.74721 16.3884 5.06864 16.4888 3.94141 16.0424C3.55078 15.8862 3.2606 15.6964 2.95926 15.3951C2.65792 15.0938 2.46819 14.8036 2.31194 14.4129C1.86551 13.2857 1.96596 10.6071 1.96596 9.35714C1.96596 8.10714 1.86551 5.42857 2.31194 4.30134C2.46819 3.91071 2.65792 3.62054 2.95926 3.3192C3.2606 3.01786 3.55078 2.82812 3.94141 2.67187C5.06864 2.22545 7.74721 2.32589 8.99721 2.32589ZM17.5686 9.35714C17.5686 8.17411 17.5798 7.00223 17.5128 5.8192C17.4459 4.44643 17.1334 3.22991 16.1289 2.22545C15.1244 1.22098 13.9079 0.908481 12.5352 0.841518C11.3521 0.774553 10.1802 0.785713 8.99721 0.785713C7.81417 0.785713 6.6423 0.774553 5.45926 0.841518C4.0865 0.908481 2.86998 1.22098 1.86551 2.22545C0.861049 3.22991 0.548549 4.44643 0.481585 5.8192C0.414621 7.00223 0.425781 8.17411 0.425781 9.35714C0.425781 10.5402 0.414621 11.7121 0.481585 12.8951C0.548549 14.2679 0.861049 15.4844 1.86551 16.4888C2.86998 17.4933 4.0865 17.8058 5.45926 17.8728C6.6423 17.9397 7.81417 17.9286 8.99721 17.9286C10.1802 17.9286 11.3521 17.9397 12.5352 17.8728C13.9079 17.8058 15.1244 17.4933 16.1289 16.4888C17.1334 15.4844 17.4459 14.2679 17.5128 12.8951C17.5798 11.7121 17.5686 10.5402 17.5686 9.35714Z" fill="white"/>
</svg>
