<svg width="40" height="40" viewBox="0 0 40 40" fill="none" xmlns="http://www.w3.org/2000/svg">
<path d="M0 4C0 1.79086 1.79086 0 4 0H36C38.2091 0 40 1.79086 40 4V36C40 38.2091 38.2091 40 36 40H4C1.79086 40 0 38.2091 0 36V4Z" fill="#FF4F36"/>
<path d="M24.8255 22.5469C23.9661 23.0938 22.7943 23.4453 21.3099 23.6016L22.1302 24.4219L25.099 27.3906C25.4375 27.7292 25.5286 28.1198 25.3724 28.5625C25.2161 29.0312 24.9297 29.3177 24.513 29.4219C24.1224 29.5521 23.7318 29.474 23.3411 29.1875C22.8203 28.6667 21.8177 27.6641 20.3333 26.1797L17.3646 29.1484C17.026 29.487 16.6224 29.5781 16.1536 29.4219C15.7109 29.2656 15.4245 28.9792 15.2943 28.5625C15.1901 28.1719 15.2943 27.7812 15.6068 27.3906C17.5859 25.3854 18.5755 24.3828 18.5755 24.3828L19.3958 23.6016C17.8594 23.4453 16.6745 23.0938 15.8411 22.5469C15.138 22.0781 14.6823 21.7005 14.474 21.4141C14.2656 21.1016 14.2786 20.7109 14.513 20.2422C14.6693 19.9036 14.9167 19.6953 15.2552 19.6172C15.6198 19.513 16.0755 19.6432 16.6224 20.0078C16.7266 20.0859 16.8828 20.1901 17.0911 20.3203C17.2995 20.4505 17.7161 20.6198 18.3411 20.8281C18.9922 21.0365 19.6563 21.1406 20.3333 21.1406C21.0104 21.1406 21.6615 21.0495 22.2865 20.8672C22.9115 20.6849 23.3542 20.4896 23.6146 20.2812L24.0443 20.0078C24.5911 19.6432 25.0339 19.513 25.3724 19.6172C25.737 19.6953 26.0104 19.9036 26.1927 20.2422C26.2708 20.5286 26.3229 20.75 26.349 20.9062C26.375 21.0625 26.3099 21.2448 26.1536 21.4531C25.9974 21.6615 25.8281 21.8438 25.6458 22C25.4635 22.1302 25.1901 22.3125 24.8255 22.5469ZM15.2552 14.5781C15.2552 13.1719 15.75 11.974 16.7396 10.9844C17.7292 9.99479 18.9271 9.5 20.3333 9.5C21.2448 9.5 22.0911 9.73438 22.8724 10.2031C23.6536 10.6458 24.2656 11.2578 24.7083 12.0391C25.1771 12.7943 25.4115 13.6406 25.4115 14.5781C25.4115 15.9583 24.9167 17.1432 23.9271 18.1328C22.9375 19.1224 21.7396 19.6172 20.3333 19.6172C18.9271 19.6172 17.7292 19.1224 16.7396 18.1328C15.75 17.1432 15.2552 15.9583 15.2552 14.5781ZM17.8333 14.5781C17.8333 15.2552 18.0807 15.8411 18.5755 16.3359C19.0703 16.8047 19.6563 17.0391 20.3333 17.0391C21.0104 17.0391 21.5964 16.8047 22.0911 16.3359C22.5859 15.8411 22.8333 15.2552 22.8333 14.5781C22.8333 13.875 22.5859 13.2891 22.0911 12.8203C21.5964 12.3255 21.0104 12.0781 20.3333 12.0781C19.8906 12.0781 19.474 12.1953 19.0833 12.4297C18.6927 12.638 18.3802 12.9375 18.1458 13.3281C17.9375 13.6927 17.8333 14.1094 17.8333 14.5781Z" fill="white"/>
</svg>
