<svg width="40" height="40" viewBox="0 0 40 40" fill="none" xmlns="http://www.w3.org/2000/svg">
<path d="M0 4C0 1.79086 1.79086 0 4 0H36C38.2091 0 40 1.79086 40 4V36C40 38.2091 38.2091 40 36 40H4C1.79086 40 0 38.2091 0 36V4Z" fill="#FF4F36"/>
<path d="M24.9818 20.75H22.0521V29.5H18.1458V20.75H14.9818V17.1172H18.1458V14.3828C18.1458 13.3411 18.3411 12.4557 18.7318 11.7266C19.1224 10.9974 19.6693 10.4505 20.3724 10.0859C21.1016 9.69531 21.9349 9.5 22.8724 9.5C23.2891 9.5 23.7318 9.52604 24.2005 9.57812C24.6693 9.60417 25.0339 9.64323 25.2943 9.69531L25.6849 9.73438V12.8203H24.1224C23.3932 12.8203 22.8594 13.0156 22.5208 13.4062C22.2083 13.7708 22.0521 14.2266 22.0521 14.7734V17.1172H25.5286L24.9818 20.75Z" fill="white"/>
</svg>
