<svg width="40" height="40" viewBox="0 0 40 40" fill="none" xmlns="http://www.w3.org/2000/svg">
<path d="M0 4C0 1.79086 1.79086 0 4 0H36C38.2091 0 40 1.79086 40 4V36C40 38.2091 38.2091 40 36 40H4C1.79086 40 0 38.2091 0 36V4Z" fill="#FF4F36"/>
<path d="M30.3724 14.1094C30.2943 14.5 29.9818 15.138 29.4349 16.0234C28.9141 16.9089 28.4323 17.6901 27.9896 18.3672C27.5469 19.0182 27.3125 19.3568 27.2865 19.3828C27.1302 19.6172 27.0521 19.7865 27.0521 19.8906C27.0521 19.9948 27.1302 20.1771 27.2865 20.4375C27.2865 20.4375 27.3646 20.5286 27.5208 20.7109C27.7031 20.8932 27.9115 21.1016 28.1458 21.3359C28.3802 21.5703 28.6406 21.8438 28.9271 22.1562C29.2135 22.4688 29.474 22.7812 29.7083 23.0938C29.9688 23.3802 30.1901 23.6797 30.3724 23.9922C30.5807 24.3047 30.724 24.5651 30.8021 24.7734C30.9844 25.4245 30.724 25.75 30.0208 25.75H27.7161C27.5339 25.75 27.3776 25.724 27.2474 25.6719C27.1172 25.6198 26.974 25.5286 26.8177 25.3984C26.6615 25.2682 26.5182 25.125 26.388 24.9688C26.2578 24.8125 26.0625 24.5911 25.8021 24.3047C25.5417 24.0182 25.2813 23.7448 25.0208 23.4844C23.9792 22.4948 23.2109 22 22.7161 22C22.4036 22 22.2214 22.0911 22.1693 22.2734C22.1172 22.4557 22.0911 22.9766 22.0911 23.8359C22.1172 24.2526 22.1302 24.5911 22.1302 24.8516C22.1302 25.1641 22.026 25.3984 21.8177 25.5547C21.6094 25.6849 21.1536 25.75 20.4505 25.75C19.2266 25.75 17.9896 25.3854 16.7396 24.6562C15.4896 23.9271 14.3958 22.8854 13.4583 21.5312C12.5729 20.3333 11.8307 19.1484 11.2318 17.9766C10.6589 16.7786 10.2813 15.8672 10.099 15.2422C9.91667 14.6172 9.82552 14.1745 9.82552 13.9141C9.82552 13.4714 10.0859 13.25 10.6068 13.25H12.9115C13.1979 13.25 13.4063 13.3151 13.5365 13.4453C13.6927 13.5755 13.8229 13.8099 13.9271 14.1484C14.474 15.737 15.138 17.1562 15.9193 18.4062C16.7266 19.6562 17.3385 20.2812 17.7552 20.2812C17.9115 20.2812 18.0156 20.2292 18.0677 20.125C18.1458 19.9948 18.1849 19.7604 18.1849 19.4219V16.0234C18.1589 15.6589 18.0938 15.3464 17.9896 15.0859C17.8854 14.8255 17.7813 14.6432 17.6771 14.5391C17.5729 14.4089 17.4688 14.2786 17.3646 14.1484C17.2865 14.0182 17.2474 13.901 17.2474 13.7969C17.2474 13.6927 17.2734 13.6016 17.3255 13.5234C17.3776 13.4453 17.4427 13.3802 17.5208 13.3281C17.625 13.276 17.7292 13.25 17.8333 13.25H21.4661C21.8828 13.25 22.0911 13.5365 22.0911 14.1094V18.6406C22.0911 19.0833 22.2083 19.3047 22.4427 19.3047C22.7031 19.3047 23.0677 19.0703 23.5365 18.6016C24.0313 18.0547 24.513 17.3906 24.9818 16.6094C25.4505 15.8281 25.8021 15.1771 26.0365 14.6562L26.388 13.9141C26.5703 13.4714 26.8958 13.25 27.3646 13.25H29.6693C30.2943 13.25 30.5286 13.5365 30.3724 14.1094Z" fill="white"/>
</svg>
