<svg width="40" height="40" viewBox="0 0 40 40" fill="none" xmlns="http://www.w3.org/2000/svg">
<path d="M0 4C0 1.79086 1.79086 0 4 0H36C38.2091 0 40 1.79086 40 4V36C40 38.2091 38.2091 40 36 40H4C1.79086 40 0 38.2091 0 36V4Z" fill="#FF4F36"/>
<path d="M22.9115 18.4062C22.9896 18.849 23.0286 19.2656 23.0286 19.6562C23.0286 21.8177 22.3646 23.5885 21.0365 24.9688C19.7083 26.3229 17.9766 27 15.8411 27C13.7578 27 11.987 26.2708 10.5286 24.8125C9.07032 23.3542 8.34115 21.5833 8.34115 19.5C8.34115 17.4167 9.07032 15.6458 10.5286 14.1875C11.987 12.7292 13.7578 12 15.8411 12C17.7943 12 19.4609 12.651 20.8411 13.9531L18.8099 15.9062C18.0286 15.151 17.0391 14.7734 15.8411 14.7734C15.0078 14.7734 14.2266 14.9818 13.4974 15.3984C12.7943 15.8151 12.2344 16.388 11.8177 17.1172C11.401 17.8464 11.1927 18.6406 11.1927 19.5C11.1927 20.8021 11.6484 21.9219 12.5599 22.8594C13.4714 23.7708 14.5651 24.2266 15.8411 24.2266C17.1432 24.2266 18.1458 23.875 18.849 23.1719C19.5521 22.4688 19.9688 21.7526 20.099 21.0234H15.8411V18.4062H22.9115ZM30.138 18.6797H32.3255V20.8672H30.138V23.0547H27.9505V20.8672H25.8021V18.6797H27.9505V16.4922H30.138V18.6797Z" fill="white"/>
</svg>
