<svg width="20" height="19" viewBox="0 0 20 19" fill="none" xmlns="http://www.w3.org/2000/svg">
<path d="M18.4375 6.29688L13.3047 5.55859L10.9844 0.882812C10.7734 0.460938 10.3867 0.25 9.96484 0.25C9.57812 0.25 9.19141 0.460938 8.98047 0.882812L6.66016 5.55859L1.52734 6.29688C0.613281 6.4375 0.226562 7.5625 0.894531 8.23047L4.62109 11.8516L3.74219 16.9492C3.60156 17.6875 4.19922 18.25 4.86719 18.25C5.04297 18.25 5.21875 18.2148 5.39453 18.1445L9.96484 15.7188L14.5703 18.1445C14.7461 18.2148 14.9219 18.25 15.0977 18.25C15.7656 18.25 16.3281 17.6875 16.2227 16.9492L15.3438 11.8516L19.0703 8.23047C19.7383 7.5625 19.3516 6.4375 18.4375 6.29688ZM14.1484 10.6211L13.5156 11.2539L13.6562 12.1328L14.3594 16.1055L10.7734 14.2422L9.96484 13.8203L10 2.67578L11.793 6.29688L12.1797 7.10547L13.0586 7.21094L17.0664 7.80859L14.1484 10.6211Z" fill="#AAAAAA"/>
</svg>
