<svg width="16" height="17" viewBox="0 0 16 17" fill="none" xmlns="http://www.w3.org/2000/svg">
<path d="M15.8047 4.875C15.8398 4.875 15.8398 4.875 15.8398 4.83984L13.8711 1.14844C13.6953 0.691406 13.2734 0.375 12.7812 0.375H9.125L10.25 4.875H15.8047ZM5.75 4.875L6.875 0.375H3.18359C2.69141 0.375 2.26953 0.691406 2.09375 1.14844L0.125 4.83984C0.125 4.875 0.125 4.875 0.160156 4.875H5.75ZM10.25 6V8.8125C10.25 9.12891 9.96875 9.375 9.6875 9.375H6.3125C5.99609 9.375 5.75 9.12891 5.75 8.8125V6H0.125V15C0.125 15.6328 0.617188 16.125 1.25 16.125H14.75C15.3477 16.125 15.875 15.6328 15.875 15V6H10.25Z" fill="#AAAAAA"/>
</svg>
