<svg width="16" height="19" viewBox="0 0 16 19" fill="none" xmlns="http://www.w3.org/2000/svg">
<path d="M14.1875 9.25H5.46875V5.62891C5.46875 4.25781 6.55859 3.09766 7.96484 3.0625C9.37109 3.0625 10.5312 4.22266 10.5312 5.59375V6.15625C10.5312 6.64844 10.8828 7 11.375 7H12.5C12.957 7 13.3438 6.64844 13.3438 6.15625V5.59375C13.3438 2.64062 10.918 0.25 7.96484 0.25C5.01172 0.285156 2.65625 2.71094 2.65625 5.66406V9.25H1.8125C0.863281 9.25 0.125 10.0234 0.125 10.9375V16.5625C0.125 17.5117 0.863281 18.25 1.8125 18.25H14.1875C15.1016 18.25 15.875 17.5117 15.875 16.5625V10.9375C15.875 10.0234 15.1016 9.25 14.1875 9.25ZM9.40625 14.5938C9.40625 15.4023 8.77344 16 8 16C7.19141 16 6.59375 15.4023 6.59375 14.5938V12.9062C6.59375 12.1328 7.19141 11.5 8 11.5C8.77344 11.5 9.40625 12.1328 9.40625 12.9062V14.5938Z" fill="#AAAAAA"/>
</svg>
