<svg width="18" height="18" viewBox="0 0 18 18" fill="none" xmlns="http://www.w3.org/2000/svg">
<path d="M13.0078 4.96094L11.5312 6.4375C11.0039 6.96484 11.3906 7.84375 12.1289 7.84375H16.875C17.332 7.84375 17.7188 7.49219 17.7188 7V2.28906C17.7188 1.55078 16.8047 1.16406 16.2773 1.69141L15.0117 2.95703C13.4297 1.48047 11.3203 0.53125 9 0.53125C4.71094 0.53125 1.16016 3.58984 0.421875 7.63281C0.351562 7.91406 0.5625 8.125 0.84375 8.125H2.84766C3.02344 8.125 3.19922 8.01953 3.26953 7.80859C3.90234 5.24219 6.25781 3.37891 8.96484 3.34375C10.4766 3.34375 11.918 3.94141 13.0078 4.96094ZM1.125 10.6562C0.632812 10.6562 0.28125 11.043 0.28125 11.5V16.2461C0.28125 16.9844 1.16016 17.3711 1.6875 16.8438L2.95312 15.5781C4.53516 17.0547 6.64453 17.9688 9 17.9688C13.2539 17.9688 16.8047 14.9453 17.543 10.9023C17.6133 10.6211 17.4023 10.4102 17.1211 10.4102H15.1172C14.9414 10.4102 14.7656 10.5156 14.6953 10.7266C14.0625 13.293 11.707 15.1562 9 15.1914C7.48828 15.1914 6.04688 14.5938 4.95703 13.5742L6.43359 12.0977C6.96094 11.5703 6.57422 10.6562 5.83594 10.6562H1.125Z" fill="#AAAAAA"/>
</svg>
