<svg width="18" height="18" viewBox="0 0 18 18" fill="none" xmlns="http://www.w3.org/2000/svg">
<path d="M17.1211 11.3594L15.6094 10.5156C15.7852 9.67188 15.7852 8.86328 15.6094 8.01953L17.1211 7.17578C17.2969 7.07031 17.3672 6.85938 17.2969 6.68359C16.9102 5.41797 16.2422 4.29297 15.3984 3.34375C15.2578 3.20312 15.0469 3.16797 14.8711 3.27344L13.3594 4.11719C12.7266 3.58984 12.0234 3.16797 11.25 2.88672V1.16406C11.25 0.988281 11.1094 0.8125 10.8984 0.777344C9.59766 0.460938 8.29688 0.496094 7.06641 0.777344C6.85547 0.8125 6.75 0.988281 6.75 1.16406V2.88672C5.94141 3.16797 5.23828 3.58984 4.60547 4.15234L3.09375 3.27344C2.91797 3.16797 2.70703 3.20312 2.56641 3.34375C1.72266 4.29297 1.05469 5.41797 0.667969 6.68359C0.597656 6.85938 0.667969 7.07031 0.84375 7.17578L2.35547 8.01953C2.21484 8.86328 2.21484 9.67188 2.35547 10.5156L0.84375 11.3594C0.667969 11.4648 0.597656 11.6758 0.667969 11.8516C1.05469 13.1172 1.72266 14.2422 2.56641 15.1914C2.70703 15.332 2.91797 15.3672 3.09375 15.2617L4.60547 14.418C5.23828 14.9453 5.94141 15.3672 6.75 15.6484V17.3711C6.75 17.5469 6.89062 17.7227 7.06641 17.793C8.36719 18.0742 9.66797 18.0391 10.8984 17.793C11.1094 17.7227 11.25 17.5469 11.25 17.3711V15.6484C12.0234 15.3672 12.7266 14.9453 13.3594 14.418L14.8711 15.2617C15.0469 15.3672 15.2578 15.332 15.3984 15.1914C16.2773 14.2422 16.9102 13.1172 17.332 11.8516C17.3672 11.6758 17.2969 11.4648 17.1211 11.3594ZM9 12.0625C7.41797 12.0625 6.1875 10.832 6.1875 9.25C6.1875 7.70312 7.41797 6.4375 9 6.4375C10.5469 6.4375 11.8125 7.70312 11.8125 9.25C11.8125 10.832 10.5469 12.0625 9 12.0625Z" fill="#AAAAAA"/>
</svg>
