<svg width="18" height="19" viewBox="0 0 18 19" fill="none" xmlns="http://www.w3.org/2000/svg">
<path d="M9 10.375C11.7773 10.375 14.0625 8.125 14.0625 5.3125C14.0625 2.53516 11.7773 0.25 9 0.25C6.1875 0.25 3.9375 2.53516 3.9375 5.3125C3.9375 8.125 6.1875 10.375 9 10.375ZM13.5 11.5H11.5312C10.7578 11.8867 9.91406 12.0625 9 12.0625C8.08594 12.0625 7.20703 11.8867 6.43359 11.5H4.5C2.00391 11.5 0 13.5391 0 16V16.5625C0 17.5117 0.738281 18.25 1.6875 18.25H16.3125C17.2266 18.25 18 17.5117 18 16.5625V16C18 13.5391 15.9609 11.5 13.5 11.5Z" fill="#AAAAAA"/>
</svg>
