<svg width="14" height="19" viewBox="0 0 14 19" fill="none" xmlns="http://www.w3.org/2000/svg">
<path d="M7 0.25C3.27344 0.25 0.25 3.30859 0.25 7C0.25 9.70703 1.12891 10.5156 6.29688 17.9336C6.64844 18.3906 7.31641 18.3906 7.66797 17.9336C12.8359 10.5156 13.75 9.70703 13.75 7C13.75 3.30859 10.6914 0.25 7 0.25ZM11.0078 6.01562L6.40234 10.5859C6.22656 10.7617 5.98047 10.7617 5.83984 10.5859L3.16797 7.91406C3.02734 7.77344 3.02734 7.52734 3.16797 7.35156L4.08203 6.47266C4.25781 6.29688 4.50391 6.29688 4.64453 6.47266L6.12109 7.94922L9.53125 4.57422C9.70703 4.39844 9.95312 4.39844 10.0938 4.57422L11.0078 5.48828C11.1484 5.62891 11.1484 5.875 11.0078 6.01562Z" fill="#AAAAAA"/>
</svg>
