<svg width="24" height="17" viewBox="0 0 24 17" fill="none" xmlns="http://www.w3.org/2000/svg">
<path d="M22.582 1.18359C21.2109 0.621094 19.8398 0.375 18.4688 0.375C14.1445 0.375 9.82031 2.58984 5.49609 2.58984C4.40625 2.58984 3.31641 2.44922 2.22656 2.09766C2.12109 2.0625 1.98047 2.02734 1.875 2.02734C1.27734 2.02734 0.75 2.51953 0.75 3.15234V14.332C0.75 14.7539 0.996094 15.1758 1.38281 15.3516C2.75391 15.9141 4.125 16.125 5.49609 16.125C9.82031 16.125 14.1445 13.9453 18.4688 13.9453C19.5586 13.9453 20.6484 14.0859 21.7383 14.4375C21.8438 14.4727 21.9844 14.4727 22.0898 14.4727C22.6875 14.4727 23.25 14.0156 23.25 13.3828V2.20312C23.25 1.78125 22.9688 1.35938 22.582 1.18359ZM12 11.625C10.418 11.625 9.1875 10.1484 9.1875 8.25C9.1875 6.38672 10.418 4.875 12 4.875C13.5469 4.875 14.8125 6.38672 14.8125 8.25C14.8125 10.1484 13.5469 11.625 12 11.625Z" fill="#AAAAAA"/>
</svg>
