<svg width="19" height="19" viewBox="0 0 19 19" fill="none" xmlns="http://www.w3.org/2000/svg">
<path d="M13.375 15.2266C13.9023 14.6992 13.5156 13.7852 12.7773 13.7852H10.9844V10.2344H14.5V12.0625C14.5 12.8008 15.4141 13.1875 15.9414 12.6602L18.7188 9.88281C19.0703 9.53125 19.0703 9.00391 18.7188 8.6875L15.9414 5.875C15.4141 5.34766 14.5 5.73438 14.5 6.47266V8.26562H10.9492V4.75H12.7773C13.5156 4.75 13.9023 3.83594 13.375 3.30859L10.5625 0.53125C10.2461 0.179688 9.71875 0.179688 9.36719 0.53125L6.58984 3.30859C6.0625 3.83594 6.44922 4.75 7.1875 4.75H9.01562V8.26562H5.46484V6.47266C5.46484 5.73438 4.55078 5.34766 4.02344 5.875L1.24609 8.65234C0.894531 9.00391 0.894531 9.53125 1.24609 9.84766L4.02344 12.6602C4.55078 13.1875 5.46484 12.8008 5.46484 12.0625V10.2344H9.01562V13.7852H7.1875C6.44922 13.7852 6.0625 14.6992 6.58984 15.2266L9.40234 18.0039C9.71875 18.3555 10.2461 18.3555 10.5977 18.0039L13.375 15.2266Z" fill="#AAAAAA"/>
</svg>
