<svg width="18" height="19" viewBox="0 0 18 19" fill="none" xmlns="http://www.w3.org/2000/svg">
<path d="M8.29688 17.8984C8.61328 18.3906 9.35156 18.3906 9.66797 17.8984C14.8008 10.5156 15.75 9.74219 15.75 7C15.75 3.27344 12.7266 0.25 9 0.25C5.23828 0.25 2.25 3.27344 2.25 7C2.25 9.74219 3.16406 10.5156 8.29688 17.8984ZM9 9.8125C7.41797 9.8125 6.1875 8.58203 6.1875 7C6.1875 5.45312 7.41797 4.1875 9 4.1875C10.5469 4.1875 11.8125 5.45312 11.8125 7C11.8125 8.58203 10.5469 9.8125 9 9.8125Z" fill="#AAAAAA"/>
</svg>
