<svg width="20" height="25" viewBox="0 0 20 25" fill="none" xmlns="http://www.w3.org/2000/svg">
<g filter="url(#filter0_d)">
<path d="M10 0C6.6875 0 4 2.71875 4 6C4 8.40625 4.78125 9.125 9.375 15.7188C9.6875 16.125 10.2812 16.125 10.5938 15.7188C15.1875 9.125 16 8.40625 16 6C16 2.71875 13.2812 0 10 0ZM13.5625 5.125L9.46875 9.1875C9.3125 9.34375 9.09375 9.34375 8.96875 9.1875L6.59375 6.8125C6.46875 6.6875 6.46875 6.46875 6.59375 6.3125L7.40625 5.53125C7.5625 5.375 7.78125 5.375 7.90625 5.53125L9.21875 6.84375L12.25 3.84375C12.4062 3.6875 12.625 3.6875 12.75 3.84375L13.5625 4.65625C13.6875 4.78125 13.6875 5 13.5625 5.125Z" fill="#999999"/>
</g>
<defs>
<filter id="filter0_d" x="0" y="0" width="20" height="24.0234" filterUnits="userSpaceOnUse" color-interpolation-filters="sRGB">
<feFlood flood-opacity="0" result="BackgroundImageFix"/>
<feColorMatrix in="SourceAlpha" type="matrix" values="0 0 0 0 0 0 0 0 0 0 0 0 0 0 0 0 0 0 127 0"/>
<feOffset dy="4"/>
<feGaussianBlur stdDeviation="2"/>
<feColorMatrix type="matrix" values="0 0 0 0 0 0 0 0 0 0 0 0 0 0 0 0 0 0 0.25 0"/>
<feBlend mode="normal" in2="BackgroundImageFix" result="effect1_dropShadow"/>
<feBlend mode="normal" in="SourceGraphic" in2="effect1_dropShadow" result="shape"/>
</filter>
</defs>
</svg>
