<svg width="12" height="17" viewBox="0 0 12 17" fill="none" xmlns="http://www.w3.org/2000/svg">
<path d="M6 0.5C2.6875 0.5 0 3.21875 0 6.5C0 8.90625 0.78125 9.625 5.375 16.2188C5.6875 16.625 6.28125 16.625 6.59375 16.2188C11.1875 9.625 12 8.90625 12 6.5C12 3.21875 9.28125 0.5 6 0.5ZM9.5625 5.625L5.46875 9.6875C5.3125 9.84375 5.09375 9.84375 4.96875 9.6875L2.59375 7.3125C2.46875 7.1875 2.46875 6.96875 2.59375 6.8125L3.40625 6.03125C3.5625 5.875 3.78125 5.875 3.90625 6.03125L5.21875 7.34375L8.25 4.34375C8.40625 4.1875 8.625 4.1875 8.75 4.34375L9.5625 5.15625C9.6875 5.28125 9.6875 5.5 9.5625 5.625Z" fill="#999999"/>
</svg>
