<svg width="12" height="17" viewBox="0 0 12 17" fill="none" xmlns="http://www.w3.org/2000/svg">
<path d="M6 -0.000976562C2.6875 -0.000976562 0 2.71777 0 5.99902C0 8.40527 0.78125 9.12402 5.375 15.7178C5.6875 16.124 6.28125 16.124 6.59375 15.7178C11.1875 9.12402 12 8.40527 12 5.99902C12 2.71777 9.28125 -0.000976562 6 -0.000976562ZM9.5625 5.12402L5.46875 9.18652C5.3125 9.34277 5.09375 9.34277 4.96875 9.18652L2.59375 6.81152C2.46875 6.68652 2.46875 6.46777 2.59375 6.31152L3.40625 5.53027C3.5625 5.37402 3.78125 5.37402 3.90625 5.53027L5.21875 6.84277L8.25 3.84277C8.40625 3.68652 8.625 3.68652 8.75 3.84277L9.5625 4.65527C9.6875 4.78027 9.6875 4.99902 9.5625 5.12402Z" fill="#6DB624"/>
</svg>
