<svg width="165" height="40" viewBox="0 0 165 40" fill="none" xmlns="http://www.w3.org/2000/svg">
<path d="M97.6565 4.77353C96.1794 4.87594 94.6394 4.9232 92.903 4.9232C90.9622 4.9232 89.0137 4.87594 86.6173 4.77353C86.0044 5.0256 86.0044 6.10477 86.413 6.51438L88.0472 6.87672C89.2808 7.18393 89.6894 7.38874 89.6894 7.74321C89.6055 8.38098 89.4336 9.00397 89.1787 9.59433C88.558 11.3352 86.358 17.0776 85.0851 20.3151L83.1365 25.1359C82.5237 26.6719 81.7066 28.4128 81.298 29.2871C80.9366 28.4128 80.3237 26.8767 79.6087 24.9783L75.0987 13.4384C74.2942 11.6074 73.6168 9.72294 73.0716 7.79835C73.0716 7.3336 73.433 7.01063 74.3523 6.82158L75.9237 6.51438C76.2301 6.04963 76.2773 5.08074 75.8687 4.77353C72.7258 4.87594 70.5494 4.9232 68.1923 4.9232C65.5366 4.9232 63.8473 4.8208 61.2387 4.77353C60.9926 4.9848 60.8349 5.28128 60.797 5.60391C60.7592 5.92653 60.8439 6.25161 61.0344 6.51438L63.0773 7.02639C64.7194 7.436 64.9709 7.5384 66.9194 12.4616L75.2008 33.336C75.9237 35.0847 76.7723 37.8023 77.3537 39.1887C77.7537 39.4811 78.2423 39.6258 78.7365 39.5983C79.3595 39.6247 79.9781 39.4832 80.528 39.1887C81.6987 36.3135 83.0344 32.2647 85.643 26.0575L89.3751 17.18C91.1194 13.0288 92.3923 10.1536 93.5237 8.46002C94.1837 7.38874 95.0951 7.02639 96.4858 6.77432L97.8215 6.51438C98.1201 6.20717 98.073 4.97834 97.6565 4.77353ZM109.065 37.1327L108.091 37.0225C106.409 36.8728 106.197 36.408 106.197 32.8161V23.3635C106.197 21.0555 106.252 18.8027 106.354 17.2588C106.254 17.1087 106.117 16.9875 105.956 16.9073C105.794 16.8271 105.615 16.7908 105.435 16.8019C103.019 18.0513 100.481 19.0465 97.8608 19.7716C97.6809 19.9945 97.5828 20.2725 97.5828 20.5593C97.5828 20.846 97.6809 21.1241 97.8608 21.347L98.5758 21.8039C99.5501 22.4262 99.5501 23.0406 99.5501 25.0886V32.8318C99.5501 36.4238 99.3458 36.8885 97.6565 37.0382L96.6822 37.1406C96.4787 37.3984 96.3726 37.72 96.3827 38.0487C96.3927 38.3773 96.5183 38.6918 96.7372 38.9366C98.4265 38.8342 100.572 38.7869 102.874 38.7869C105.176 38.7869 107.227 38.8342 109.018 38.9366C109.236 38.6896 109.361 38.3732 109.369 38.0433C109.378 37.7133 109.27 37.3909 109.065 37.1327ZM103.031 6.00236C102.531 5.9854 102.033 6.06975 101.566 6.25037C101.1 6.431 100.674 6.70417 100.316 7.05353C99.9568 7.4029 99.6721 7.82126 99.4785 8.28356C99.2848 8.74586 99.1863 9.24259 99.1887 9.74399C99.1532 10.2273 99.221 10.7127 99.3878 11.1676C99.5545 11.6225 99.8162 12.0365 100.155 12.3818C100.495 12.7271 100.904 12.9958 101.355 13.1698C101.806 13.3439 102.289 13.4193 102.772 13.3911C103.274 13.4184 103.777 13.3412 104.248 13.1643C104.719 12.9874 105.148 12.7147 105.509 12.3632C105.87 12.0118 106.155 11.5892 106.345 11.1222C106.535 10.6551 106.626 10.1537 106.614 9.64947C106.636 9.16938 106.558 8.68994 106.387 8.2412C106.215 7.79246 105.953 7.38409 105.616 7.04169C105.28 6.69928 104.877 6.43023 104.432 6.25138C103.987 6.07254 103.51 5.98776 103.031 6.00236ZM126.201 35.1871C125.573 35.6428 124.83 35.9154 124.056 35.9748C120.474 35.9748 120.474 32.8239 120.474 29.9173V22.2056C120.474 21.0792 120.529 21.0319 121.189 21.0319H125.793C126.304 20.7247 126.461 19.7952 126.461 19.2359C126.474 19.0524 126.444 18.8684 126.373 18.6987C126.302 18.529 126.192 18.3785 126.052 18.2592H121.495C120.576 18.2592 120.529 18.2119 120.529 17.2351V13.3911C120.322 13.1968 120.061 13.069 119.781 13.0241C119.501 12.9792 119.214 13.0192 118.957 13.139C117.936 14.6831 116.654 16.0371 115.17 17.1406C113.855 18.0805 112.43 18.8556 110.927 19.4486C110.835 19.569 110.77 19.7077 110.735 19.8554C110.7 20.0032 110.697 20.1566 110.726 20.3055C110.755 20.4545 110.816 20.5956 110.903 20.7194C110.99 20.8433 111.103 20.9471 111.234 21.024H112.805C113.724 21.024 113.779 21.1264 113.779 22.1977V33.651C113.779 37.0303 115.257 39.4959 119.507 39.4959C122.259 39.5167 124.908 38.4465 126.877 36.5183C126.943 36.2521 126.911 35.971 126.786 35.7266C126.662 35.4822 126.455 35.2907 126.201 35.1871ZM149.639 35.5494C149.059 35.9304 148.384 36.143 147.691 36.1638C146.669 36.1638 145.184 35.2343 145.389 31.7527L145.75 24.9783C146.001 19.6928 143.495 17.5423 139.197 17.5423C136.068 17.6384 133.054 18.7434 130.601 20.6932C129.376 21.67 128.15 23.3084 128.15 24.6317C128.15 25.3486 128.456 25.9078 129.321 25.9078C130.622 25.8006 131.882 25.3993 133.006 24.7341C133.26 24.538 133.469 24.2896 133.62 24.0057C133.77 23.7217 133.858 23.4087 133.878 23.0878C134.239 20.8822 135.308 20.1654 136.541 20.1654C138.741 20.1654 139.504 22.631 139.504 24.5766C139.499 25.1582 139.465 25.7392 139.401 26.3174C139.354 26.7349 139.095 27.1052 138.176 27.3494C136.746 27.759 135.308 28.1371 133.367 28.783C129.643 29.933 128.071 31.5085 128.071 34.1079C128.071 37.6999 130.829 39.4959 133.799 39.4959C135.383 39.4191 136.903 38.846 138.144 37.8574C138.663 37.4951 138.969 37.2903 139.221 37.2903C139.525 37.3224 139.806 37.4687 140.006 37.6999C140.568 38.2697 141.238 38.7219 141.976 39.0302C142.713 39.3385 143.505 39.4968 144.304 39.4959C145.43 39.4581 146.536 39.193 147.556 38.7166C148.577 38.2402 149.491 37.5621 150.244 36.7231C150.31 36.487 150.285 36.2347 150.172 36.0169C150.06 35.7991 149.87 35.632 149.639 35.5494ZM139.252 30.4136L139.15 33.651C139.095 35.2265 138.789 36.1638 137.201 36.1638C135.771 36.1638 134.593 34.7223 134.593 33.0839C134.593 30.6735 136.589 29.7991 138.891 29.4919C139.252 29.4447 139.299 29.5943 139.252 30.4136ZM59.3452 35.9275C58.6859 36.1663 57.9946 36.3044 57.2944 36.3371C56.0687 36.3371 55.9116 34.998 55.9116 31.9732V22.6703C55.9116 20.772 56.0137 19.0784 56.0687 18.1568C56.0137 17.8023 55.7623 17.5423 55.558 17.5423C55.3537 17.5423 53.7116 18.1095 51.9202 18.3301C50.2859 18.5349 48.4473 18.7397 46.6009 18.8421C45.988 19.0469 45.9409 20.2836 46.3495 20.638L47.0645 20.7404C48.903 21.0004 49.2645 21.4573 49.2645 23.5132V33.202C49.2787 33.4891 49.236 33.7761 49.1389 34.0466C49.0418 34.317 48.8922 34.5654 48.6987 34.7775C47.9574 35.4091 47.0159 35.7554 46.043 35.7542C42.7666 35.7542 42.4052 33.5959 42.4052 31.1304V22.6703C42.4052 20.8271 42.4602 19.4407 42.5623 18.1568C42.5073 17.9047 42.2559 17.5423 41.9495 17.5423C41.643 17.5423 40.2602 18.1568 38.7202 18.4167C37.0881 18.6897 35.4397 18.8528 33.7859 18.9051C33.546 19.1322 33.3939 19.437 33.3565 19.7657C33.3192 20.0943 33.3989 20.4256 33.5816 20.7011L34.2416 20.9059C35.4752 21.2682 35.813 21.5203 35.813 24.2379V32.9263C35.813 37.2903 37.5495 39.4959 41.8002 39.4959C44.943 39.4959 46.758 38.3143 48.7537 37.0303C48.8248 37.025 48.8962 37.0341 48.9636 37.0573C49.031 37.0804 49.0931 37.117 49.146 37.1649C49.1989 37.2127 49.2415 37.2709 49.2713 37.3358C49.3012 37.4006 49.3175 37.4709 49.3195 37.5423C49.2913 38.1609 49.2205 38.7768 49.1073 39.3856C49.127 39.5417 49.1979 39.6867 49.3088 39.798C49.4198 39.9092 49.5645 39.9803 49.7202 40C52.7697 38.9771 55.9393 38.3574 59.1487 38.1568C59.8559 37.9047 59.8009 36.0614 59.3452 35.959V35.9275ZM33.6602 37.2903C32.401 37.1667 31.2077 36.6673 30.2345 35.8566C27.7752 33.7534 25.6773 29.9015 22.3066 23.0327C22.0474 22.4655 22.0474 22.1583 22.5581 21.8984C24.9152 20.7247 27.9795 18.7475 27.9795 14.2103C28.0069 12.6502 27.6001 11.1133 26.8049 9.77205C26.0097 8.43077 24.8574 7.33816 23.4773 6.61678C21.5366 5.43521 17.8045 4.77353 13.4517 4.77353C8.58809 4.77353 4.60452 4.97834 0.762382 5.23041C0.625261 5.33291 0.51221 5.46429 0.431182 5.61531C0.350153 5.76632 0.303116 5.93331 0.29338 6.10451C0.283643 6.27571 0.311443 6.44697 0.374825 6.60624C0.438206 6.76551 0.535629 6.90892 0.66024 7.02639L2.04309 7.23119C4.18809 7.5384 4.29809 8.10555 4.29809 13.2336V31.3903C4.29809 36.1166 3.98381 36.4711 1.68167 36.9043L0.306669 37.1564C0.107887 37.4133 0 37.7292 0 38.0544C0 38.3795 0.107887 38.6954 0.306669 38.9523C2.96238 38.8499 5.21738 38.8027 7.77094 38.8027C10.3245 38.8027 12.5795 38.8499 15.2981 38.9523C15.4715 38.6851 15.5639 38.3732 15.5639 38.0544C15.5639 37.7355 15.4715 37.4236 15.2981 37.1564L13.9152 36.9043C11.6131 36.4947 11.3067 36.1166 11.3067 31.3903V25.0886C11.3067 24.0646 11.4088 23.9622 13.2002 23.9622C13.7883 23.9086 14.3771 24.0572 14.8698 24.3836C15.3624 24.71 15.7296 25.1948 15.9109 25.7582C17.0516 28.4991 18.3855 31.1552 19.9024 33.7062C22.1495 37.3927 25.1431 39.0863 29.8573 39.0863C31.2108 39.1478 32.5651 38.9827 33.8645 38.5979C34.0022 38.3946 34.0577 38.1464 34.0197 37.9037C33.9818 37.6609 33.8533 37.4416 33.6602 37.2903ZM18.3624 20.2599C17.8578 20.7691 17.2481 21.1613 16.5762 21.409C15.9043 21.6566 15.1864 21.7538 14.4731 21.6936C11.4559 21.6936 11.3302 21.5439 11.3302 19.7479V9.74399C11.3302 7.28633 11.4324 7.12879 13.5302 7.12879C17.5138 7.12879 20.2324 10.1063 20.2324 14.7223C20.2088 17.7471 19.2345 19.3856 18.3624 20.2599ZM157.072 0C155.506 0.00155761 153.976 0.468562 152.674 1.34198C151.373 2.2154 150.359 3.45602 149.761 4.90703C149.162 6.35804 149.007 7.95428 149.313 9.494C149.62 11.0337 150.375 12.4478 151.483 13.5574C152.59 14.6671 154.002 15.4225 155.538 15.7283C157.074 16.034 158.666 15.8763 160.113 15.2751C161.559 14.6739 162.796 13.6562 163.666 12.3506C164.536 11.045 165 9.51021 165 7.94013C164.998 5.83356 164.162 3.81397 162.675 2.32513C161.189 0.836295 159.173 -1.03458e-06 157.072 0V0ZM157.072 15.0926C155.661 15.091 154.283 14.6702 153.111 13.8833C151.939 13.0965 151.025 11.9789 150.487 10.6718C149.948 9.36472 149.808 7.92686 150.084 6.53994C150.36 5.15303 151.04 3.87933 152.038 2.87983C153.036 1.88033 154.307 1.19991 155.691 0.924573C157.075 0.649233 158.509 0.791334 159.812 1.33291C161.115 1.8745 162.229 2.79124 163.012 3.96728C163.796 5.14332 164.214 6.52585 164.214 7.94013C164.212 9.8378 163.459 11.657 162.12 12.9981C160.78 14.3393 158.965 15.0926 157.072 15.0926ZM160.074 10.6892C159.895 10.476 159.749 10.237 159.641 9.98031L159.311 9.27137C159.195 9.01549 159.045 8.77691 158.864 8.56243C158.681 8.37249 158.462 8.22232 158.219 8.12131V8.06617C158.501 7.95147 158.766 7.79768 159.005 7.6093C159.21 7.44601 159.377 7.23879 159.492 7.00276C159.616 6.72864 159.676 6.42933 159.665 6.1284C159.671 5.89577 159.636 5.66394 159.563 5.44309C159.503 5.25525 159.407 5.08118 159.28 4.93108C159.149 4.78075 158.992 4.65534 158.816 4.56085C158.583 4.43554 158.331 4.34783 158.07 4.30091C157.725 4.23929 157.375 4.21028 157.025 4.21426H154V4.56085C154.107 4.5837 154.21 4.62079 154.306 4.67113C154.378 4.70989 154.436 4.77058 154.471 4.84443C154.514 4.92743 154.538 5.01886 154.542 5.11225C154.542 5.22253 154.542 5.36432 154.542 5.52974V10.0197C154.542 10.1851 154.542 10.319 154.542 10.4293C154.53 10.5238 154.506 10.6163 154.471 10.705C154.433 10.7748 154.376 10.8322 154.306 10.8704C154.207 10.9147 154.105 10.9516 154 10.9807V11.3273H156.726V10.9807C156.587 10.9552 156.456 10.8987 156.341 10.8153C156.269 10.7481 156.22 10.66 156.2 10.5632C156.183 10.3824 156.183 10.2005 156.2 10.0197V8.34187H156.499C156.643 8.33204 156.788 8.35354 156.923 8.40488C157.03 8.4573 157.122 8.53587 157.19 8.63332C157.312 8.80943 157.417 8.99668 157.504 9.1926L157.929 10.0827C158.117 10.5182 158.346 10.9349 158.612 11.3273H160.608V10.9807C160.402 10.9478 160.213 10.8449 160.074 10.6892ZM158.046 6.83734C158.007 7.00632 157.932 7.16485 157.826 7.30209C157.712 7.44289 157.563 7.55147 157.394 7.61717C157.176 7.69977 156.944 7.73729 156.711 7.72745H156.2V4.83655C156.286 4.83655 156.483 4.83655 156.781 4.83655C156.962 4.82256 157.144 4.84689 157.314 4.90797C157.485 4.96905 157.641 5.0655 157.771 5.19102C158.012 5.49051 158.13 5.87078 158.101 6.25443C158.103 6.45012 158.085 6.64548 158.046 6.83734Z" fill="white"/>
</svg>
