<svg width="83" height="20" viewBox="0 0 83 20" fill="none" xmlns="http://www.w3.org/2000/svg">
<path d="M49.1242 2.38677C48.3811 2.43797 47.6065 2.4616 46.733 2.4616C45.7568 2.4616 44.7766 2.43797 43.5711 2.38677C43.2628 2.5128 43.2628 3.05238 43.4683 3.25719L44.2904 3.43836C44.911 3.59197 45.1165 3.69437 45.1165 3.8716C45.0743 4.19049 44.9878 4.50198 44.8596 4.79716C44.5473 5.66759 43.4407 8.5388 42.8004 10.1575L41.8202 12.5679C41.5119 13.336 41.1009 14.2064 40.8953 14.6436C40.7135 14.2064 40.4053 13.4384 40.0456 12.4892L37.7769 6.71918C37.3722 5.80372 37.0315 4.86147 36.7572 3.89917C36.7572 3.6668 36.939 3.50532 37.4014 3.41079L38.1919 3.25719C38.3461 3.02481 38.3698 2.54037 38.1643 2.38677C36.5833 2.43797 35.4885 2.4616 34.3028 2.4616C32.9669 2.4616 32.1171 2.4104 30.8049 2.38677C30.6811 2.4924 30.6018 2.64064 30.5827 2.80195C30.5637 2.96326 30.6063 3.1258 30.7022 3.25719L31.7298 3.51319C32.5558 3.718 32.6823 3.7692 33.6625 6.2308L37.8283 16.668C38.1919 17.5423 38.6188 18.9011 38.9113 19.5943C39.1125 19.7405 39.3582 19.8129 39.6069 19.7991C39.9202 19.8123 40.2314 19.7416 40.508 19.5943C41.0969 18.1568 41.7688 16.1323 43.081 13.0288L44.9584 8.59C45.8358 6.51438 46.4761 5.0768 47.0452 4.23001C47.3772 3.69437 47.8357 3.51319 48.5353 3.38716L49.2072 3.25719C49.3574 3.10358 49.3337 2.48917 49.1242 2.38677ZM54.863 18.5664L54.373 18.5112C53.5271 18.4364 53.4204 18.204 53.4204 16.408V11.6818C53.4204 10.5278 53.4481 9.40134 53.4995 8.62938C53.4492 8.55433 53.38 8.49374 53.2989 8.45365C53.2177 8.41357 53.1274 8.39539 53.037 8.40095C51.8219 9.02565 50.545 9.52325 49.227 9.88578C49.1365 9.99724 49.0871 10.1363 49.0871 10.2796C49.0871 10.423 49.1365 10.562 49.227 10.6735L49.5866 10.9019C50.0767 11.2131 50.0767 11.5203 50.0767 12.5443V16.4159C50.0767 18.2119 49.974 18.4443 49.1242 18.5191L48.6341 18.5703C48.5317 18.6992 48.4783 18.86 48.4834 19.0243C48.4885 19.1886 48.5516 19.3459 48.6618 19.4683C49.5115 19.4171 50.5905 19.3935 51.7486 19.3935C52.9066 19.3935 53.9382 19.4171 54.8393 19.4683C54.9492 19.3448 55.0118 19.1866 55.0161 19.0216C55.0205 18.8567 54.9663 18.6954 54.863 18.5664ZM51.8276 3.00118C51.5762 2.9927 51.3256 3.03488 51.0909 3.12519C50.8562 3.2155 50.6422 3.35209 50.4618 3.52677C50.2813 3.70145 50.1381 3.91063 50.0407 4.14178C49.9433 4.37293 49.8937 4.6213 49.8949 4.872C49.877 5.11367 49.9112 5.35635 49.9951 5.58381C50.0789 5.81127 50.2106 6.01825 50.3812 6.1909C50.5519 6.36355 50.7575 6.49788 50.9845 6.58491C51.2114 6.67195 51.4544 6.70967 51.6972 6.69555C51.9499 6.70922 52.2027 6.67061 52.4397 6.58216C52.6768 6.49371 52.8928 6.35733 53.0744 6.1816C53.2559 6.00588 53.399 5.79461 53.4946 5.56109C53.5902 5.32757 53.6363 5.07686 53.6299 4.82473C53.6409 4.58469 53.602 4.34497 53.5157 4.1206C53.4294 3.89623 53.2975 3.69205 53.1283 3.52084C52.9591 3.34964 52.7562 3.21511 52.5324 3.12569C52.3086 3.03627 52.0686 2.99388 51.8276 3.00118V3.00118ZM63.4832 17.5935C63.1668 17.8214 62.7934 17.9577 62.4042 17.9874C60.6019 17.9874 60.6019 16.412 60.6019 14.9586V11.1028C60.6019 10.5396 60.6296 10.516 60.9616 10.516H63.2777C63.5346 10.3623 63.6136 9.8976 63.6136 9.61796C63.6202 9.5262 63.605 9.43419 63.5693 9.34935C63.5336 9.26452 63.4783 9.18924 63.4081 9.12958H61.1157C60.6533 9.12958 60.6296 9.10595 60.6296 8.61757V6.69555C60.5254 6.5984 60.3945 6.53449 60.2537 6.51204C60.1128 6.48958 59.9684 6.50959 59.8391 6.56952C59.3254 7.34153 58.6807 8.01856 57.934 8.5703C57.2725 9.04027 56.5557 9.42782 55.7998 9.7243C55.7534 9.78451 55.7205 9.85385 55.703 9.92771C55.6856 10.0016 55.6841 10.0783 55.6987 10.1528C55.7133 10.2272 55.7436 10.2978 55.7876 10.3597C55.8316 10.4216 55.8883 10.4736 55.9539 10.512H56.7444C57.2068 10.512 57.2345 10.5632 57.2345 11.0989V16.8255C57.2345 18.5152 57.9775 19.7479 60.1158 19.7479C61.5002 19.7583 62.8327 19.2232 63.8231 18.2592C63.856 18.126 63.8399 17.9855 63.7774 17.8633C63.715 17.7411 63.6106 17.6453 63.4832 17.5935ZM75.2731 17.7747C74.981 17.9652 74.6418 18.0715 74.2929 18.0819C73.7791 18.0819 73.0321 17.6172 73.1349 15.8763L73.3167 12.4892C73.4432 9.8464 72.1824 8.77117 70.0204 8.77117C68.4466 8.81921 66.9303 9.37169 65.6965 10.3466C65.0799 10.835 64.4634 11.6542 64.4634 12.3159C64.4634 12.6743 64.6175 12.9539 65.0523 12.9539C65.7067 12.9003 66.3404 12.6997 66.9059 12.3671C67.0338 12.269 67.1391 12.1448 67.2147 12.0028C67.2904 11.8609 67.3347 11.7044 67.3446 11.5439C67.5265 10.4411 68.064 10.0827 68.6845 10.0827C69.7912 10.0827 70.1745 11.3155 70.1745 12.2883C70.172 12.5791 70.1549 12.8696 70.1232 13.1587C70.0994 13.3675 69.969 13.5526 69.5066 13.6747C68.7873 13.8795 68.064 14.0685 67.0877 14.3915C65.2143 14.9665 64.4238 15.7542 64.4238 17.054C64.4238 18.8499 65.8111 19.7479 67.3051 19.7479C68.1018 19.7096 68.8662 19.423 69.4908 18.9287C69.7516 18.7475 69.9058 18.6451 70.0323 18.6451C70.1852 18.6612 70.3265 18.7344 70.4275 18.8499C70.7102 19.1349 71.0469 19.361 71.4181 19.5151C71.7892 19.6693 72.1874 19.7484 72.5894 19.7479C73.1555 19.729 73.7119 19.5965 74.2253 19.3583C74.7387 19.1201 75.1986 18.7811 75.5774 18.3616C75.6106 18.2435 75.5977 18.1173 75.5412 18.0084C75.4847 17.8995 75.3889 17.816 75.2731 17.7747V17.7747ZM70.0481 15.2068L69.9967 16.8255C69.969 17.6132 69.8149 18.0819 69.0165 18.0819C68.2972 18.0819 67.7043 17.3612 67.7043 16.5419C67.7043 15.3367 68.7082 14.8996 69.8663 14.746C70.0481 14.7223 70.0718 14.7972 70.0481 15.2068ZM29.8524 17.9638C29.5208 18.0832 29.1731 18.1522 28.8208 18.1686C28.2043 18.1686 28.1252 17.499 28.1252 15.9866V11.3352C28.1252 10.386 28.1766 9.53919 28.2043 9.07838C28.1766 8.90114 28.0501 8.77117 27.9474 8.77117C27.8446 8.77117 27.0186 9.05475 26.1174 9.16503C25.2953 9.26743 24.3705 9.36983 23.4417 9.42103C23.1334 9.52343 23.1097 10.1418 23.3152 10.319L23.6748 10.3702C24.5997 10.5002 24.7815 10.7286 24.7815 11.7566V16.601C24.7887 16.7446 24.7672 16.8881 24.7184 17.0233C24.6695 17.1585 24.5943 17.2827 24.4969 17.3887C24.124 17.7046 23.6504 17.8777 23.161 17.8771C21.5129 17.8771 21.3311 16.798 21.3311 15.5652V11.3352C21.3311 10.4135 21.3588 9.72036 21.4101 9.07838C21.3825 8.95234 21.256 8.77117 21.1019 8.77117C20.9477 8.77117 20.2521 9.07838 19.4774 9.20835C18.6565 9.34483 17.8272 9.42641 16.9953 9.45254C16.8747 9.56609 16.7982 9.7185 16.7794 9.88283C16.7606 10.0472 16.8007 10.2128 16.8926 10.3505L17.2246 10.4529C17.8451 10.6341 18.015 10.7601 18.015 12.1189V16.4632C18.015 18.6451 18.8885 19.7479 21.0268 19.7479C22.6077 19.7479 23.5207 19.1571 24.5246 18.5152C24.5604 18.5125 24.5963 18.5171 24.6302 18.5286C24.6641 18.5402 24.6953 18.5585 24.7219 18.5824C24.7485 18.6064 24.77 18.6354 24.785 18.6679C24.8 18.7003 24.8082 18.7355 24.8092 18.7712C24.795 19.0805 24.7594 19.3884 24.7025 19.6928C24.7124 19.7708 24.748 19.8434 24.8038 19.899C24.8597 19.9546 24.9324 19.9901 25.0108 20C26.5447 19.4885 28.1392 19.1787 29.7536 19.0784C30.1093 18.9523 30.0816 18.0307 29.8524 17.9795V17.9638ZM16.9321 18.6451C16.2987 18.5833 15.6984 18.3336 15.2089 17.9283C13.9718 16.8767 12.9165 14.9508 11.2209 11.5163C11.0905 11.2328 11.0905 11.0792 11.3474 10.9492C12.5331 10.3623 14.0745 9.37377 14.0745 7.10516C14.0883 6.32511 13.8837 5.55667 13.4837 4.88603C13.0837 4.21539 12.504 3.66908 11.8098 3.30839C10.8336 2.71761 8.9562 2.38677 6.76659 2.38677C4.32007 2.38677 2.31621 2.48917 0.383501 2.6152C0.314526 2.66645 0.257657 2.73215 0.216897 2.80765C0.176138 2.88316 0.152477 2.96665 0.147579 3.05225C0.142681 3.13785 0.156665 3.22348 0.188548 3.30312C0.220431 3.38276 0.269438 3.45446 0.332121 3.51319L1.02774 3.6156C2.10674 3.7692 2.16207 4.05278 2.16207 6.61678V15.6952C2.16207 18.0583 2.00398 18.2355 0.845929 18.4521L0.154264 18.5782C0.0542703 18.7066 0 18.8646 0 19.0272C0 19.1898 0.0542703 19.3477 0.154264 19.4762C1.49017 19.425 2.6245 19.4013 3.90902 19.4013C5.19354 19.4013 6.32787 19.425 7.6954 19.4762C7.78265 19.3426 7.8291 19.1866 7.8291 19.0272C7.8291 18.8678 7.78265 18.7118 7.6954 18.5782L6.99978 18.4521C5.84173 18.2473 5.68759 18.0583 5.68759 15.6952V12.5443C5.68759 12.0323 5.73897 11.9811 6.64011 11.9811C6.93594 11.9543 7.23212 12.0286 7.47994 12.1918C7.72776 12.355 7.91247 12.5974 8.00368 12.8791C8.57748 14.2496 9.24844 15.5776 10.0115 16.8531C11.1419 18.6963 12.6477 19.5431 15.0191 19.5431C15.7 19.5739 16.3812 19.4914 17.0349 19.2989C17.1041 19.1973 17.132 19.0732 17.113 18.9518C17.0939 18.8304 17.0292 18.7208 16.9321 18.6451V18.6451ZM9.23682 10.13C8.98301 10.3845 8.67633 10.5806 8.33834 10.7045C8.00035 10.8283 7.63924 10.8769 7.2804 10.8468C5.76268 10.8468 5.69945 10.772 5.69945 9.87397V4.872C5.69945 3.64317 5.75083 3.5644 6.80611 3.5644C8.80997 3.5644 10.1775 5.05317 10.1775 7.36117C10.1656 8.87357 9.67554 9.69279 9.23682 10.13ZM79.0121 0C78.2243 0.000778807 77.4544 0.234281 76.7997 0.670991C76.1451 1.1077 75.6351 1.72801 75.3341 2.45352C75.0332 3.17902 74.9549 3.97714 75.1091 4.747C75.2632 5.51686 75.643 6.22389 76.2003 6.77872C76.7576 7.33355 77.4675 7.71127 78.2402 7.86414C79.0129 8.017 79.8138 7.93815 80.5415 7.63755C81.2693 7.33695 81.8913 6.8281 82.3289 6.17531C82.7664 5.52252 83 4.7551 83 3.97007C82.999 2.91678 82.5783 1.90699 81.8306 1.16257C81.0828 0.418148 80.069 -5.17291e-07 79.0121 0V0ZM79.0121 7.54628C78.3024 7.5455 77.609 7.3351 77.0193 6.94166C76.4297 6.54823 75.9703 5.98943 75.6993 5.3359C75.4283 4.68236 75.3578 3.96343 75.4967 3.26997C75.6356 2.57651 75.9777 1.93966 76.4798 1.43991C76.9818 0.940167 77.6213 0.599956 78.3173 0.462286C79.0134 0.324616 79.7347 0.395667 80.3903 0.666457C81.0458 0.937248 81.6061 1.39562 82.0002 1.98364C82.3944 2.57166 82.6048 3.26293 82.6048 3.97007C82.6037 4.9189 82.2247 5.82851 81.5511 6.49907C80.8774 7.16963 79.9642 7.54628 79.0121 7.54628V7.54628ZM80.5219 5.34462C80.4319 5.23802 80.3587 5.11852 80.3045 4.99015L80.1385 4.63568C80.0801 4.50774 80.0043 4.38846 79.9132 4.28121C79.8216 4.18625 79.7112 4.11116 79.5891 4.06065V4.03308C79.7309 3.97573 79.864 3.89884 79.9843 3.80465C80.0877 3.72301 80.1714 3.61939 80.2294 3.50138C80.2919 3.36432 80.3217 3.21467 80.3163 3.0642C80.3191 2.94789 80.3017 2.83197 80.265 2.72154C80.2351 2.62763 80.1867 2.54059 80.1227 2.46554C80.0567 2.39038 79.9777 2.32767 79.8895 2.28043C79.7719 2.21777 79.6452 2.17391 79.514 2.15045C79.3405 2.11964 79.1645 2.10514 78.9883 2.10713H77.4667V2.28043C77.5203 2.29185 77.5721 2.31039 77.6208 2.33557C77.657 2.35494 77.6861 2.38529 77.7038 2.42221C77.7254 2.46372 77.7375 2.50943 77.7394 2.55612C77.7394 2.61126 77.7394 2.68216 77.7394 2.76487V5.00985C77.7394 5.09256 77.7394 5.15951 77.7394 5.21465C77.7332 5.26188 77.7213 5.30817 77.7038 5.3525C77.6846 5.38739 77.6558 5.41609 77.6208 5.43521C77.5709 5.45736 77.5194 5.47579 77.4667 5.49035V5.66365H78.8382V5.49035C78.7682 5.4776 78.702 5.44933 78.6445 5.40764C78.6081 5.37407 78.5833 5.32999 78.5733 5.28161C78.5648 5.19122 78.5648 5.10023 78.5733 5.00985V4.17093H78.7235C78.7961 4.16602 78.8689 4.17677 78.937 4.20244C78.9907 4.22865 79.0369 4.26794 79.0713 4.31666C79.1327 4.40471 79.1857 4.49834 79.2294 4.5963L79.4429 5.04136C79.5376 5.25911 79.6527 5.46747 79.7867 5.66365H80.7906V5.49035C80.6869 5.47388 80.5921 5.42243 80.5219 5.34462V5.34462ZM79.5021 3.41867C79.4825 3.50316 79.4447 3.58243 79.3915 3.65104C79.3339 3.72144 79.259 3.77573 79.1741 3.80859C79.0644 3.84989 78.9474 3.86864 78.8302 3.86373H78.5733V2.41827C78.6168 2.41827 78.7156 2.41827 78.8658 2.41827C78.9567 2.41128 79.048 2.42345 79.1338 2.45398C79.2196 2.48452 79.298 2.53275 79.3638 2.59551C79.485 2.74525 79.5444 2.93539 79.5298 3.12722C79.5308 3.22506 79.5215 3.32274 79.5021 3.41867V3.41867Z" fill="#FF4F36"/>
</svg>
