<svg width="22" height="22" viewBox="0 0 22 22" fill="none" xmlns="http://www.w3.org/2000/svg">
<path d="M11 0.34375C5.07031 0.34375 0.34375 5.11328 0.34375 11C0.34375 16.9297 5.07031 21.6562 11 21.6562C13.0625 21.6562 15.082 21.0547 16.8008 19.9375C17.3164 19.5938 17.4453 18.9062 17.0156 18.4336L16.5859 17.875C16.2852 17.4883 15.6836 17.4023 15.2539 17.6602C13.9648 18.4766 12.5039 18.9062 11 18.9062C6.61719 18.9062 3.09375 15.3828 3.09375 11C3.09375 6.66016 6.61719 3.09375 11 3.09375C15.2969 3.09375 18.9062 5.58594 18.9062 9.96875C18.9062 11.6445 17.9609 13.4062 16.3711 13.5781C15.6406 13.5781 15.6406 13.0195 15.8125 12.2891L16.8008 7.08984C16.9297 6.44531 16.457 5.84375 15.8125 5.84375H13.8789C13.5781 5.84375 13.3203 6.10156 13.2773 6.35938V6.40234C12.6758 5.62891 11.5586 5.45703 10.6992 5.45703C7.51953 5.45703 4.8125 8.12109 4.8125 11.9453C4.8125 14.7812 6.35938 16.5 8.9375 16.5C10.0547 16.5 11.3867 15.8555 12.1172 14.8672C12.5469 16.3281 13.8789 16.3281 15.168 16.3281C19.8516 16.3281 21.6562 13.2344 21.6562 9.96875C21.6562 4.125 16.9297 0.34375 11 0.34375ZM10.0547 13.4492C9.10938 13.4492 8.50781 12.7617 8.50781 11.6875C8.50781 9.75391 9.83984 8.55078 11 8.55078C11.9883 8.55078 12.5469 9.23828 12.5469 10.3125C12.5469 12.2461 11.0859 13.4492 10.0547 13.4492Z" fill="#6DB624"/>
</svg>
