<svg width="26" height="16" viewBox="0 0 26 16" fill="none" xmlns="http://www.w3.org/2000/svg">
<path d="M25.0714 7.99902C25.0714 12.1144 21.7253 15.499 17.5714 15.499C13.456 15.499 10.0714 12.1144 10.0714 7.99902C10.0714 3.88364 13.4176 0.499023 17.533 0.499023C21.7253 0.499023 25.0714 3.88364 25.0714 7.99902Z" fill="#F9B50B"/>
<path d="M15.033 8.03749C15.033 7.49902 14.956 6.96056 14.8791 6.46056H10.2637C10.3022 6.19133 10.3791 5.96056 10.456 5.65287H14.5714C14.4945 5.38364 14.3791 5.11441 14.2637 4.84518H10.7637C10.8791 4.57595 11.0329 4.34518 11.1868 4.03748H13.8406C13.6868 3.76825 13.4945 3.49902 13.2637 3.22979H11.8022C12.0329 2.96056 12.2637 2.72979 12.5714 2.46056C11.2637 1.22979 9.49449 0.499023 7.53295 0.499023C3.45603 0.614408 0.0714111 3.88364 0.0714111 7.99902C0.0714111 12.1144 3.41756 15.499 7.57141 15.499C9.53295 15.499 11.2637 14.7298 12.6099 13.5375C12.8791 13.3067 13.1099 13.0375 13.3791 12.7298H11.8406C11.6483 12.499 11.456 12.2298 11.3022 11.9606H13.9176C14.0714 11.7298 14.2253 11.4606 14.3406 11.1529H10.8406C10.7253 10.9221 10.6099 10.6529 10.533 10.3452H14.6483C14.8791 9.65287 15.033 8.88364 15.033 8.03749Z" fill="#C8191C"/>
<path d="M10.2253 9.92188L10.3406 9.22957C10.3022 9.22957 10.2253 9.26803 10.1483 9.26803C9.8791 9.26803 9.84064 9.11418 9.8791 9.03726L10.1099 7.65264H10.533L10.6483 6.88341H10.2637L10.3406 6.42188H9.53295C9.53295 6.42188 9.07141 9.03726 9.07141 9.34495C9.07141 9.80649 9.34064 10.0373 9.72526 10.0373C9.95603 10.0373 10.1483 9.96034 10.2253 9.92188Z" fill="white"/>
<path d="M10.4945 8.65303C10.4945 9.76841 11.2637 10.0376 11.8791 10.0376C12.456 10.0376 12.7253 9.92226 12.7253 9.92226L12.8791 9.15303C12.8791 9.15303 12.456 9.34534 12.033 9.34534C11.1484 9.34534 11.3022 8.69149 11.3022 8.69149H12.9176C12.9176 8.69149 13.033 8.19149 13.033 7.96072C13.033 7.46072 12.7637 6.80687 11.8791 6.80687C11.1099 6.76841 10.4945 7.65303 10.4945 8.65303ZM11.8791 7.49918C12.3022 7.49918 12.2253 7.99918 12.2253 8.03764H11.3407C11.3791 7.99918 11.456 7.49918 11.8791 7.49918Z" fill="white"/>
<path d="M16.9175 9.92221L17.0714 9.0376C17.0714 9.0376 16.6868 9.22991 16.3791 9.22991C15.8406 9.22991 15.5714 8.80683 15.5714 8.30683C15.5714 7.34529 16.0329 6.84529 16.6098 6.84529C16.9945 6.84529 17.3406 7.07606 17.3406 7.07606L17.456 6.22991C17.456 6.22991 16.9945 6.0376 16.5329 6.0376C15.6098 6.0376 14.7252 6.84529 14.7252 8.34529C14.7252 9.34529 15.1868 9.99914 16.1483 9.99914C16.4945 10.0376 16.9175 9.92221 16.9175 9.92221Z" fill="white"/>
<path d="M5.87903 6.76807C5.34057 6.76807 4.91749 6.92191 4.91749 6.92191L4.80211 7.61422C4.80211 7.61422 5.14826 7.46037 5.68672 7.46037C5.95595 7.46037 6.18672 7.49884 6.18672 7.7296C6.18672 7.88345 6.14826 7.92191 6.14826 7.92191H5.80211C5.1098 7.92191 4.37903 8.19114 4.37903 9.11422C4.37903 9.84499 4.84057 9.99884 5.14826 9.99884C5.68672 9.99884 5.95595 9.65268 5.99441 9.65268L5.95595 9.96037H6.6098L6.91749 7.76807C6.91749 6.80653 6.14826 6.76807 5.87903 6.76807ZM6.03287 8.5373C6.03287 8.65268 5.95595 9.30653 5.49441 9.30653C5.26364 9.30653 5.18672 9.11422 5.18672 8.99884C5.18672 8.80653 5.30211 8.5373 5.91749 8.5373C5.99441 8.5373 6.03287 8.5373 6.03287 8.5373Z" fill="white"/>
<path d="M7.68682 9.99872C7.87913 9.99872 8.87913 10.0372 8.87913 8.96026C8.87913 7.96026 7.91759 8.15257 7.91759 7.76795C7.91759 7.57565 8.07143 7.49872 8.34067 7.49872C8.45605 7.49872 8.87913 7.53718 8.87913 7.53718L8.99451 6.80641C8.99451 6.80641 8.72528 6.72949 8.22528 6.72949C7.64836 6.72949 7.03297 6.96026 7.03297 7.76795C7.03297 8.69103 8.03297 8.61411 8.03297 8.96026C8.03297 9.19103 7.76374 9.22949 7.57143 9.22949C7.22528 9.22949 6.84067 9.11411 6.84067 9.11411L6.72528 9.84488C6.8022 9.9218 7.03297 9.99872 7.68682 9.99872Z" fill="white"/>
<path d="M23.533 6.15283L23.3792 7.22976C23.3792 7.22976 23.0715 6.84514 22.6099 6.84514C21.8792 6.84514 21.2638 7.72976 21.2638 8.76822C21.2638 9.42206 21.5715 10.0759 22.2638 10.0759C22.7253 10.0759 23.033 9.76822 23.033 9.76822L22.9946 10.0374H23.8023L24.3792 6.22976L23.533 6.15283ZM23.1484 8.22976C23.1484 8.65283 22.9561 9.22976 22.4946 9.22976C22.2253 9.22976 22.0715 8.99899 22.0715 8.57591C22.0715 7.92206 22.3407 7.53745 22.7253 7.53745C22.9946 7.57591 23.1484 7.76822 23.1484 8.22976Z" fill="white"/>
<path d="M1.53296 9.96052L1.9945 7.11437L2.07143 9.96052H2.60989L3.64835 7.11437L3.22527 9.96052H4.07143L4.72527 6.15283H3.41758L2.60989 8.49899L2.57143 6.15283H1.41758L0.763733 9.96052H1.53296Z" fill="white"/>
<path d="M13.8407 9.9606C14.0714 8.65291 14.1099 7.57598 14.6868 7.76829C14.7637 7.26829 14.8791 7.03752 14.9561 6.84521H14.8022C14.4561 6.84521 14.1484 7.30675 14.1484 7.30675L14.2253 6.88368H13.4561L12.9561 9.9606H13.8407Z" fill="white"/>
<path d="M18.7637 6.76807C18.2253 6.76807 17.8022 6.92191 17.8022 6.92191L17.6868 7.61422C17.6868 7.61422 18.033 7.46037 18.5714 7.46037C18.8407 7.46037 19.0714 7.49884 19.0714 7.7296C19.0714 7.88345 19.033 7.92191 19.033 7.92191H18.6868C17.9945 7.92191 17.2637 8.19114 17.2637 9.11422C17.2637 9.84499 17.7253 9.99884 18.033 9.99884C18.5714 9.99884 18.8407 9.65268 18.8791 9.65268L18.8407 9.96037H19.5714L19.8791 7.76807C19.8791 6.80653 19.033 6.76807 18.7637 6.76807ZM18.956 8.5373C18.956 8.65268 18.8791 9.30653 18.4176 9.30653C18.1868 9.30653 18.1099 9.11422 18.1099 8.99884C18.1099 8.80653 18.2253 8.5373 18.8407 8.5373C18.9176 8.5373 18.9176 8.5373 18.956 8.5373Z" fill="white"/>
<path d="M20.4945 9.9606C20.7252 8.65291 20.7637 7.57598 21.3406 7.76829C21.4176 7.26829 21.5329 7.03752 21.6099 6.84521H21.456C21.1099 6.84521 20.8022 7.30675 20.8022 7.30675L20.8791 6.88368H20.1099L19.6099 9.9606H20.4945Z" fill="white"/>
</svg>
