<svg width="52" height="16" viewBox="0 0 52 16" fill="none" xmlns="http://www.w3.org/2000/svg">
<path d="M46.5462 0.499023H36.5784C37.159 3.78936 40.3526 6.88616 43.8365 6.88616H51.772C51.8688 6.59584 51.8688 6.11196 51.8688 5.82163C51.8688 2.91839 49.4494 0.499023 46.5462 0.499023Z" fill="url(#paint0_linear)"/>
<path d="M37.4492 7.4668V15.4991H42.288V11.241H46.546C48.8686 11.241 50.9009 9.59584 51.5783 7.4668H37.4492Z" fill="#4FAD50"/>
<path d="M20.4169 0.499023V15.4023H24.675C24.675 15.4023 25.7395 15.4023 26.3202 14.3378C29.2234 8.6281 30.0944 6.88616 30.0944 6.88616H30.6751V15.4023H35.5138V0.499023H31.2557C31.2557 0.499023 30.1912 0.595804 29.6105 1.56355C27.1912 6.49906 25.8363 9.0152 25.8363 9.0152H25.2557V0.499023H20.4169Z" fill="#4FAD50"/>
<path d="M0.0942383 15.499V0.595703H4.93297C4.93297 0.595703 6.28783 0.5957 7.06203 2.72474C8.99753 8.33768 9.19109 9.11188 9.19109 9.11188C9.19109 9.11188 9.57817 7.75703 11.3201 2.72474C12.0943 0.5957 13.4492 0.595703 13.4492 0.595703H18.2879V15.499H13.4492V7.46671H12.8685L10.1588 15.499H8.02978L5.3201 7.46671H4.73944V15.499H0.0942383Z" fill="#4FAD50"/>
<defs>
<linearGradient id="paint0_linear" x1="36.5611" y1="3.73837" x2="51.8345" y2="3.73837" gradientUnits="userSpaceOnUse">
<stop stop-color="#27B1E6"/>
<stop offset="1" stop-color="#148ACA"/>
</linearGradient>
</defs>
</svg>
