<svg width="23" height="26" viewBox="0 0 23 26" fill="none" xmlns="http://www.w3.org/2000/svg">
<path d="M11.5 26.25C13.2773 26.25 14.6992 24.8281 14.6992 23H8.25C8.25 24.8281 9.67188 26.25 11.5 26.25ZM22.418 18.6836C21.4531 17.6172 19.5742 16.043 19.5742 10.8125C19.5742 6.90234 16.832 3.75391 13.0742 2.94141V1.875C13.0742 1.01172 12.3633 0.25 11.5 0.25C10.5859 0.25 9.875 1.01172 9.875 1.875V2.94141C6.11719 3.75391 3.375 6.90234 3.375 10.8125C3.375 16.043 1.49609 17.6172 0.53125 18.6836C0.226562 18.9883 0.0742188 19.3945 0.125 19.75C0.125 20.6133 0.734375 21.375 1.75 21.375H21.1992C22.2148 21.375 22.8242 20.6133 22.875 19.75C22.875 19.3945 22.7227 18.9883 22.418 18.6836Z" />
</svg>
