<svg width="23" height="18" viewBox="0 0 23 18" fill="none" xmlns="http://www.w3.org/2000/svg">
<path d="M18.4688 1.73438C17.9531 1.40625 17.25 1.59375 16.9219 2.10938C16.5938 2.625 16.7344 3.32812 17.25 3.65625C19.125 4.82812 20.25 6.84375 20.25 9C20.25 11.2031 19.125 13.2188 17.25 14.3906C16.7344 14.7188 16.5938 15.4219 16.9219 15.9375C17.2031 16.4531 17.9062 16.6406 18.4688 16.3125C20.9531 14.7188 22.5 12 22.5 9C22.5 6.04688 20.9531 3.32812 18.4688 1.73438ZM15.8438 5.4375C15.2812 5.10938 14.625 5.29688 14.2969 5.85938C14.0156 6.42188 14.2031 7.07812 14.7656 7.40625C15.3281 7.73438 15.75 8.34375 15.75 9C15.75 9.70312 15.3281 10.3125 14.7656 10.6406C14.2031 10.9688 14.0156 11.625 14.2969 12.1875C14.625 12.75 15.2812 12.9375 15.8438 12.6094C17.1562 11.9062 18 10.5 18 9C18 7.54688 17.1562 6.14062 15.8438 5.4375ZM10.8281 0C10.5469 0 10.2656 0.140625 10.0781 0.375L5.90625 4.5H1.125C0.46875 4.5 0 5.01562 0 5.625V12.375C0 13.0312 0.46875 13.5 1.125 13.5H5.90625L10.0781 17.6719C10.2656 17.9062 10.5469 18 10.8281 18C11.4375 18 12 17.5781 12 16.875V1.17188C12 0.46875 11.4375 0 10.8281 0ZM9.75 14.2031L6.79688 11.25H2.25V6.75H6.79688L9.75 3.84375V14.2031Z" fill="#6DB624"/>
</svg>
