<svg width="24" height="18" viewBox="0 0 24 18" fill="none" xmlns="http://www.w3.org/2000/svg">
<path d="M10.8281 0C10.5469 0 10.2656 0.140625 10.0781 0.375L5.90625 4.5H1.125C0.46875 4.5 0 5.01562 0 5.625V12.375C0 13.0312 0.46875 13.5 1.125 13.5H5.90625L10.0781 17.6719C10.2656 17.9062 10.5469 18 10.8281 18C11.4375 18 12 17.5781 12 16.875V1.17188C12 0.46875 11.4375 0 10.8281 0ZM9.75 14.2031L7.5 11.9531L6.79688 11.25H2.25V6.75H6.79688L7.5 6.09375L9.75 3.84375V14.2031ZM21.7969 9L23.7656 7.07812C24.0469 6.79688 24.0469 6.32812 23.7656 6L23.25 5.48438C22.9219 5.20312 22.4531 5.20312 22.1719 5.48438L20.25 7.45312L18.2812 5.48438C18 5.20312 17.5312 5.20312 17.25 5.48438L16.6875 6C16.4062 6.32812 16.4062 6.79688 16.6875 7.07812L18.6562 9L16.6875 10.9688C16.4062 11.25 16.4062 11.7188 16.6875 12L17.25 12.5625C17.5312 12.8438 18 12.8438 18.2812 12.5625L20.25 10.5938L22.1719 12.5625C22.4531 12.8438 22.9219 12.8438 23.25 12.5625L23.7656 12C24.0469 11.7188 24.0469 11.25 23.7656 10.9688L21.7969 9Z" fill="#FF4F36"/>
</svg>
