<svg width="40" height="40" viewBox="0 0 40 40" fill="none" xmlns="http://www.w3.org/2000/svg">
<path d="M0 4C0 1.79086 1.79086 0 4 0H36C38.2091 0 40 1.79086 40 4V36C40 38.2091 38.2091 40 36 40H4C1.79086 40 0 38.2091 0 36V4Z" fill="#FF4F36"/>
<path d="M24.8255 22.5469C26.0755 21.7266 26.6615 21.2578 26.1536 20.2422C25.8802 19.6953 25.0599 19.2266 24.0443 20.0469C24.0443 20.0469 22.599 21.1797 20.3333 21.1797C18.0286 21.1797 16.6224 20.0469 16.6224 20.0469C15.5677 19.1875 14.7865 19.6953 14.474 20.2422C14.0052 21.2578 14.5521 21.7266 15.8021 22.5469C16.8958 23.25 18.3802 23.5234 19.3568 23.6016L18.5365 24.4219C17.4036 25.5547 16.349 26.6484 15.5677 27.3906C14.474 28.4844 16.2318 30.2422 17.3646 29.1875L20.3333 26.1797C21.4661 27.3516 22.5599 28.4453 23.3021 29.1875C24.3958 30.2812 26.1927 28.5234 25.099 27.3906L22.1302 24.4219L21.3099 23.6016C22.2865 23.5234 23.7318 23.25 24.8255 22.5469ZM15.2552 14.5781C15.2552 17.3906 17.5208 19.6562 20.3333 19.6562C23.1068 19.6562 25.3724 17.3906 25.3724 14.5781C25.3724 11.7656 23.1068 9.5 20.3333 9.5C17.5208 9.5 15.2552 11.7656 15.2552 14.5781ZM17.8333 14.5781C17.8333 13.2109 18.9271 12.0781 20.3333 12.0781C21.7005 12.0781 22.7943 13.2109 22.7943 14.5781C22.7943 15.9453 21.7005 17.0781 20.3333 17.0781C18.9271 17.0781 17.8333 15.9453 17.8333 14.5781Z" fill="white"/>
</svg>
