<svg width="34" height="21" viewBox="0 0 34 21" fill="none" xmlns="http://www.w3.org/2000/svg">
<path d="M33.6414 10.5C33.6414 15.9872 29.1798 20.5 23.6414 20.5C18.1542 20.5 13.6414 15.9872 13.6414 10.5C13.6414 5.01282 18.1029 0.5 23.5901 0.5C29.1798 0.5 33.6414 5.01282 33.6414 10.5Z" fill="#F9B50B"/>
<path d="M20.2568 10.5513C20.2568 9.83333 20.1543 9.11539 20.0517 8.44872H13.8979C13.9491 8.08974 14.0517 7.78205 14.1543 7.3718H19.6414C19.5389 7.01282 19.385 6.65385 19.2312 6.29487H14.5645C14.7184 5.9359 14.9235 5.62821 15.1286 5.21795H18.6671C18.462 4.85897 18.2055 4.5 17.8979 4.14103H15.9491C16.2568 3.78205 16.5645 3.47436 16.9748 3.11538C15.2312 1.47436 12.8722 0.5 10.2568 0.5C4.82093 0.653846 0.308105 5.01282 0.308105 10.5C0.308105 15.9872 4.76964 20.5 10.3081 20.5C12.9235 20.5 15.2312 19.4744 17.0261 17.8846C17.385 17.5769 17.6927 17.2179 18.0517 16.8077H16.0004C15.744 16.5 15.4876 16.141 15.2825 15.7821H18.7696C18.9748 15.4744 19.1799 15.1154 19.3337 14.7051H14.6671C14.5132 14.3974 14.3594 14.0385 14.2568 13.6282H19.744C20.0517 12.7051 20.2568 11.6795 20.2568 10.5513Z" fill="#C8191C"/>
<path d="M13.8466 13.0641L14.0004 12.1411C13.9491 12.1411 13.8466 12.1923 13.744 12.1923C13.385 12.1923 13.3337 11.9872 13.385 11.8846L13.6927 10.0385H14.2568L14.4107 9.01285H13.8978L14.0004 8.39746H12.9235C12.9235 8.39746 12.3081 11.8846 12.3081 12.2949C12.3081 12.9103 12.6671 13.218 13.1799 13.218C13.4876 13.218 13.744 13.1154 13.8466 13.0641Z" fill="white"/>
<path d="M14.2056 11.3718C14.2056 12.859 15.2312 13.218 16.0517 13.218C16.821 13.218 17.1799 13.0642 17.1799 13.0642L17.3851 12.0385C17.3851 12.0385 16.821 12.2949 16.2568 12.2949C15.0774 12.2949 15.2825 11.4231 15.2825 11.4231H17.4363C17.4363 11.4231 17.5902 10.7565 17.5902 10.4488C17.5902 9.7821 17.2312 8.9103 16.0517 8.9103C15.0261 8.85902 14.2056 10.0385 14.2056 11.3718ZM16.0517 9.83338C16.6158 9.83338 16.5133 10.5 16.5133 10.5513H15.3338C15.3851 10.5 15.4876 9.83338 16.0517 9.83338Z" fill="white"/>
<path d="M22.7695 13.0643L22.9746 11.8848C22.9746 11.8848 22.4618 12.1412 22.0516 12.1412C21.3336 12.1412 20.9746 11.5771 20.9746 10.9104C20.9746 9.62836 21.59 8.96169 22.3593 8.96169C22.8721 8.96169 23.3336 9.26938 23.3336 9.26938L23.4875 8.14118C23.4875 8.14118 22.8721 7.88477 22.2567 7.88477C21.0259 7.88477 19.8464 8.96169 19.8464 10.9617C19.8464 12.295 20.4618 13.1668 21.7439 13.1668C22.2054 13.2181 22.7695 13.0643 22.7695 13.0643Z" fill="white"/>
<path d="M8.05176 8.85889C7.33381 8.85889 6.76971 9.06402 6.76971 9.06402L6.61586 9.98709C6.61586 9.98709 7.0774 9.78196 7.79535 9.78196C8.15432 9.78196 8.46201 9.83325 8.46201 10.1409C8.46201 10.3461 8.41073 10.3973 8.41073 10.3973H7.94919C7.02612 10.3973 6.05176 10.7563 6.05176 11.9871C6.05176 12.9615 6.66714 13.1666 7.0774 13.1666C7.79535 13.1666 8.15432 12.705 8.2056 12.705L8.15432 13.1153H9.02612L9.43637 10.1922C9.43637 8.91017 8.41073 8.85889 8.05176 8.85889ZM8.25689 11.2179C8.25689 11.3717 8.15432 12.2435 7.53894 12.2435C7.23125 12.2435 7.12868 11.9871 7.12868 11.8332C7.12868 11.5768 7.28253 11.2179 8.10304 11.2179C8.2056 11.2179 8.25689 11.2179 8.25689 11.2179Z" fill="white"/>
<path d="M10.462 13.1666C10.7184 13.1666 12.0517 13.2179 12.0517 11.782C12.0517 10.4486 10.7697 10.7051 10.7697 10.1922C10.7697 9.93582 10.9748 9.83326 11.3338 9.83326C11.4876 9.83326 12.0517 9.88454 12.0517 9.88454L12.2056 8.91018C12.2056 8.91018 11.8466 8.80762 11.1799 8.80762C10.4107 8.80762 9.59019 9.11531 9.59019 10.1922C9.59019 11.423 10.9235 11.3204 10.9235 11.782C10.9235 12.0897 10.5645 12.141 10.3081 12.141C9.8466 12.141 9.33378 11.9871 9.33378 11.9871L9.17993 12.9615C9.2825 13.064 9.59019 13.1666 10.462 13.1666Z" fill="white"/>
<path d="M31.5901 8.03857L31.385 9.47447C31.385 9.47447 30.9747 8.96165 30.3593 8.96165C29.385 8.96165 28.5645 10.1411 28.5645 11.5258C28.5645 12.3975 28.9747 13.2693 29.8978 13.2693C30.5132 13.2693 30.9234 12.8591 30.9234 12.8591L30.8721 13.2181H31.9491L32.7183 8.14114L31.5901 8.03857ZM31.0773 10.8078C31.0773 11.3719 30.8209 12.1411 30.2055 12.1411C29.8465 12.1411 29.6414 11.8334 29.6414 11.2693C29.6414 10.3975 30.0004 9.88473 30.5132 9.88473C30.8721 9.93601 31.0773 10.1924 31.0773 10.8078Z" fill="white"/>
<path d="M2.25684 13.1155L2.87223 9.32063L2.97479 13.1155H3.69274L5.07736 9.32063L4.51325 13.1155H5.64146L6.51325 8.03857H4.76966L3.69274 11.1668L3.64146 8.03857H2.103L1.2312 13.1155H2.25684Z" fill="white"/>
<path d="M18.667 13.1153C18.9747 11.3717 19.026 9.93578 19.7952 10.1922C19.8978 9.52553 20.0517 9.21784 20.1542 8.96143H19.9491C19.4875 8.96143 19.0773 9.57681 19.0773 9.57681L19.1799 9.01271H18.1542L17.4875 13.1153H18.667Z" fill="white"/>
<path d="M25.2312 8.85889C24.5133 8.85889 23.9491 9.06402 23.9491 9.06402L23.7953 9.98709C23.7953 9.98709 24.2568 9.78196 24.9748 9.78196C25.3338 9.78196 25.6415 9.83325 25.6415 10.1409C25.6415 10.3461 25.5902 10.3973 25.5902 10.3973H25.1286C24.2056 10.3973 23.2312 10.7563 23.2312 11.9871C23.2312 12.9615 23.8466 13.1666 24.2568 13.1666C24.9748 13.1666 25.3338 12.705 25.385 12.705L25.3338 13.1153H26.3081L26.7184 10.1922C26.7184 8.91017 25.5902 8.85889 25.2312 8.85889ZM25.4876 11.2179C25.4876 11.3717 25.385 12.2435 24.7697 12.2435C24.462 12.2435 24.3594 11.9871 24.3594 11.8332C24.3594 11.5768 24.5133 11.2179 25.3338 11.2179C25.4363 11.2179 25.4363 11.2179 25.4876 11.2179Z" fill="white"/>
<path d="M27.5389 13.1153C27.8466 11.3717 27.8978 9.93578 28.6671 10.1922C28.7696 9.52553 28.9235 9.21784 29.026 8.96143H28.8209C28.3594 8.96143 27.9491 9.57681 27.9491 9.57681L28.0517 9.01271H27.026L26.3594 13.1153H27.5389Z" fill="white"/>
</svg>
