<svg width="66" height="21" viewBox="0 0 66 21" fill="none" xmlns="http://www.w3.org/2000/svg">
<path d="M61.4032 0.785645H57.308C56.0699 0.785645 55.1175 1.1666 54.5461 2.40469L46.7366 20.2142H52.2604C52.2604 20.2142 53.2128 17.8333 53.4032 17.2618C53.9747 17.2618 59.4032 17.2618 60.1651 17.2618C60.3556 17.9285 60.8318 20.119 60.8318 20.119H65.7842L61.4032 0.785645ZM54.927 13.2618C55.4032 12.119 57.0223 7.83326 57.0223 7.83326C57.0223 7.9285 57.4985 6.69041 57.689 6.02374L58.0699 7.73803C58.0699 7.73803 59.1175 12.4047 59.308 13.3571H54.927V13.2618Z" fill="#3362AB"/>
<path d="M47.1175 13.8333C47.1175 17.8333 43.4984 20.5 37.8794 20.5C35.4984 20.5 33.2127 20.0238 31.9746 19.4524L32.7365 15.0714L33.4032 15.3571C35.1175 16.119 36.2603 16.4048 38.3556 16.4048C39.8794 16.4048 41.4984 15.8333 41.4984 14.5C41.4984 13.6429 40.8318 13.0714 38.7365 12.119C36.7365 11.1667 34.0698 9.64286 34.0698 6.88095C34.0698 3.07143 37.7841 0.5 43.0222 0.5C45.0222 0.5 46.7365 0.880952 47.7841 1.35714L47.0222 5.54762L46.6413 5.16667C45.6889 4.78571 44.4508 4.40476 42.6413 4.40476C40.6413 4.5 39.6889 5.35714 39.6889 6.11905C39.6889 6.97619 40.8317 7.64286 42.6413 8.5C45.6889 9.92857 47.1175 11.5476 47.1175 13.8333Z" fill="#3362AB"/>
<path d="M0.641357 0.976167L0.736596 0.595215H8.92707C10.0699 0.595215 10.9271 0.976167 11.2128 2.21426L13.0223 10.7857C11.2128 6.21426 7.02231 2.49998 0.641357 0.976167Z" fill="#F9B50B"/>
<path d="M24.5461 0.785668L16.2603 20.119H10.6413L5.87939 3.92853C9.30797 6.119 12.1651 9.54757 13.2127 11.9285L13.7842 13.9285L18.927 0.69043H24.5461V0.785668Z" fill="#3362AB"/>
<path d="M26.7364 0.69043H31.9745L28.6412 20.119H23.4031L26.7364 0.69043Z" fill="#3362AB"/>
</svg>
