<svg width="34" height="21" viewBox="0 0 34 21" fill="none" xmlns="http://www.w3.org/2000/svg">
<path d="M17.4684 17.8685C19.4683 16.0264 20.7315 13.3948 20.7315 10.5001C20.7315 7.55272 19.4683 4.92114 17.4684 3.13168C15.6789 1.55273 13.3631 0.552734 10.7842 0.552734C5.25785 0.552734 0.78418 5.02641 0.78418 10.5001C0.78418 16.0264 5.25785 20.5001 10.7842 20.5001C13.3631 20.4474 15.6789 19.4474 17.4684 17.8685Z" fill="#3362AB"/>
<path d="M17.4685 17.8682C19.4685 16.0261 20.7317 13.3945 20.7317 10.4997C20.7317 7.55239 19.4685 4.92082 17.4685 3.13135" fill="#3362AB"/>
<path d="M17.4685 17.8682C19.4685 16.0261 20.7317 13.3945 20.7317 10.4997C20.7317 7.55239 19.4685 4.92082 17.4685 3.13135" stroke="#3362AB" stroke-width="0.3097"/>
<path d="M24.1525 0.5C21.5735 0.5 19.2051 1.49999 17.4683 3.07894C17.0999 3.39473 16.7841 3.76315 16.4683 4.13157H18.4683C18.7314 4.44735 18.9946 4.81577 19.2051 5.18419H15.6788C15.4683 5.49998 15.2578 5.8684 15.0999 6.23682H19.7841C19.942 6.60524 20.0999 6.92103 20.2051 7.28945H14.6788C14.5736 7.65787 14.4683 7.97366 14.363 8.34208H20.4683C20.6262 9.02629 20.6788 9.7105 20.6788 10.4473C20.6788 11.5526 20.5209 12.6052 20.1525 13.6052H14.6262C14.7315 13.9736 14.8893 14.3421 15.0472 14.6579H19.7314C19.5735 15.0263 19.363 15.3947 19.1525 15.7105H15.6262C15.8367 16.0789 16.0999 16.4473 16.363 16.7631H18.363C18.0472 17.1315 17.7314 17.5 17.363 17.8157C19.1525 19.3947 21.4683 20.3947 24.0472 20.3947C29.5735 20.3947 33.9946 15.921 33.9946 10.3947C34.1525 4.97367 29.6788 0.5 24.1525 0.5Z" fill="#C9191B"/>
<path d="M9.52099 12.9213H8.25783L8.99467 9.02654L7.31047 12.9213H6.20521L5.99469 9.07918L5.25784 12.9213H4.15259L5.09995 7.86865H7.04732L7.15257 11.0265L8.52099 7.86865H10.521L9.52099 12.9213Z" fill="white"/>
<path d="M23.4157 12.9214C23.0999 13.0266 22.7841 13.0793 22.521 13.0793C21.8894 13.0793 21.521 12.7635 21.521 12.1845C21.521 12.0793 21.521 11.9214 21.5736 11.8161L21.6262 11.3951L21.6789 11.0793L22.2578 7.92139H23.4683L23.3105 8.86875H23.942L23.7841 9.86876H23.1526L22.8368 11.6056C22.8368 11.6582 22.8368 11.7635 22.8368 11.7635C22.8368 11.974 22.9947 12.0793 23.2578 12.0793C23.4157 12.0793 23.521 12.0793 23.5736 12.0266L23.4157 12.9214Z" fill="white"/>
<path d="M26.9946 8.86806C26.8893 8.81542 26.8893 8.81543 26.8367 8.81543C26.784 8.81543 26.7314 8.81543 26.7314 8.81543C26.6788 8.81543 26.6261 8.81543 26.5735 8.81543C26.1524 8.81543 25.8893 8.97332 25.4682 9.49963L25.5735 8.86806H24.5735L23.8367 12.9733H25.0998C25.5209 10.447 25.7314 10.0259 26.3103 10.0259C26.363 10.0259 26.4156 10.0259 26.4682 10.0259L26.6261 10.0786L26.9946 8.86806Z" fill="white"/>
<path d="M18.4683 10.1316C18.4683 10.6579 18.7841 11.0263 19.4157 11.2895C19.942 11.5 19.9946 11.5526 19.9946 11.7632C19.9946 12.0263 19.7841 12.1316 19.2578 12.1316C18.8894 12.1316 18.5209 12.079 18.1525 11.9737L17.9946 12.9211H18.0473L18.2578 12.9737C18.3104 12.9737 18.4683 13.0263 18.5736 13.0263C18.8894 13.0263 19.0999 13.079 19.2578 13.079C20.5736 13.079 21.2052 12.6579 21.2052 11.7105C21.2052 11.1316 20.942 10.8158 20.3104 10.5526C19.7841 10.3421 19.7315 10.2895 19.7315 10.079C19.7315 9.86844 19.942 9.76318 20.363 9.76318C20.6262 9.76318 20.942 9.76318 21.2578 9.81581L21.4157 8.86844C21.0999 8.81581 20.6262 8.76318 20.3104 8.76318C18.942 8.76318 18.4683 9.39476 18.4683 10.1316Z" fill="white"/>
<path d="M12.6789 11.1316C12.521 11.1316 12.4684 11.1316 12.4157 11.1316C11.7315 11.1316 11.3631 11.3421 11.3631 11.7632C11.3631 12.0263 11.521 12.1842 11.7842 12.1842C12.2578 12.1316 12.6263 11.7105 12.6789 11.1316ZM13.5736 12.9211H12.521L12.5736 12.5C12.2578 12.8158 11.8368 12.9737 11.2579 12.9737C10.5736 12.9737 10.1526 12.5 10.1526 11.8684C10.1526 10.8684 10.9421 10.2895 12.3105 10.2895C12.4684 10.2895 12.6263 10.2895 12.8368 10.3421C12.8894 10.1842 12.8894 10.1316 12.8894 10.079C12.8894 9.81581 12.6789 9.71055 12.0999 9.71055C11.7315 9.71055 11.3631 9.76318 11.0999 9.81581L10.9421 9.86845L10.8368 9.92107L10.9947 8.97371C11.6263 8.81581 11.9947 8.76318 12.4684 8.76318C13.521 8.76318 14.0999 9.18424 14.0999 9.97371C14.0999 10.1842 14.0999 10.3421 13.9947 10.7632L13.7315 12.2369L13.6789 12.5L13.6263 12.7105V12.8684L13.5736 12.9211Z" fill="white"/>
<path d="M16.9947 10.3947C16.9947 10.2894 16.9947 10.2368 16.9947 10.1841C16.9947 9.86834 16.7841 9.65782 16.4157 9.65782C15.9947 9.65782 15.7315 9.92098 15.6262 10.3947H16.9947ZM17.6262 12.8683C17.2052 12.9736 16.7841 13.0262 16.3631 13.0262C14.9947 13.0262 14.2578 12.3947 14.2578 11.1841C14.2578 9.76308 15.1526 8.71045 16.4157 8.71045C17.4157 8.71045 18.0999 9.2894 18.0999 10.1841C18.0999 10.4999 18.0473 10.7631 17.942 11.1841H15.4683C15.4683 11.2368 15.4683 11.2894 15.4683 11.2894C15.4683 11.7631 15.8368 12.0262 16.5736 12.0262C16.9946 12.0262 17.4157 11.921 17.8894 11.7631L17.6262 12.8683Z" fill="white"/>
<path d="M29.5736 10.5526C29.5736 10.1316 29.4157 9.71055 28.8894 9.71055C28.2578 9.71055 27.8894 10.4474 27.8894 11.1316C27.8894 11.7105 28.1526 12.079 28.6263 12.079C28.8894 12.079 29.4684 11.7105 29.5736 11.079C29.5736 10.9211 29.5736 10.7105 29.5736 10.5526ZM30.8894 11.079C30.6789 12.4474 29.7315 13.079 28.4683 13.079C27.0473 13.079 26.521 12.2369 26.521 11.1842C26.521 9.71055 27.4683 8.76318 28.942 8.76318C30.2578 8.76318 30.8894 9.55266 30.8894 10.6053C30.942 10.8158 30.942 10.8158 30.8894 11.079Z" fill="white"/>
</svg>
