<svg width="83" height="21" viewBox="0 0 83 21" fill="none" xmlns="http://www.w3.org/2000/svg">
<path d="M32.1099 9.07167C31.8983 10.659 30.6284 10.659 29.4644 10.659H28.8295L29.3586 7.59019C29.3586 7.37855 29.5702 7.27273 29.7819 7.27273H30.0993C30.9459 7.27273 31.6866 7.27273 32.1099 7.69601C32.1099 8.11929 32.1099 8.54257 32.1099 9.07167ZM31.5808 4.83887H27.0305C26.7131 4.83887 26.5015 5.05051 26.3956 5.36797L24.5967 17.0082C24.5967 17.2198 24.7025 17.4315 25.02 17.4315H27.1364C27.4538 17.4315 27.6655 17.2198 27.7713 16.9024L28.3004 13.7278C28.3004 13.4103 28.6178 13.1987 28.9353 13.1987H30.4168C33.3797 13.1987 35.0729 11.7172 35.602 8.86003C35.8136 7.59019 35.602 6.63781 35.0729 5.89707C34.2263 5.26215 33.0623 4.83887 31.5808 4.83887Z" fill="#263577"/>
<path d="M42.057 13.3043C41.8454 14.5741 40.893 15.4207 39.6231 15.4207C38.9882 15.4207 38.4591 15.2091 38.1417 14.7858C37.8242 14.3625 37.7184 13.8334 37.8242 13.3043C38.0358 12.0345 38.9882 11.1879 40.2581 11.1879C40.893 11.1879 41.4221 11.3995 41.7395 11.8228C41.9512 12.1403 42.1628 12.6694 42.057 13.3043ZM45.02 9.0715H42.9036C42.6919 9.0715 42.5861 9.17732 42.4803 9.38896L42.3745 10.0239L42.2686 9.81225C41.8454 9.17733 40.7872 8.85986 39.729 8.85986C37.2951 8.85986 35.2845 10.6588 34.8612 13.1985C34.6496 14.4683 34.967 15.6323 35.7078 16.4789C36.3427 17.2197 37.2951 17.5371 38.4591 17.5371C40.3639 17.5371 41.4221 16.2673 41.4221 16.2673L41.3163 16.9022C41.3163 17.1138 41.4221 17.3255 41.7395 17.3255H43.6443C43.9618 17.3255 44.1734 17.1138 44.2792 16.7964L45.4433 9.38896C45.4433 9.28314 45.3374 9.0715 45.02 9.0715Z" fill="#263577"/>
<path d="M56.5543 9.07129H54.3321C54.1205 9.07129 53.9088 9.17711 53.803 9.38875L50.84 13.8332L49.5702 9.60039C49.4644 9.28293 49.2527 9.17711 48.9353 9.17711H46.8189C46.6072 9.17711 46.3956 9.38875 46.5014 9.70621L48.9353 16.6903L46.713 19.8649C46.5014 20.0766 46.7131 20.4999 47.0305 20.4999H49.2527C49.4644 20.4999 49.676 20.394 49.7818 20.1824L56.9776 9.70621C57.0834 9.38875 56.8718 9.07129 56.5543 9.07129Z" fill="#263577"/>
<path d="M64.2791 9.07167C64.0675 10.659 62.7976 10.659 61.6336 10.659H60.9987L61.5278 7.59019C61.5278 7.37855 61.7394 7.27273 61.9511 7.27273H62.2685C63.1151 7.27273 63.8558 7.27273 64.2791 7.69601C64.3849 8.11929 64.3849 8.54257 64.2791 9.07167ZM63.75 4.83887H59.1998C58.8823 4.83887 58.6706 5.05051 58.5648 5.36797L56.7659 17.0082C56.7659 17.2198 56.8717 17.4315 57.1892 17.4315H59.5172C59.7288 17.4315 59.9405 17.3256 59.9405 17.0082L60.4696 13.7278C60.4696 13.4103 60.787 13.1987 61.1045 13.1987H62.586C65.5489 13.1987 67.2421 11.7172 67.7712 8.86003C67.9828 7.59019 67.7712 6.63781 67.2421 5.89707C66.5013 5.26215 65.3373 4.83887 63.75 4.83887Z" fill="#2199D6"/>
<path d="M74.3321 13.3043C74.1205 14.5741 73.1681 15.4207 71.8983 15.4207C71.2634 15.4207 70.7343 15.2091 70.4168 14.7858C70.0994 14.3625 69.9935 13.8334 70.0993 13.3043C70.311 12.0345 71.2634 11.1879 72.5332 11.1879C73.1681 11.1879 73.6972 11.3995 74.0147 11.8228C74.2263 12.1403 74.438 12.6694 74.3321 13.3043ZM77.2951 9.0715H75.1787C74.9671 9.0715 74.8612 9.17732 74.7554 9.38896L74.6496 10.0239L74.5438 9.81225C74.1205 9.17733 73.0623 8.85986 72.0041 8.85986C69.5703 8.85986 67.5597 10.6588 67.1364 13.1985C66.9247 14.4683 67.2422 15.6323 67.9829 16.4789C68.6179 17.2197 69.5702 17.5371 70.7343 17.5371C72.639 17.5371 73.6972 16.2673 73.6972 16.2673L73.5914 16.9022C73.5914 17.1138 73.6972 17.3255 74.0147 17.3255H75.9194C76.2369 17.3255 76.4486 17.1138 76.5544 16.7964L77.7184 9.38896C77.7184 9.28314 77.5068 9.0715 77.2951 9.0715Z" fill="#2199D6"/>
<path d="M79.8347 5.15633L77.9299 17.0082C77.9299 17.2198 78.0358 17.4315 78.3532 17.4315H80.258C80.5754 17.4315 80.7871 17.2198 80.8929 16.9024L82.6918 5.26215C82.6918 5.05051 82.586 4.83887 82.2686 4.83887H80.1522C80.0463 4.83887 79.9405 5.05051 79.8347 5.15633Z" fill="#2199D6"/>
<path d="M5.76078 19.6538L6.07823 17.4316H5.33749H1.63379L4.17348 1.24107C4.17348 1.24107 4.17347 1.13525 4.27929 1.13525H4.38512H10.6285C12.6391 1.13525 14.1206 1.55854 14.8613 2.4051C15.1788 2.82838 15.3904 3.25166 15.4962 3.67494C15.602 4.20404 15.602 4.73314 15.4962 5.47388V5.89716L15.8137 6.1088C16.1312 6.21462 16.3428 6.42626 16.5544 6.6379C16.8719 6.95536 17.0835 7.37864 17.0835 7.90774C17.1893 8.43684 17.1893 9.07176 16.9777 9.8125C16.7661 10.6591 16.5544 11.294 16.237 11.9289C15.9195 12.458 15.4962 12.8813 15.0729 13.3046C14.6497 13.622 14.0147 13.8337 13.4856 14.0453C12.8507 14.1511 12.2158 14.2569 11.4751 14.2569H10.946C10.6285 14.2569 10.311 14.3628 9.99359 14.5744C9.78195 14.786 9.57031 15.1035 9.46449 15.421V15.6326L8.82956 19.548V19.6538V19.7596C8.82956 19.7596 8.82955 19.7596 8.72373 19.7596H5.76078V19.6538Z" fill="#263577"/>
<path d="M16.2368 5.47363C16.2368 5.57945 16.2368 5.68528 16.131 5.7911C15.2845 10.0239 12.5331 11.3996 8.93526 11.3996H7.13631C6.71303 11.3996 6.28976 11.717 6.28976 12.1403L5.33737 18.0662L5.12573 19.7593C5.12573 20.0768 5.33737 20.2884 5.54901 20.2884H8.82944C9.25272 20.2884 9.57017 19.971 9.57017 19.6535V19.4419L10.2051 15.6324V15.4207C10.3109 14.9974 10.6284 14.7858 10.9458 14.7858H11.4749C14.6495 14.7858 17.0834 13.516 17.7183 9.81226C18.0358 8.22496 17.8241 6.95512 17.0834 6.10856C16.8718 5.89692 16.5543 5.68527 16.2368 5.47363Z" fill="#2199D6"/>
<path d="M15.3903 5.15633C15.2845 5.15633 15.1787 5.05051 14.967 5.05051C14.8612 5.05051 14.6496 4.94469 14.5437 4.94469C14.0146 4.83887 13.4855 4.83887 12.9564 4.83887H8.08873C7.98291 4.83887 7.87709 4.83887 7.77127 4.94469C7.55963 5.05051 7.348 5.26215 7.348 5.47379L6.28979 12.0346V12.2463C6.39562 11.823 6.71306 11.5055 7.13634 11.5055H8.9353C12.5332 11.5055 15.2845 10.0241 16.1311 5.89707C16.1311 5.79125 16.1311 5.68543 16.2369 5.57961C16.0252 5.47379 15.8136 5.36797 15.602 5.26215C15.4961 5.15633 15.3903 5.15633 15.3903 5.15633Z" fill="#252C5E"/>
<path d="M7.34799 5.47354C7.34799 5.2619 7.55962 5.05026 7.77126 4.94444C7.87708 4.94444 7.9829 4.83862 8.08872 4.83862H12.9564C13.4855 4.83862 14.1205 4.83862 14.5437 4.94444C14.6496 4.94444 14.8612 4.94444 14.967 5.05026C15.0728 5.05026 15.1787 5.15608 15.3903 5.15608C15.4961 5.15608 15.4961 5.15608 15.6019 5.2619C15.8136 5.36772 16.0252 5.47354 16.2369 5.57936C16.4485 3.99206 16.2369 2.93386 15.3903 1.98148C14.4379 0.923278 12.7448 0.5 10.6284 0.5H4.38502C3.96174 0.5 3.53846 0.817457 3.53846 1.24074L0.998779 17.537C0.998779 17.8545 1.21042 18.172 1.52788 18.172H5.33739L6.28978 12.0344L7.34799 5.47354Z" fill="#263577"/>
</svg>
