<svg width="16" height="13" viewBox="0 0 16 13" fill="none" xmlns="http://www.w3.org/2000/svg">
<path d="M13.25 11.125H4.0625C2.83203 11.125 1.875 10.168 1.875 8.9375V3.25H1.4375C0.699219 3.25 0.125 3.85156 0.125 4.5625V11.5625C0.125 12.3008 0.699219 12.875 1.4375 12.875H11.9375C12.6484 12.875 13.25 12.3008 13.25 11.5625V11.125ZM15.875 8.9375V1.9375C15.875 1.22656 15.2734 0.625 14.5625 0.625H4.0625C3.32422 0.625 2.75 1.22656 2.75 1.9375V8.9375C2.75 9.67578 3.32422 10.25 4.0625 10.25H14.5625C15.2734 10.25 15.875 9.67578 15.875 8.9375ZM7.125 3.25C7.125 3.98828 6.52344 4.5625 5.8125 4.5625C5.07422 4.5625 4.5 3.98828 4.5 3.25C4.5 2.53906 5.07422 1.9375 5.8125 1.9375C6.52344 1.9375 7.125 2.53906 7.125 3.25ZM4.5 7.1875L6.00391 5.68359C6.14062 5.54688 6.33203 5.54688 6.46875 5.68359L7.5625 6.75L11.2539 3.05859C11.3906 2.92188 11.582 2.92188 11.7188 3.05859L14.125 5.4375V8.5H4.5V7.1875Z" fill="white"/>
</svg>
