<svg width="54" height="55" viewBox="0 0 54 55" fill="none" xmlns="http://www.w3.org/2000/svg">
<path d="M42.1474 34.582C43.0472 34.9735 43.4328 36.2785 43.4328 36.931C43.5613 37.975 43.3043 38.497 42.9186 38.497C42.533 38.497 42.0188 38.1055 41.5047 37.192C40.9905 36.2785 40.7334 35.365 40.9905 34.843C41.3761 34.582 41.7618 34.4515 42.1474 34.582Z" fill="#F28A1A"/>
<path d="M36.8772 38.6274C37.3914 38.6274 38.0341 38.8884 38.6768 39.4104C39.7051 40.324 40.0907 41.368 39.5766 42.151C39.3195 42.5425 38.6768 42.8035 38.1626 42.8035C37.5199 42.8035 36.8772 42.5425 36.4916 42.151C35.4632 41.2375 35.2062 39.9324 35.8489 39.1494C35.9774 38.8884 36.363 38.6274 36.8772 38.6274Z" fill="#F28A1A"/>
<path d="M24.6657 48.9368C11.2975 48.9368 0.5 37.9747 0.5 24.5332C0.5 11.0916 11.2975 -0.000976562 24.6657 -0.000976562C38.034 -0.000976562 48.8315 10.9611 48.8315 24.5332C48.8315 29.1007 47.5461 33.4072 45.4894 37.0612C45.3609 37.1917 45.2323 37.1917 45.2323 36.9307C44.3326 30.9277 40.7334 27.6652 35.5918 26.6212C35.0776 26.4907 35.0776 26.2297 35.7203 26.2297C37.3913 26.0992 39.5765 26.0992 40.8619 26.3602C40.9905 25.7077 40.9905 25.0552 40.9905 24.5332C40.9905 15.6591 33.7922 8.35107 25.0514 8.35107C16.3106 8.35107 9.11226 15.6591 9.11226 24.5332C9.11226 33.4072 16.3106 40.7153 25.0514 40.7153H25.8226C25.5655 39.2797 25.437 37.8442 25.5655 36.2782C25.5655 35.2342 25.8226 35.1037 26.2082 35.8867C28.3934 39.8017 31.607 43.1948 37.777 44.6303C42.7901 45.8048 47.8032 47.1098 53.3304 54.0263C53.8446 54.6788 53.0734 55.3313 52.5592 54.8093C47.0319 49.8503 42.0188 48.1538 37.3913 48.1538C31.607 48.2843 28.1364 48.9368 24.6657 48.9368Z" fill="#F28A1A"/>
</svg>
