<svg width="20" height="16" viewBox="0 0 20 16" fill="none" xmlns="http://www.w3.org/2000/svg">
<path d="M7 7.99902C9.1875 7.99902 11 6.21777 11 3.99902C11 1.81152 9.1875 -0.000976562 7 -0.000976562C4.78125 -0.000976562 3 1.81152 3 3.99902C3 6.21777 4.78125 7.99902 7 7.99902ZM9.78125 8.99902H9.25C8.5625 9.34277 7.8125 9.49902 7 9.49902C6.1875 9.49902 5.40625 9.34277 4.71875 8.99902H4.1875C1.875 8.99902 0 10.9053 0 13.2178V14.499C0 15.3428 0.65625 15.999 1.5 15.999H12.5C13.3125 15.999 14 15.3428 14 14.499V13.2178C14 10.9053 12.0938 8.99902 9.78125 8.99902ZM19.875 4.99902L19 4.12402C18.875 3.96777 18.625 3.96777 18.5 4.12402L15.2188 7.37402L13.7812 5.93652C13.6562 5.78027 13.4062 5.78027 13.25 5.93652L12.375 6.81152C12.25 6.93652 12.25 7.18652 12.375 7.34277L14.9375 9.90527C15.0938 10.0615 15.3125 10.0615 15.4688 9.90527L19.875 5.53027C20.0312 5.37402 20.0312 5.15527 19.875 4.99902Z" fill="#6DB624"/>
</svg>
