<svg width="15" height="15" viewBox="0 0 15 15" fill="none" xmlns="http://www.w3.org/2000/svg">
<path d="M14.7656 7.375C14.7656 3.39062 11.4844 0.109375 7.5 0.109375C3.48633 0.109375 0.234375 3.39062 0.234375 7.375C0.234375 11.3887 3.48633 14.6406 7.5 14.6406C11.4844 14.6406 14.7656 11.3887 14.7656 7.375ZM6.65039 11.2422C6.47461 11.418 6.15234 11.418 5.97656 11.2422L2.92969 8.19531C2.75391 8.01953 2.75391 7.69727 2.92969 7.52148L3.60352 6.87695C3.7793 6.67188 4.07227 6.67188 4.24805 6.87695L6.32812 8.92773L10.7227 4.5332C10.8984 4.32812 11.1914 4.32812 11.3672 4.5332L12.041 5.17773C12.2168 5.35352 12.2168 5.67578 12.041 5.85156L6.65039 11.2422Z" fill="#6DB624"/>
</svg>
