<svg width="30" height="31" viewBox="0 0 30 31" fill="none" xmlns="http://www.w3.org/2000/svg">
<path d="M9.55078 13.769C9.25781 13.4761 8.78906 13.4761 8.55469 13.769L7.20703 15.0581C6.91406 15.3511 6.91406 15.8198 7.20703 16.0542L12.5391 21.4448C12.7734 21.7378 13.2422 21.7378 13.5352 21.4448L23.6133 11.4253C23.9062 11.1323 23.9062 10.6636 23.6133 10.4292L22.3242 9.08154C22.0312 8.78857 21.6211 8.78857 21.3281 9.08154L13.0664 17.2847L9.55078 13.769ZM27.3047 5.15576L16.0547 0.468262C15.7617 0.351074 15.293 0.29248 15 0.29248C14.6484 0.29248 14.1797 0.351074 13.8867 0.468262L2.63672 5.15576C1.58203 5.62451 0.9375 6.62061 0.9375 7.73389C0.9375 19.394 7.61719 27.4214 13.8867 30.0581C14.5898 30.3511 15.3516 30.3511 16.0547 30.0581C21.0938 27.9487 29.0625 20.7417 29.0625 7.73389C29.0625 6.62061 28.3594 5.62451 27.3047 5.15576ZM15 27.4214C9.25781 25.0776 3.75 17.6948 3.75 7.73389L15 3.04639L26.25 7.73389C26.25 17.9292 20.4492 25.1362 15 27.4214Z"/>
</svg>
