<svg width="24" height="24" viewBox="0 0 24 24" fill="none" xmlns="http://www.w3.org/2000/svg">
<path d="M11.625 0.375C5.20312 0.375 0 5.57812 0 12C0 18.4219 5.20312 23.625 11.625 23.625C18.0469 23.625 23.25 18.4219 23.25 12C23.25 5.57812 18.0469 0.375 11.625 0.375ZM11.625 22.125C6 22.125 1.5 17.625 1.5 12C1.5 6.42188 6 1.875 11.625 1.875C17.2031 1.875 21.75 6.42188 21.75 12C21.75 17.625 17.2031 22.125 11.625 22.125ZM15.8438 15.2812C14.7656 16.5469 13.2188 17.25 11.625 17.25C9.98438 17.25 8.4375 16.5469 7.35938 15.2812C7.125 14.9531 6.65625 14.9531 6.32812 15.1875C6 15.4688 5.95312 15.9375 6.23438 16.2656C7.54688 17.8594 9.51562 18.75 11.625 18.75C13.6875 18.75 15.6562 17.8594 16.9688 16.2656C17.25 15.9375 17.2031 15.4688 16.875 15.1875C16.5938 14.9531 16.0781 14.9531 15.8438 15.2812ZM7.875 11.25C8.67188 11.25 9.375 10.5938 9.375 9.75C9.375 8.95312 8.67188 8.25 7.875 8.25C7.03125 8.25 6.375 8.95312 6.375 9.75C6.375 10.5938 7.03125 11.25 7.875 11.25ZM15.375 11.25C16.1719 11.25 16.875 10.5938 16.875 9.75C16.875 8.95312 16.1719 8.25 15.375 8.25C14.5312 8.25 13.875 8.95312 13.875 9.75C13.875 10.5938 14.5312 11.25 15.375 11.25Z" fill="#999999"/>
</svg>
