<svg width="12" height="11" viewBox="0 0 12 11" fill="none" xmlns="http://www.w3.org/2000/svg">
<path d="M11.1429 4.04687C11.1429 3.84598 10.9286 3.76562 10.7679 3.73884L7.40625 3.25L5.89955 0.203124C5.83929 0.0758924 5.72545 -0.0714288 5.57143 -0.0714288C5.41741 -0.0714288 5.30357 0.0758924 5.2433 0.203124L3.73661 3.25L0.375 3.73884C0.207589 3.76562 0 3.84598 0 4.04687C0 4.16741 0.0870536 4.28125 0.167411 4.3683L2.60491 6.73884L2.02902 10.0871C2.02232 10.1339 2.01563 10.1741 2.01563 10.221C2.01563 10.3951 2.10268 10.5558 2.29688 10.5558C2.39063 10.5558 2.47768 10.5223 2.56473 10.4754L5.57143 8.89509L8.57813 10.4754C8.65848 10.5223 8.75223 10.5558 8.84598 10.5558C9.04018 10.5558 9.12054 10.3951 9.12054 10.221C9.12054 10.1741 9.12054 10.1339 9.11384 10.0871L8.53795 6.73884L10.9688 4.3683C11.0558 4.28125 11.1429 4.16741 11.1429 4.04687Z"/>
</svg>
