<svg width="40" height="41" viewBox="0 0 40 41" fill="none" xmlns="http://www.w3.org/2000/svg">
<path d="M36.25 0.390625L1.25 20.5469C-0.546875 21.5625 -0.390625 24.2188 1.48438 25L12.5 29.5312V37.5C12.5 39.9219 15.3906 40.9375 16.875 39.1406L21.6406 33.3594L31.4844 37.4219C32.9688 38.0469 34.6875 37.1094 34.9219 35.4688L39.9219 2.89062C40.2344 0.859375 38.0469 -0.703125 36.25 0.390625ZM15 37.5V30.625L19.2188 32.3438L15 37.5ZM32.5 35.1562L16.3281 28.4375L31.9531 10.0781C32.3438 9.60938 31.7188 8.98438 31.25 9.375L11.3281 26.4062L2.5 22.7344L37.5 2.5L32.5 35.1562Z" fill="white"/>
</svg>
