<svg width="20" height="17" viewBox="0 0 20 17" fill="none" xmlns="http://www.w3.org/2000/svg">
<path d="M19.625 2.25391L16.7031 15.918C16.474 16.8919 15.944 17.1497 15.1133 16.6914L10.6875 13.4258L8.53906 15.4883C8.2526 15.7747 7.95182 15.918 7.63672 15.918L7.98047 11.4062L16.1875 4.01562C16.388 3.8151 16.388 3.70052 16.1875 3.67188C16.0156 3.61458 15.8294 3.65755 15.6289 3.80078L5.48828 10.2031L1.10547 8.82812C0.61849 8.6849 0.389323 8.47005 0.417969 8.18359C0.446615 7.89714 0.747396 7.65365 1.32031 7.45312L18.3789 0.835938C18.8086 0.692708 19.1523 0.75 19.4102 1.00781C19.668 1.23698 19.7396 1.65234 19.625 2.25391Z" fill="#AAAAAA"/>
</svg>
