<svg width="15" height="16" viewBox="0 0 15 16" fill="none" xmlns="http://www.w3.org/2000/svg">
<path d="M14.7656 7.875C14.7656 3.89062 11.4844 0.609375 7.5 0.609375C3.48633 0.609375 0.234375 3.89062 0.234375 7.875C0.234375 11.8887 3.48633 15.1406 7.5 15.1406C11.4844 15.1406 14.7656 11.8887 14.7656 7.875ZM6.65039 11.7422C6.47461 11.918 6.15234 11.918 5.97656 11.7422L2.92969 8.69531C2.75391 8.51953 2.75391 8.19727 2.92969 8.02148L3.60352 7.37695C3.7793 7.17188 4.07227 7.17188 4.24805 7.37695L6.32812 9.42773L10.7227 5.0332C10.8984 4.82812 11.1914 4.82812 11.3672 5.0332L12.041 5.67773C12.2168 5.85352 12.2168 6.17578 12.041 6.35156L6.65039 11.7422Z" fill="#6DB624"/>
</svg>
