<svg width="18" height="18" viewBox="0 0 18 18" fill="none" xmlns="http://www.w3.org/2000/svg">
<path d="M15.875 17.749C16.8906 17.749 17.75 16.9287 17.75 15.874V2.12402C17.75 1.1084 16.8906 0.249023 15.875 0.249023H2.125C1.07031 0.249023 0.25 1.1084 0.25 2.12402V15.874C0.25 16.9287 1.07031 17.749 2.125 17.749H15.875ZM7.86719 13.9209C7.63281 14.1943 7.20312 14.1943 6.96875 13.9209L2.90625 9.8584C2.67188 9.62402 2.67188 9.2334 2.90625 8.99902L3.80469 8.10059C4.03906 7.86621 4.42969 7.86621 4.66406 8.10059L7.4375 10.835L13.2969 4.97559C13.5312 4.74121 13.9219 4.74121 14.1562 4.97559L15.0547 5.87402C15.2891 6.1084 15.2891 6.49902 15.0547 6.7334L7.86719 13.9209Z" fill="#999999"/>
</svg>
