<svg width="18" height="19" viewBox="0 0 18 19" fill="none" xmlns="http://www.w3.org/2000/svg">
<path d="M15.875 18.249C16.8906 18.249 17.75 17.4287 17.75 16.374V2.62402C17.75 1.6084 16.8906 0.749023 15.875 0.749023H2.125C1.07031 0.749023 0.25 1.6084 0.25 2.62402V16.374C0.25 17.4287 1.07031 18.249 2.125 18.249H15.875ZM7.86719 14.4209C7.63281 14.6943 7.20312 14.6943 6.96875 14.4209L2.90625 10.3584C2.67188 10.124 2.67188 9.7334 2.90625 9.49902L3.80469 8.60059C4.03906 8.36621 4.42969 8.36621 4.66406 8.60059L7.4375 11.335L13.2969 5.47559C13.5312 5.24121 13.9219 5.24121 14.1562 5.47559L15.0547 6.37402C15.2891 6.6084 15.2891 6.99902 15.0547 7.2334L7.86719 14.4209Z" fill="#6DB624"/>
</svg>
