<svg width="20" height="22" viewBox="0 0 20 22" fill="none" xmlns="http://www.w3.org/2000/svg">
<path d="M17.5625 11H6.90625V6.57422C6.90625 4.89844 8.23828 3.48047 9.95703 3.4375C11.6758 3.4375 13.0938 4.85547 13.0938 6.53125V7.21875C13.0938 7.82031 13.5234 8.25 14.125 8.25H15.5C16.0586 8.25 16.5312 7.82031 16.5312 7.21875V6.53125C16.5312 2.92188 13.5664 0 9.95703 0C6.34766 0.0429688 3.46875 3.00781 3.46875 6.61719V11H2.4375C1.27734 11 0.375 11.9453 0.375 13.0625V19.9375C0.375 21.0977 1.27734 22 2.4375 22H17.5625C18.6797 22 19.625 21.0977 19.625 19.9375V13.0625C19.625 11.9453 18.6797 11 17.5625 11ZM11.7188 17.5312C11.7188 18.5195 10.9453 19.25 10 19.25C9.01172 19.25 8.28125 18.5195 8.28125 17.5312V15.4688C8.28125 14.5234 9.01172 13.75 10 13.75C10.9453 13.75 11.7188 14.5234 11.7188 15.4688V17.5312Z" fill="#6DB624"/>
</svg>
