<svg width="28" height="20" viewBox="0 0 28 20" fill="none" xmlns="http://www.w3.org/2000/svg">
<rect width="28" height="20" rx="2" fill="white"/>
<mask id="mask0" mask-type="alpha" maskUnits="userSpaceOnUse" x="0" y="0" width="28" height="20">
<rect width="28" height="20" rx="2" fill="white"/>
</mask>
<g mask="url(#mask0)">
<path fill-rule="evenodd" clip-rule="evenodd" d="M28 0H0V1.33333H28V0ZM28 2.66667H0V4H28V2.66667ZM0 5.33333H28V6.66667H0V5.33333ZM28 8H0V9.33333H28V8ZM0 10.6667H28V12H0V10.6667ZM28 13.3333H0V14.6667H28V13.3333ZM0 16H28V17.3333H0V16ZM28 18.6667H0V20H28V18.6667Z" fill="#D02F44"/>
<rect width="12" height="9.33333" fill="#46467F"/>
<g filter="url(#filter0_d)">
<path fill-rule="evenodd" clip-rule="evenodd" d="M2.66659 1.99999C2.66659 2.36818 2.36811 2.66666 1.99992 2.66666C1.63173 2.66666 1.33325 2.36818 1.33325 1.99999C1.33325 1.63181 1.63173 1.33333 1.99992 1.33333C2.36811 1.33333 2.66659 1.63181 2.66659 1.99999ZM5.33325 1.99999C5.33325 2.36818 5.03478 2.66666 4.66659 2.66666C4.2984 2.66666 3.99992 2.36818 3.99992 1.99999C3.99992 1.63181 4.2984 1.33333 4.66659 1.33333C5.03478 1.33333 5.33325 1.63181 5.33325 1.99999ZM7.33325 2.66666C7.70144 2.66666 7.99992 2.36818 7.99992 1.99999C7.99992 1.63181 7.70144 1.33333 7.33325 1.33333C6.96506 1.33333 6.66659 1.63181 6.66659 1.99999C6.66659 2.36818 6.96506 2.66666 7.33325 2.66666ZM10.6666 1.99999C10.6666 2.36818 10.3681 2.66666 9.99992 2.66666C9.63173 2.66666 9.33325 2.36818 9.33325 1.99999C9.33325 1.63181 9.63173 1.33333 9.99992 1.33333C10.3681 1.33333 10.6666 1.63181 10.6666 1.99999ZM3.33325 3.99999C3.70144 3.99999 3.99992 3.70152 3.99992 3.33333C3.99992 2.96514 3.70144 2.66666 3.33325 2.66666C2.96506 2.66666 2.66659 2.96514 2.66659 3.33333C2.66659 3.70152 2.96506 3.99999 3.33325 3.99999ZM6.66659 3.33333C6.66659 3.70152 6.36811 3.99999 5.99992 3.99999C5.63173 3.99999 5.33325 3.70152 5.33325 3.33333C5.33325 2.96514 5.63173 2.66666 5.99992 2.66666C6.36811 2.66666 6.66659 2.96514 6.66659 3.33333ZM8.66658 3.99999C9.03477 3.99999 9.33325 3.70152 9.33325 3.33333C9.33325 2.96514 9.03477 2.66666 8.66658 2.66666C8.2984 2.66666 7.99992 2.96514 7.99992 3.33333C7.99992 3.70152 8.2984 3.99999 8.66658 3.99999ZM10.6666 4.66666C10.6666 5.03485 10.3681 5.33333 9.99992 5.33333C9.63173 5.33333 9.33325 5.03485 9.33325 4.66666C9.33325 4.29847 9.63173 3.99999 9.99992 3.99999C10.3681 3.99999 10.6666 4.29847 10.6666 4.66666ZM7.33325 5.33333C7.70144 5.33333 7.99992 5.03485 7.99992 4.66666C7.99992 4.29847 7.70144 3.99999 7.33325 3.99999C6.96506 3.99999 6.66659 4.29847 6.66659 4.66666C6.66659 5.03485 6.96506 5.33333 7.33325 5.33333ZM5.33325 4.66666C5.33325 5.03485 5.03478 5.33333 4.66659 5.33333C4.2984 5.33333 3.99992 5.03485 3.99992 4.66666C3.99992 4.29847 4.2984 3.99999 4.66659 3.99999C5.03478 3.99999 5.33325 4.29847 5.33325 4.66666ZM1.99992 5.33333C2.36811 5.33333 2.66659 5.03485 2.66659 4.66666C2.66659 4.29847 2.36811 3.99999 1.99992 3.99999C1.63173 3.99999 1.33325 4.29847 1.33325 4.66666C1.33325 5.03485 1.63173 5.33333 1.99992 5.33333ZM3.99992 5.99999C3.99992 6.36818 3.70144 6.66666 3.33325 6.66666C2.96506 6.66666 2.66659 6.36818 2.66659 5.99999C2.66659 5.6318 2.96506 5.33333 3.33325 5.33333C3.70144 5.33333 3.99992 5.6318 3.99992 5.99999ZM5.99992 6.66666C6.36811 6.66666 6.66659 6.36818 6.66659 5.99999C6.66659 5.6318 6.36811 5.33333 5.99992 5.33333C5.63173 5.33333 5.33325 5.6318 5.33325 5.99999C5.33325 6.36818 5.63173 6.66666 5.99992 6.66666ZM9.33325 5.99999C9.33325 6.36818 9.03477 6.66666 8.66658 6.66666C8.2984 6.66666 7.99992 6.36818 7.99992 5.99999C7.99992 5.6318 8.2984 5.33333 8.66658 5.33333C9.03477 5.33333 9.33325 5.6318 9.33325 5.99999ZM9.99992 8C10.3681 8 10.6666 7.70152 10.6666 7.33333C10.6666 6.96514 10.3681 6.66666 9.99992 6.66666C9.63173 6.66666 9.33325 6.96514 9.33325 7.33333C9.33325 7.70152 9.63173 8 9.99992 8ZM7.99992 7.33333C7.99992 7.70152 7.70144 8 7.33325 8C6.96506 8 6.66659 7.70152 6.66659 7.33333C6.66659 6.96514 6.96506 6.66666 7.33325 6.66666C7.70144 6.66666 7.99992 6.96514 7.99992 7.33333ZM4.66659 8C5.03478 8 5.33325 7.70152 5.33325 7.33333C5.33325 6.96514 5.03478 6.66666 4.66659 6.66666C4.2984 6.66666 3.99992 6.96514 3.99992 7.33333C3.99992 7.70152 4.2984 8 4.66659 8ZM2.66659 7.33333C2.66659 7.70152 2.36811 8 1.99992 8C1.63173 8 1.33325 7.70152 1.33325 7.33333C1.33325 6.96514 1.63173 6.66666 1.99992 6.66666C2.36811 6.66666 2.66659 6.96514 2.66659 7.33333Z" fill="url(#paint0_linear)"/>
</g>
</g>
<defs>
<filter id="filter0_d" x="1.33325" y="1.33333" width="9.33333" height="7.66667" filterUnits="userSpaceOnUse" color-interpolation-filters="sRGB">
<feFlood flood-opacity="0" result="BackgroundImageFix"/>
<feColorMatrix in="SourceAlpha" type="matrix" values="0 0 0 0 0 0 0 0 0 0 0 0 0 0 0 0 0 0 127 0"/>
<feOffset dy="1"/>
<feColorMatrix type="matrix" values="0 0 0 0 0 0 0 0 0 0 0 0 0 0 0 0 0 0 0.06 0"/>
<feBlend mode="normal" in2="BackgroundImageFix" result="effect1_dropShadow"/>
<feBlend mode="normal" in="SourceGraphic" in2="effect1_dropShadow" result="shape"/>
</filter>
<linearGradient id="paint0_linear" x1="1.33325" y1="1.33333" x2="1.33325" y2="7.99999" gradientUnits="userSpaceOnUse">
<stop stop-color="white"/>
<stop offset="1" stop-color="#F0F0F0"/>
</linearGradient>
</defs>
</svg>
