<svg width="27" height="31" viewBox="0 0 27 31" fill="none" xmlns="http://www.w3.org/2000/svg">
<path d="M13.5 15.75C17.6016 15.75 21 12.4102 21 8.25C21 4.14844 17.6016 0.75 13.5 0.75C9.33984 0.75 6 4.14844 6 8.25C6 12.4102 9.33984 15.75 13.5 15.75ZM18.7148 17.625H17.7188C16.4297 18.2695 15.0234 18.5625 13.5 18.5625C11.9766 18.5625 10.5117 18.2695 9.22266 17.625H8.22656C3.89062 17.625 0.375 21.1992 0.375 25.5352V27.9375C0.375 29.5195 1.60547 30.75 3.1875 30.75H23.8125C25.3359 30.75 26.625 29.5195 26.625 27.9375V25.5352C26.625 21.1992 23.0508 17.625 18.7148 17.625Z"/>
</svg>
