<svg width="21" height="20" viewBox="0 0 21 20" fill="none" xmlns="http://www.w3.org/2000/svg">
<path d="M14.4666 12.375C13.3337 12.375 12.8259 13 10.99 13C9.11499 13 8.60718 12.375 7.47437 12.375C4.58374 12.375 2.23999 14.7578 2.23999 17.6484V18.625C2.23999 19.6797 3.0603 20.5 4.11499 20.5H17.865C18.8806 20.5 19.74 19.6797 19.74 18.625V17.6484C19.74 14.7578 17.3572 12.375 14.4666 12.375ZM17.865 18.625H4.11499V17.6484C4.11499 15.7734 5.59937 14.25 7.47437 14.25C8.0603 14.25 8.95874 14.875 10.99 14.875C12.9822 14.875 13.8806 14.25 14.4666 14.25C16.3416 14.25 17.865 15.7734 17.865 17.6484V18.625ZM10.99 11.75C14.0759 11.75 16.615 9.25 16.615 6.125C16.615 3.03906 14.0759 0.5 10.99 0.5C7.86499 0.5 5.36499 3.03906 5.36499 6.125C5.36499 9.25 7.86499 11.75 10.99 11.75ZM10.99 2.375C13.0212 2.375 14.74 4.09375 14.74 6.125C14.74 8.19531 13.0212 9.875 10.99 9.875C8.91968 9.875 7.23999 8.19531 7.23999 6.125C7.23999 4.09375 8.91968 2.375 10.99 2.375Z"/>
</svg>
