<svg width="30" height="30" viewBox="0 0 30 30" fill="none" xmlns="http://www.w3.org/2000/svg">
<path d="M0 15C0 6.71573 6.71573 0 15 0V0C23.2843 0 30 6.71573 30 15V15C30 23.2843 23.2843 30 15 30V30C6.71573 30 0 23.2843 0 15V15Z" fill="#2D3750"/>
<path d="M9.5 15H20.5C20.75 15 21 14.7812 21 14.5V7.5C21 7.25 20.75 7 20.5 7H17V11L15 10L13 11V7H9.5C9.21875 7 9 7.25 9 7.5V14.5C9 14.7812 9.21875 15 9.5 15ZM23.6562 17.2812C23.2812 16.9375 22.7188 16.9688 22.3125 17.2812L19.4375 19.5625C19.0938 19.875 18.625 20 18.1875 20H14.5C14.2188 20 14 19.7812 14 19.5C14 19.25 14.2188 19 14.5 19H16.9375C17.4375 19 17.9062 18.6875 17.9688 18.1875C18.0625 17.5625 17.5938 17 17 17H12C11.1562 17 10.3125 17.3125 9.65625 17.8438L8.21875 19H6.5C6.21875 19 6 19.25 6 19.5V22.5C6 22.7812 6.21875 23 6.5 23H17.625C18.0938 23 18.5312 22.875 18.875 22.5625L23.625 18.7812C24.0938 18.4062 24.125 17.6875 23.6562 17.2812Z" fill="white"/>
</svg>
