<svg width="49" height="16" viewBox="0 0 49 16" fill="none" xmlns="http://www.w3.org/2000/svg">
<path d="M45.6428 0.713379H42.5714C41.6428 0.713379 40.9285 0.999093 40.5 1.92766L34.6428 15.2848H38.7857C38.7857 15.2848 39.5 13.4991 39.6428 13.0705C40.0714 13.0705 44.1428 13.0705 44.7142 13.0705C44.8571 13.5705 45.2143 15.2134 45.2143 15.2134H48.9285L45.6428 0.713379ZM40.7857 10.0705C41.1428 9.21338 42.3571 5.99909 42.3571 5.99909C42.3571 6.07052 42.7143 5.14195 42.8571 4.64195L43.1428 5.92766C43.1428 5.92766 43.9285 9.42766 44.0714 10.142H40.7857V10.0705Z" fill="#3362AB"/>
<path d="M34.9286 10.499C34.9286 13.499 32.2143 15.499 28 15.499C26.2143 15.499 24.5 15.1419 23.5714 14.7133L24.1428 11.4276L24.6428 11.6419C25.9286 12.2133 26.7857 12.4276 28.3571 12.4276C29.5 12.4276 30.7143 11.999 30.7143 10.999C30.7143 10.3562 30.2143 9.9276 28.6428 9.21331C27.1428 8.49902 25.1428 7.35617 25.1428 5.28474C25.1428 2.4276 27.9286 0.499023 31.8571 0.499023C33.3571 0.499023 34.6428 0.784738 35.4286 1.14188L34.8571 4.28474L34.5714 3.99902C33.8571 3.71331 32.9286 3.42759 31.5714 3.42759C30.0714 3.49902 29.3571 4.14188 29.3571 4.71331C29.3571 5.35617 30.2143 5.85617 31.5714 6.49902C33.8571 7.57045 34.9286 8.78474 34.9286 10.499Z" fill="#3362AB"/>
<path d="M0.0714111 0.856027L0.14284 0.570312H6.2857C7.14284 0.570312 7.7857 0.856027 7.99998 1.7846L9.35713 8.21317C7.99998 4.7846 4.85713 1.99888 0.0714111 0.856027Z" fill="#F9B50B"/>
<path d="M17.9999 0.71303L11.7857 15.213H7.57137L3.99994 3.07017C6.57137 4.71303 8.71422 7.28446 9.49994 9.07017L9.92851 10.5702L13.7857 0.641602H17.9999V0.71303Z" fill="#3362AB"/>
<path d="M19.6429 0.641602H23.5715L21.0715 15.213H17.1429L19.6429 0.641602Z" fill="#3362AB"/>
</svg>
