<svg width="40" height="40" viewBox="0 0 40 40" fill="none" xmlns="http://www.w3.org/2000/svg">
<path d="M0 4C0 1.79086 1.79086 0 4 0H36C38.2091 0 40 1.79086 40 4V36C40 38.2091 38.2091 40 36 40H4C1.79086 40 0 38.2091 0 36V4Z" fill="#FF4F36"/>
<path d="M30.3724 14.1094C30.4896 13.6406 30.3724 13.25 29.6693 13.25H27.3646C26.7786 13.25 26.5052 13.5625 26.349 13.9141C26.349 13.9141 25.1771 16.7656 23.5365 18.6406C22.9896 19.1484 22.7552 19.3438 22.4427 19.3438C22.3255 19.3438 22.0911 19.1484 22.0911 18.6797V14.1094C22.0911 13.5234 21.9349 13.25 21.4271 13.25H17.8333C17.4427 13.25 17.2474 13.5234 17.2474 13.7969C17.2474 14.3438 18.0677 14.4609 18.1458 16.0234V19.4219C18.1458 20.1641 18.0286 20.3203 17.7161 20.3203C16.9349 20.3203 15.0599 17.4297 13.9271 14.1484C13.6927 13.5234 13.4583 13.25 12.8724 13.25H10.5677C9.94271 13.25 9.78646 13.5625 9.78646 13.9141C9.78646 14.5391 10.5677 17.5469 13.4193 21.5703C15.3333 24.3047 18.0286 25.75 20.4505 25.75C21.8958 25.75 22.0911 25.4375 22.0911 24.8906C22.0911 22.2734 21.974 22 22.6771 22C23.0286 22 23.6146 22.1953 24.9818 23.5234C26.5443 25.0859 26.8177 25.75 27.6771 25.75H29.9818C30.6458 25.75 30.9583 25.4375 30.763 24.7734C30.3333 23.4453 27.4036 20.6328 27.2474 20.4375C26.8958 20.0078 27.013 19.8125 27.2474 19.4219C27.2474 19.4219 30.0599 15.4375 30.3724 14.1094Z" fill="white"/>
</svg>
