<svg width="18" height="18" viewBox="0 0 18 18" fill="none" xmlns="http://www.w3.org/2000/svg">
<path d="M16.207 4.75H2.8125C2.49609 4.75 2.25 4.50391 2.25 4.1875C2.25 3.90625 2.49609 3.625 2.8125 3.625H16.3125C16.5938 3.625 16.875 3.37891 16.875 3.0625C16.875 2.14844 16.1016 1.375 15.1875 1.375H2.25C0.984375 1.375 0 2.39453 0 3.625V14.875C0 16.1406 0.984375 17.125 2.25 17.125H16.207C17.1914 17.125 18 16.3867 18 15.4375V6.4375C18 5.52344 17.1914 4.75 16.207 4.75ZM14.625 12.0625C13.9922 12.0625 13.5 11.5703 13.5 10.9375C13.5 10.3398 13.9922 9.8125 14.625 9.8125C15.2227 9.8125 15.75 10.3398 15.75 10.9375C15.75 11.5703 15.2227 12.0625 14.625 12.0625Z" fill="#AAAAAA"/>
</svg>
