<svg width="56" height="55" viewBox="0 0 56 55" fill="none" xmlns="http://www.w3.org/2000/svg">
<path d="M35.3333 26.4362L29.4405 19.9266L22.8929 25.772L28.7857 32.4145L35.3333 26.4362Z" fill="#137ABE"/>
<path d="M18.1786 14.6125L24.0714 21.1222L30.619 15.2768L24.7262 8.76714L18.1786 14.6125Z" fill="#137ABE"/>
<path d="M39.9167 37.7285L34.0238 31.2188L27.4762 37.1971L33.369 43.7068L39.9167 37.7285Z" fill="#137ABE"/>
<path d="M33.1071 48.6222L22.369 36.5328L25.381 33.8758L17.7857 25.3734L20.7976 22.7164L13.2024 14.214L25.119 3.45313L28.9167 7.57149L35.4643 1.85893L39.2619 5.84443L41.75 3.58598C41.2262 3.32028 40.5714 2.92173 40.0476 2.65603C36.25 1.06183 32.1905 -0.000976562 27.869 -0.000976562C12.8095 -0.000976562 0.5 12.3541 0.5 27.499C0.5 42.6439 12.8095 54.999 28 54.999C32.9762 54.999 37.5595 53.6705 41.4881 51.4121C42.7976 50.615 43.9762 49.8179 45.1548 49.0208L39.6548 42.7768L33.1071 48.6222Z" fill="#137ABE"/>
<path d="M30.2262 11.4241L34.5476 16.3396L39.5238 11.9555L35.0714 7.04009L30.2262 11.4241Z" fill="#137ABE"/>
<path d="M43.9762 21.7865L39.5238 16.871L34.6786 21.3879L39.131 26.1705L43.9762 21.7865Z" fill="#137ABE"/>
<path d="M48.1667 32.1488L43.7143 27.2333L38.869 31.6174L43.3214 36.6657L48.1667 32.1488Z" fill="#137ABE"/>
<path d="M48.4286 15.9411L45.1548 18.8638L48.1667 22.185L51.3095 19.2623L48.4286 15.9411Z" fill="#137ABE"/>
<path d="M49.3452 28.5618L52.2262 31.8831L55.5 28.9604L52.4881 25.6391L49.3452 28.5618Z" fill="#137ABE"/>
<path d="M40.9643 9.16569L43.9762 12.4869L47.119 9.56424L44.2381 6.24298L40.9643 9.16569Z" fill="#137ABE"/>
<path d="M43.1905 41.5811L47.6429 46.4966L52.4881 42.1126L48.0357 37.1971L43.1905 41.5811Z" fill="#137ABE"/>
</svg>
