<svg width="42" height="55" viewBox="0 0 42 55" fill="none" xmlns="http://www.w3.org/2000/svg">
<path d="M0 27.2914C0 24.2022 0.260118 22.2423 6.68164 17.4681C11.9991 13.5068 29.0398 -0.000976562 29.0398 -0.000976562V22.5449H42V54.999H4.0487C2.97673 54.9954 1.94965 54.5699 1.19128 53.8153C0.432905 53.0607 0.00470919 52.0381 0 50.9704L0 27.2914Z" fill="#FFCC00"/>
<path d="M29.0396 22.5479V35.6126L5.22598 51.7724L35.336 42.0144V22.5479H29.0396Z" fill="#CC9900"/>
<path d="M18.1586 21.8727C19.5485 20.2193 21.5838 19.6359 22.7017 20.5693C23.8196 21.5028 23.5953 23.6012 22.2013 25.2526C20.8074 26.9039 18.7761 27.4893 17.6582 26.5559C16.5403 25.6224 16.7667 23.5339 18.1586 21.8727Z" fill="black"/>
</svg>
