<svg width="23" height="16" viewBox="0 0 23 16" fill="none" xmlns="http://www.w3.org/2000/svg">
<path d="M21.7344 2.84375C21.8125 3.15625 21.8776 3.54688 21.9297 4.01562C22.0078 4.48438 22.0599 4.95312 22.0859 5.42188C22.112 5.86458 22.125 6.28125 22.125 6.67188C22.151 7.0625 22.1641 7.38802 22.1641 7.64844V8C22.1641 10.3438 22.0208 12.0755 21.7344 13.1953C21.6042 13.638 21.3698 14.0286 21.0312 14.3672C20.6927 14.7057 20.2891 14.9401 19.8203 15.0703C19.3255 15.2005 18.388 15.3047 17.0078 15.3828C15.6276 15.4349 14.3646 15.474 13.2188 15.5H11.5C7.04688 15.5 4.27344 15.3568 3.17969 15.0703C2.16406 14.7839 1.52604 14.1589 1.26562 13.1953C1.13542 12.7005 1.03125 12.0234 0.953125 11.1641C0.901042 10.2786 0.861979 9.53646 0.835938 8.9375V8C0.835938 5.68229 0.979167 3.96354 1.26562 2.84375C1.39583 2.375 1.63021 1.97135 1.96875 1.63281C2.30729 1.29427 2.71094 1.0599 3.17969 0.929688C3.67448 0.799479 4.61198 0.708333 5.99219 0.65625C7.3724 0.578125 8.63542 0.526042 9.78125 0.5H11.5C15.9531 0.5 18.7266 0.643229 19.8203 0.929688C20.2891 1.0599 20.6927 1.29427 21.0312 1.63281C21.3698 1.97135 21.6042 2.375 21.7344 2.84375ZM9.3125 11.2031L14.8984 8L9.3125 4.83594V11.2031Z" fill="white"/>
</svg>
